<?xml version="1.0" encoding="UTF-8" standalone="no"?>
<!-- Created with Inkscape (http://www.inkscape.org/) -->

<svg
   xmlns:dc="http://purl.org/dc/elements/1.1/"
   xmlns:cc="http://creativecommons.org/ns#"
   xmlns:rdf="http://www.w3.org/1999/02/22-rdf-syntax-ns#"
   xmlns:svg="http://www.w3.org/2000/svg"
   xmlns="http://www.w3.org/2000/svg"
   xmlns:sodipodi="http://sodipodi.sourceforge.net/DTD/sodipodi-0.dtd"
   xmlns:inkscape="http://www.inkscape.org/namespaces/inkscape"
   id="svg2"
   version="1.1"
   inkscape:version="0.91 r13725"
   xml:space="preserve"
   width="266.5"
   height="51.1875"
   viewBox="0 0 266.5 51.1875"
   sodipodi:docname="G_contr.svg"><metadata
     id="metadata8"><rdf:RDF><cc:Work
         rdf:about=""><dc:format>image/svg+xml</dc:format><dc:type
           rdf:resource="http://purl.org/dc/dcmitype/StillImage" /><dc:title></dc:title></cc:Work></rdf:RDF></metadata><defs
     id="defs6" /><sodipodi:namedview
     pagecolor="#ffffff"
     bordercolor="#666666"
     borderopacity="1"
     objecttolerance="10"
     gridtolerance="10"
     guidetolerance="10"
     inkscape:pageopacity="0"
     inkscape:pageshadow="2"
     inkscape:window-width="748"
     inkscape:window-height="480"
     id="namedview4"
     showgrid="false"
     fit-margin-left="10"
     fit-margin-top="0"
     fit-margin-right="0"
     fit-margin-bottom="0"
     inkscape:zoom="2.1430657"
     inkscape:cx="138.25"
     inkscape:cy="26.03125"
     inkscape:window-x="0"
     inkscape:window-y="24"
     inkscape:window-maximized="0"
     inkscape:current-layer="g10" /><g
     id="g10"
     inkscape:groupmode="layer"
     inkscape:label="ink_ext_XXXXXX"
     transform="matrix(1.25,0,0,-1.25,52.625,42.65625)"><g
       id="g12"
       transform="matrix(0.15,0,0,0.15,-34.25,-6.825)"><path
         d="m 71.7148,188.008 c 0,0.293 -0.2148,0.992 -1.1093,0.992 -0.3008,0 -0.3985,-0.098 -1.4961,-1.164 l -6.9688,-7.465 C 61.2461,181.727 56.6641,189 45.6094,189 23.4063,189 1,167.105 1,144.133 1,128.387 12.0547,117 28.1836,117 c 4.3828,0 8.8633,0.887 12.4492,2.363 4.9766,1.969 6.8711,4.039 8.6641,6.008 0.8945,-2.461 3.4844,-6.105 4.4804,-6.105 0.4961,0 0.6954,0.297 0.6954,0.394 0.1992,0.195 1.1953,3.938 1.6914,6.004 l 1.8945,7.582 c 0.3984,1.676 0.8945,3.348 1.293,5.024 1.0976,4.429 1.1953,4.625 6.8711,4.726 0.5,0 1.6093,0.098 1.6093,1.938 0,0.675 -0.5039,1.062 -1.3007,1.062 l -24.4258,0 c -0.8985,0 -2.0938,0 -2.0938,-1.933 0,-1.067 0.7969,-1.067 2.9883,-1.067 0.1016,0 2.9922,0 5.2852,-0.199 2.5937,-0.297 3.0898,-0.594 3.0898,-1.875 0,-0.887 -1.0937,-5.328 -2.0937,-8.981 C 46.4922,121.086 33.5313,120 30.0391,120 20.4688,120 10,125.66 10,140.84 c 0,3.078 0.9961,19.453 11.4648,32.351 5.3868,6.75 15.0547,12.809 24.9258,12.809 10.1719,0 16.0508,-7.633 16.0508,-19.117 0,-3.961 -0.2969,-4.059 -0.2969,-5.051 0,-0.988 1.0977,-0.988 1.4961,-0.988 1.2969,0 1.2969,0.195 1.793,1.976"
         style="fill:#000000;fill-opacity:1;fill-rule:nonzero;stroke:none"
         id="path14"
         inkscape:connector-curvature="0" /><path
         d="m 126,207.188 c 0,1.183 0,1.812 -0.984,1.812 -0.278,0 -0.629,0 -1.188,-0.836 l -3.691,-5.273 C 117.207,205.805 112.395,209 105.703,209 91.0625,209 79,197.789 79,184.031 79,169.996 91.2695,159 105.703,159 c 12.34,0 20.297,9.016 20.297,17.344 0,0.75 -0.074,1.301 -1.203,1.301 -0.426,0 -1.129,0 -1.199,-0.86 -0.567,-10.625 -10.16,-14.781 -17.141,-14.781 -7.5507,0 -20.457,4.391 -20.457,21.961 0,18.312 13.5156,22.035 20.066,22.035 6.895,0 15.118,-4.469 16.934,-16.105 0.164,-0.813 0.914,-0.813 1.5,-0.813 1.5,0 1.5,0.418 1.5,1.809"
         style="fill:#000000;fill-opacity:1;fill-rule:nonzero;stroke:none"
         id="path16"
         inkscape:connector-curvature="0" /><path
         d="m 168,174.648 c 0,8.77 -7.645,16.352 -17.5,16.352 -9.855,0 -17.5,-7.582 -17.5,-16.352 0,-8.699 7.855,-15.648 17.5,-15.648 9.641,0 17.5,6.949 17.5,15.648 z m -17.5,-12.644 c -2.523,0 -6.203,0.816 -8.453,4.156 -1.844,2.797 -2.047,6.34 -2.047,9.477 0,2.929 0.07,6.953 2.453,9.883 1.707,1.98 4.57,3.48 8.047,3.48 4.02,0 6.883,-1.91 8.383,-4.023 1.91,-2.661 2.117,-6.067 2.117,-9.34 0,-3.274 -0.207,-6.887 -2.184,-9.68 -1.839,-2.59 -4.976,-3.953 -8.316,-3.953"
         style="fill:#000000;fill-opacity:1;fill-rule:nonzero;stroke:none"
         id="path18"
         inkscape:connector-curvature="0" /><path
         d="m 206,181.457 c 0,6.012 -3.012,9.543 -10.492,9.543 -5.735,0 -9.438,-3.254 -11.395,-7.012 l -0.07,0 0,7.012 -10.277,-0.766 0,-2.488 c 4.675,0 5.234,-0.484 5.234,-3.871 l 0,-17.902 C 179,163 178.301,163 173.766,163 l 0,-3 15.968,0 0,3 c -4.101,0 -4.734,0 -4.734,2.965 l 0,12.41 c 0,7.242 5.461,10.625 9.801,10.625 4.605,0 5.195,-3.797 5.195,-7.312 l 0,-15.723 c 0,-2.965 -0.641,-2.965 -4.82,-2.965 l 0,-3 15.969,0 0,3 c -4.461,0 -5.145,0 -5.145,2.973"
         style="fill:#000000;fill-opacity:1;fill-rule:nonzero;stroke:none"
         id="path20"
         inkscape:connector-curvature="0" /><path
         d="m 226,187 10.898,0 0,3 -10.898,0 0,13 -2.367,0 c -0.07,-6.547 -2.926,-13.746 -9.61,-13.965 l 0,-2.035 5.977,0 0,-18.668 c 0,-7.742 5.977,-9.332 9.957,-9.332 4.766,0 8.043,4.066 8.043,9.699 l 0,3.922 -2,0 0,-3.605 c 0,-4.543 -2.289,-7.012 -5.074,-7.012 -4.926,0 -4.926,5.629 -4.926,6.832"
         style="fill:#000000;fill-opacity:1;fill-rule:nonzero;stroke:none"
         id="path22"
         inkscape:connector-curvature="0" /><path
         d="m 257,176.238 c 0,5.793 2.684,12.762 9.223,12.762 -0.649,-0.508 -1.223,-1.445 -1.223,-2.598 0,-2.382 1.996,-3.32 3.461,-3.32 1.844,0 3.539,1.152 3.539,3.313 0,2.445 -2.293,4.605 -5.652,4.605 -3.571,0 -7.5,-2.234 -9.645,-7.707 l -0.07,0 0,7.707 -10.215,-0.766 0,-2.488 c 4.094,0 4.582,-0.484 4.582,-3.871 l 0,-17.902 C 251,163 250.387,163 246.418,163 l 0,-3 17.016,0 0,3 -1.371,0 C 257,163 257,163.758 257,166.102"
         style="fill:#000000;fill-opacity:1;fill-rule:nonzero;stroke:none"
         id="path24"
         inkscape:connector-curvature="0" /><path
         d="m 290,163.965 c 0,2.433 -1.949,4.035 -3.965,4.035 -2.433,0 -4.035,-1.949 -4.035,-3.965 0,-2.433 1.945,-4.035 3.965,-4.035 2.433,0 4.035,1.945 4.035,3.965"
         style="fill:#000000;fill-opacity:1;fill-rule:nonzero;stroke:none"
         id="path26"
         inkscape:connector-curvature="0" /><path
         d="m 399.621,152 c 1.488,0 3.379,0 3.379,2 0,2 -1.891,2 -3.277,2 l -59.457,0 c -1.391,0 -3.278,0 -3.278,-2 0,-2 1.887,-2 3.375,-2 l 59.258,0 z m 0.102,-20 c 1.386,0 3.277,0 3.277,2 0,2 -1.891,2 -3.379,2 l -59.258,0 c -1.488,0 -3.375,0 -3.375,-2 0,-2 1.887,-2 3.278,-2"
         style="fill:#000000;fill-opacity:1;fill-rule:nonzero;stroke:none"
         id="path28"
         inkscape:connector-curvature="0" /><path
         d="m 491.445,246.18 c -0.277,-0.922 -0.691,-2.696 -0.691,-2.91 0,-1.559 1.242,-2.27 2.344,-2.27 1.238,0 2.343,0.922 2.687,1.563 0.344,0.636 0.895,2.906 1.238,4.394 0.344,1.348 1.102,4.609 1.516,6.383 0.414,1.562 0.828,3.121 1.172,4.754 0.758,2.906 0.894,3.472 2.894,6.379 1.926,2.836 5.165,6.527 10.333,6.527 3.996,0 4.062,-3.617 4.062,-4.965 0,-4.258 -2.906,-12.129 -3.988,-15.105 -0.742,-1.985 -1.012,-2.625 -1.012,-3.828 0,-3.758 3.105,-6.102 6.711,-6.102 7.066,0 10.176,9.875 10.176,10.949 0,0.93 -0.934,0.93 -1.149,0.93 -1,0 -1.074,-0.43 -1.359,-1.219 -1.649,-5.722 -4.727,-8.66 -7.59,-8.66 -1.504,0 -1.789,0.996 -1.789,2.484 0,1.629 0.328,2.551 1.512,5.743 0.789,2.199 3.492,9.714 3.492,13.687 0,6.879 -5.285,8.086 -8.918,8.086 -5.691,0 -9.531,-3.695 -11.586,-6.59 -0.48,4.996 -4.527,6.59 -7.336,6.59 -2.949,0 -4.527,-2.211 -5.418,-3.848 -1.508,-2.632 -2.469,-6.691 -2.469,-7.05 0,-0.922 0.965,-0.922 1.172,-0.922 0.965,0 1.031,0.211 1.516,2.133 1.031,4.199 2.34,7.687 5.027,7.687 1.793,0 2.274,-1.562 2.274,-3.477 0,-1.347 -0.621,-3.972 -1.102,-5.886 -0.48,-1.914 -1.172,-4.821 -1.516,-6.383"
         style="fill:#000000;fill-opacity:1;fill-rule:nonzero;stroke:none"
         id="path30"
         inkscape:connector-curvature="0" /><path
         d="m 563.125,72 12.059,32.402 -2.493,0 C 568.805,93.957 558.246,87.1289 546.789,84.1133 544.695,83.6133 534.934,81 515.805,81 l -60.075,0 50.711,59.465 c 0.696,0.797 0.895,1.094 0.895,1.594 0,0.199 0,0.496 -0.695,1.492 L 460.215,207 l 54.594,0 c 13.347,0 22.414,-1.383 23.312,-1.582 5.379,-0.789 14.047,-2.469 21.918,-7.402 2.488,-1.578 9.266,-6.02 12.652,-14.012 l 2.493,0 -12.059,27.996 -117.758,0 c -2.289,0 -2.39,-0.113 -2.687,-0.711 -0.102,-0.301 -0.102,-2.203 -0.102,-3.301 L 495.281,135.594 443.676,74.8984 C 442.68,73.6992 442.68,73.1992 442.68,73.1016 442.68,72 443.574,72 445.367,72"
         style="fill:#000000;fill-opacity:1;fill-rule:nonzero;stroke:none"
         id="path32"
         inkscape:connector-curvature="0" /><path
         d="m 516.594,44.5508 c 0,1.0312 -0.836,2.4492 -2.789,2.4492 -1.883,0 -3.907,-1.6758 -3.907,-3.5469 0,-1.0976 0.911,-2.4531 2.793,-2.4531 2.02,0 3.903,1.8086 3.903,3.5508 z M 502.621,9.00781 C 502.344,8.08594 502,7.23438 502,6.03125 502,2.69531 504.742,0 508.52,0 c 6.863,0 9.89,9.875 9.89,10.9492 0,0.9297 -0.894,0.9297 -1.101,0.9297 -0.961,0 -1.032,-0.4297 -1.305,-1.2187 C 514.422,4.9375 511.398,2 508.715,2 507.344,2 507,2.92188 507,4.48438 c 0,1.6289 0.473,2.97656 1.086,4.53906 0.68,1.91406 1.426,3.82816 2.176,5.67186 0.613,1.7031 3.058,8.1563 3.332,9.0078 0.203,0.7071 0.406,1.5586 0.406,2.2657 0,3.3359 -2.789,6.0312 -6.621,6.0312 -6.899,0 -10.102,-9.6875 -10.102,-10.8984 0,-0.9219 0.985,-0.9219 1.196,-0.9219 0.98,0 1.05,0.3555 1.261,1.1367 1.825,6.1172 4.914,8.6836 7.512,8.6836 1.121,0 1.754,-0.5703 1.754,-2.4844 0,-1.6289 -0.387,-2.6953 -2,-7.0898"
         style="fill:#000000;fill-opacity:1;fill-rule:nonzero;stroke:none"
         id="path34"
         inkscape:connector-curvature="0" /><path
         d="m 633.156,156.605 c -1.793,3.692 -4.679,6.391 -9.16,6.391 -11.652,0 -24,-14.601 -24,-29.105 0,-9.336 5.477,-15.895 13.246,-15.895 1.992,0 6.969,0.395 12.946,7.379 0.796,-4.133 4.281,-7.379 9.058,-7.379 3.488,0 5.777,2.277 7.371,5.449 1.692,3.567 2.996,9.606 2.996,9.805 0,0.992 -0.906,0.992 -1.203,0.992 -0.996,0 -1.097,-0.402 -1.394,-1.804 -1.696,-6.524 -3.485,-12.442 -7.571,-12.442 -2.687,0 -2.984,2.594 -2.984,4.59 0,2.195 0.199,2.992 1.293,7.383 1.094,4.187 1.297,5.183 2.191,8.976 l 3.586,13.965 c 0.696,2.793 0.696,2.992 0.696,3.391 0,1.695 -1.196,2.691 -2.887,2.691 -2.391,0 -3.883,-2.191 -4.184,-4.387 z m -6.488,-25.781 c -0.5,-1.804 -0.5,-2.008 -1.996,-3.711 -4.395,-5.511 -8.488,-7.117 -11.281,-7.117 -4.996,0 -6.391,5.516 -6.391,9.422 0,5.012 3.195,17.344 5.488,21.953 3.098,5.914 7.59,9.625 11.582,9.625 6.493,0 7.895,-8.223 7.895,-8.824 0,-0.602 -0.203,-1.203 -0.305,-1.703"
         style="fill:#000000;fill-opacity:1;fill-rule:nonzero;stroke:none"
         id="path36"
         inkscape:connector-curvature="0" /><path
         d="m 671.594,147.551 c 0,1.031 -0.836,2.449 -2.789,2.449 -1.883,0 -3.907,-1.676 -3.907,-3.547 0,-1.098 0.911,-2.453 2.793,-2.453 2.02,0 3.903,1.809 3.903,3.551 z m -13.973,-35.543 c -0.277,-0.922 -0.621,-1.774 -0.621,-2.977 0,-3.336 2.742,-6.031 6.52,-6.031 6.863,0 9.89,9.875 9.89,10.949 0,0.93 -0.894,0.93 -1.101,0.93 -0.961,0 -1.032,-0.43 -1.305,-1.219 -1.582,-5.722 -4.606,-8.66 -7.289,-8.66 -1.371,0 -1.715,0.922 -1.715,2.484 0,1.629 0.473,2.977 1.086,4.539 0.68,1.915 1.426,3.829 2.176,5.672 0.613,1.703 3.058,8.157 3.332,9.008 0.203,0.707 0.406,1.559 0.406,2.266 0,3.336 -2.789,6.031 -6.621,6.031 -6.899,0 -10.102,-9.687 -10.102,-10.898 0,-0.922 0.985,-0.922 1.196,-0.922 0.98,0 1.05,0.355 1.261,1.136 1.825,6.118 4.914,8.684 7.512,8.684 1.121,0 1.754,-0.57 1.754,-2.484 0,-1.629 -0.387,-2.696 -2,-7.09"
         style="fill:#000000;fill-opacity:1;fill-rule:nonzero;stroke:none"
         id="path38"
         inkscape:connector-curvature="0" /><path
         d="m 758.715,188.008 c 0,0.293 -0.215,0.992 -1.11,0.992 -0.3,0 -0.398,-0.098 -1.496,-1.164 l -6.968,-7.465 C 748.246,181.727 743.664,189 732.609,189 710.406,189 688,167.105 688,144.133 688,128.387 699.055,117 715.184,117 c 4.382,0 8.863,0.887 12.449,2.363 4.976,1.969 6.871,4.039 8.664,6.008 0.894,-2.461 3.484,-6.105 4.48,-6.105 0.496,0 0.696,0.297 0.696,0.394 0.199,0.195 1.195,3.938 1.691,6.004 l 1.895,7.582 c 0.398,1.676 0.894,3.348 1.293,5.024 1.097,4.429 1.195,4.625 6.871,4.726 0.5,0 1.609,0.098 1.609,1.938 0,0.675 -0.504,1.062 -1.301,1.062 l -24.426,0 c -0.898,0 -2.093,0 -2.093,-1.933 0,-1.067 0.797,-1.067 2.988,-1.067 0.102,0 2.992,0 5.285,-0.199 2.594,-0.297 3.09,-0.594 3.09,-1.875 0,-0.887 -1.094,-5.328 -2.094,-8.981 C 733.492,121.086 720.531,120 717.039,120 707.469,120 697,125.66 697,140.84 c 0,3.078 0.996,19.453 11.465,32.351 5.387,6.75 15.055,12.809 24.926,12.809 10.172,0 16.05,-7.633 16.05,-19.117 0,-3.961 -0.296,-4.059 -0.296,-5.051 0,-0.988 1.097,-0.988 1.496,-0.988 1.297,0 1.297,0.195 1.793,1.976"
         style="fill:#000000;fill-opacity:1;fill-rule:nonzero;stroke:none"
         id="path40"
         inkscape:connector-curvature="0" /><path
         d="m 793.977,95 c 0,0.3008 0,0.5 -1.661,2.1992 C 780.121,109.797 777,128.695 777,143.996 c 0,17.399 3.707,34.797 15.707,47.297 1.27,1.199 1.27,1.398 1.27,1.699 0,0.699 -0.403,1.008 -0.997,1.008 -0.988,0 -9.902,-6.809 -15.742,-19.508 -5.05,-11 -6.238,-22.097 -6.238,-30.496 0,-7.801 1.09,-19.898 6.535,-31.199 C 783.477,100.5 791.992,94 792.98,94 c 0.594,0 0.997,0.3008 0.997,1"
         style="fill:#000000;fill-opacity:1;fill-rule:nonzero;stroke:none"
         id="path42"
         inkscape:connector-curvature="0" /><path
         d="m 847.004,142.441 c 0,15.661 -9.391,20.555 -16.859,20.555 -13.829,0 -27.149,-14.207 -27.149,-28.211 0,-9.238 5.988,-16.789 16.164,-16.789 6.285,0 13.469,2.266 21.051,8.277 1.297,-5.222 4.59,-8.277 9.082,-8.277 5.285,0 8.387,5.418 8.387,6.992 0,0.688 -0.571,0.985 -1.145,0.985 -0.668,0 -0.953,-0.305 -1.238,-1.012 -1.715,-4.965 -5.149,-4.965 -5.34,-4.965 -2.953,0 -2.953,7.781 -2.953,10.176 0,2.094 0,2.293 0.957,3.492 9,11.77 11.016,23.34 11.016,23.441 0,0.2 -0.098,0.997 -1.153,0.997 -0.957,0 -0.957,-0.301 -1.437,-2.094 -1.723,-6.285 -4.883,-13.867 -9.383,-19.75 l 0,6.183 z m -7,-13.625 c -8.953,-7.714 -16.785,-8.82 -20.852,-8.82 -6.101,0 -9.152,4.512 -9.152,10.926 0,4.914 2.66,15.738 5.938,20.851 4.812,7.317 10.343,9.223 13.925,9.223 10.141,0 10.141,-13.133 10.141,-20.953 0,-3.707 0,-9.52 0,-11.227"
         style="fill:#000000;fill-opacity:1;fill-rule:nonzero;stroke:none"
         id="path44"
         inkscape:connector-curvature="0" /><path
         d="m 885.594,147.551 c 0,1.031 -0.836,2.449 -2.789,2.449 -1.883,0 -3.907,-1.676 -3.907,-3.547 0,-1.098 0.911,-2.453 2.793,-2.453 2.02,0 3.903,1.809 3.903,3.551 z m -13.973,-35.543 c -0.277,-0.922 -0.621,-1.774 -0.621,-2.977 0,-3.336 2.742,-6.031 6.52,-6.031 6.863,0 9.89,9.875 9.89,10.949 0,0.93 -0.894,0.93 -1.101,0.93 -0.961,0 -1.032,-0.43 -1.305,-1.219 -1.582,-5.722 -4.606,-8.66 -7.289,-8.66 -1.371,0 -1.715,0.922 -1.715,2.484 0,1.629 0.473,2.977 1.086,4.539 0.68,1.915 1.426,3.829 2.176,5.672 0.613,1.703 3.058,8.157 3.332,9.008 0.203,0.707 0.406,1.559 0.406,2.266 0,3.336 -2.789,6.031 -6.621,6.031 -6.899,0 -10.102,-9.687 -10.102,-10.898 0,-0.922 0.985,-0.922 1.196,-0.922 0.98,0 1.05,0.355 1.261,1.136 1.825,6.118 4.914,8.684 7.512,8.684 1.121,0 1.754,-0.57 1.754,-2.484 0,-1.629 -0.387,-2.696 -2,-7.09"
         style="fill:#000000;fill-opacity:1;fill-rule:nonzero;stroke:none"
         id="path46"
         inkscape:connector-curvature="0" /><path
         d="m 916,119 c 0,6.914 -2.445,11 -6.254,11 -3.223,0 -5.18,-2.594 -5.18,-5.5 0,-2.801 1.989,-5.5 5.262,-5.5 1.192,0 2.485,0.398 3.477,1.297 0.297,0.199 0.398,0.297 0.496,0.297 0.101,0 0.199,-0.106 0.199,-1.594 0,-7.246 -3.473,-13.121 -6.746,-16.355 -1.094,-1.075 -1.094,-1.27 -1.094,-1.567 0,-0.683 0.488,-1.074 0.977,-1.074 1.07,0 8.863,7.539 8.863,18.996"
         style="fill:#000000;fill-opacity:1;fill-rule:nonzero;stroke:none"
         id="path48"
         inkscape:connector-curvature="0" /><path
         d="M 987.969,186.387 C 986.875,189 985.684,189 983.996,189 c -2.777,0 -3.176,-0.816 -3.867,-2.613 l -24.613,-60.09 C 954.922,124.801 954.625,124 947.082,124 l -2.086,0 0,-5 24.711,0 0,5 c -0.199,0 -8.832,0 -8.832,1.246 0,0.098 0.297,1.055 0.398,1.152 l 4.961,11.598 26.594,0 5.957,-13.996 -9.43,0 0,-5 33.655,0 0,5 -9.64,0 -25.401,62.387 z m -8.215,-15.782 11.359,-27.609 -22.715,0"
         style="fill:#000000;fill-opacity:1;fill-rule:nonzero;stroke:none"
         id="path50"
         inkscape:connector-curvature="0" /><path
         d="m 1047,119 c 0,6.914 -2.45,11 -6.25,11 -3.23,0 -5.18,-2.594 -5.18,-5.5 0,-2.801 1.98,-5.5 5.26,-5.5 1.19,0 2.48,0.398 3.47,1.297 0.3,0.199 0.4,0.297 0.5,0.297 0.1,0 0.2,-0.106 0.2,-1.594 0,-7.246 -3.47,-13.121 -6.75,-16.355 -1.09,-1.075 -1.09,-1.27 -1.09,-1.567 0,-0.683 0.49,-1.074 0.98,-1.074 1.07,0 8.86,7.539 8.86,18.996"
         style="fill:#000000;fill-opacity:1;fill-rule:nonzero;stroke:none"
         id="path52"
         inkscape:connector-curvature="0" /><path
         d="m 1096.7,186.898 c 0,0.098 0,1.098 -1.29,1.098 -2.29,0 -9.57,-0.762 -12.16,-0.953 -0.79,-0.094 -1.89,-0.188 -1.89,-2 0,-1.047 1,-1.047 2.49,-1.047 4.78,0 4.88,-0.906 4.88,-1.703 l -0.3,-1.992 -12.55,-49.762 c -0.3,-1.098 -0.5,-1.793 -0.5,-3.387 0,-5.672 4.39,-9.156 9.07,-9.156 3.29,0 5.78,1.981 7.47,5.547 1.79,3.766 2.99,9.508 2.99,9.707 0,0.992 -0.88,0.992 -1.18,0.992 -0.97,0 -1.07,-0.402 -1.36,-1.804 -1.67,-6.524 -3.52,-12.442 -7.43,-12.442 -2.94,0 -2.94,3.188 -2.94,4.582 0,2.387 0.1,2.887 0.59,4.777"
         style="fill:#000000;fill-opacity:1;fill-rule:nonzero;stroke:none"
         id="path54"
         inkscape:connector-curvature="0" /><path
         d="m 1124,119 c 0,6.914 -2.45,11 -6.25,11 -3.23,0 -5.18,-2.594 -5.18,-5.5 0,-2.801 1.98,-5.5 5.26,-5.5 1.19,0 2.48,0.398 3.47,1.297 0.3,0.199 0.4,0.297 0.5,0.297 0.1,0 0.2,-0.106 0.2,-1.594 0,-7.246 -3.47,-13.121 -6.75,-16.355 -1.09,-1.075 -1.09,-1.27 -1.09,-1.567 0,-0.683 0.49,-1.074 0.98,-1.074 1.07,0 8.86,7.539 8.86,18.996"
         style="fill:#000000;fill-opacity:1;fill-rule:nonzero;stroke:none"
         id="path56"
         inkscape:connector-curvature="0" /><path
         d="m 1156.79,124.98 c -0.3,-1.496 -0.9,-3.792 -0.9,-4.289 0,-1.796 1.4,-2.695 2.9,-2.695 1.2,0 3,0.801 3.7,2.793 0.1,0.199 1.3,4.891 1.9,7.383 l 2.2,8.976 c 0.6,2.196 1.2,4.391 1.7,6.684 0.4,1.695 1.2,4.59 1.3,4.988 1.5,3.09 6.8,12.176 16.3,12.176 4.5,0 5.4,-3.699 5.4,-6.988 0,-2.496 -0.7,-5.289 -1.5,-8.281 l -2.81,-11.571 -2,-7.582 c -0.39,-1.992 -1.29,-5.386 -1.29,-5.883 0,-1.796 1.4,-2.695 2.9,-2.695 3.09,0 3.7,2.496 4.5,5.688 1.39,5.586 5.09,20.148 6,24.039 0.29,1.297 5.59,13.273 16.49,13.273 4.3,0 5.42,-3.398 5.42,-6.988 0,-5.688 -4.48,-17.059 -6.61,-22.344 -0.96,-2.394 -1.39,-3.492 -1.39,-5.488 0,-4.688 3.53,-8.18 8.27,-8.18 9.48,0 13.21,14.461 13.21,15.254 0,0.992 -0.91,0.992 -1.21,0.992 -1.02,0 -1.02,-0.301 -1.52,-1.804 -1.52,-5.317 -4.75,-12.442 -10.32,-12.442 -1.72,0 -2.43,1 -2.43,3.293 0,2.492 0.91,4.887 1.82,7.082 1.93,5.188 6.18,16.258 6.18,21.945 0,6.485 -4,10.68 -11.45,10.68 -7.46,0 -12.53,-4.367 -16.21,-9.625 -0.11,1.289 -0.4,4.664 -3.19,7.047 -2.49,2.082 -5.67,2.578 -8.15,2.578 -8.95,0 -13.83,-6.348 -15.52,-8.629 -0.5,5.653 -4.67,8.629 -9.15,8.629 -4.57,0 -6.46,-3.879 -7.36,-5.668 -1.79,-3.476 -3.08,-9.34 -3.08,-9.637 0,-0.996 1,-0.996 1.2,-0.996 1,0 1.1,0.102 1.7,2.317 1.7,7.148 3.7,11.984 7.3,11.984 1.6,0 3.1,-0.805 3.1,-4.598 0,-2.093 -0.3,-3.191 -1.6,-8.375"
         style="fill:#000000;fill-opacity:1;fill-rule:nonzero;stroke:none"
         id="path58"
         inkscape:connector-curvature="0" /><path
         d="m 1256,119 c 0,6.914 -2.45,11 -6.25,11 -3.23,0 -5.18,-2.594 -5.18,-5.5 0,-2.801 1.98,-5.5 5.26,-5.5 1.19,0 2.48,0.398 3.47,1.297 0.3,0.199 0.4,0.297 0.5,0.297 0.1,0 0.2,-0.106 0.2,-1.594 0,-7.246 -3.47,-13.121 -6.75,-16.355 -1.09,-1.075 -1.09,-1.27 -1.09,-1.567 0,-0.683 0.49,-1.074 0.98,-1.074 1.07,0 8.86,7.539 8.86,18.996"
         style="fill:#000000;fill-opacity:1;fill-rule:nonzero;stroke:none"
         id="path60"
         inkscape:connector-curvature="0" /><path
         d="m 1288.75,124.98 c -0.3,-1.496 -0.9,-3.792 -0.9,-4.289 0,-1.796 1.39,-2.695 2.88,-2.695 1.2,0 2.98,0.801 3.68,2.793 0.09,0.199 1.29,4.891 1.88,7.383 l 2.19,8.976 c 0.59,2.196 1.19,4.391 1.68,6.684 0.4,1.695 1.2,4.59 1.3,4.988 1.49,3.09 6.75,12.176 16.18,12.176 4.47,0 5.36,-3.699 5.36,-6.988 0,-6.188 -4.57,-18.953 -6.07,-23.242 -0.84,-2.293 -0.93,-3.493 -0.93,-4.59 0,-4.688 3.43,-8.18 8.04,-8.18 9.22,0 12.85,14.461 12.85,15.254 0,0.992 -0.88,0.992 -1.17,0.992 -0.97,0 -0.97,-0.301 -1.46,-1.804 -1.95,-6.825 -5.16,-12.442 -9.93,-12.442 -1.65,0 -2.33,1 -2.33,3.293 0,2.492 0.8,4.887 1.59,7.082 1.69,5.289 5.41,16.258 5.41,21.945 0,6.684 -4.23,10.68 -11.33,10.68 -8.87,0 -13.69,-6.348 -15.37,-8.629 -0.49,5.555 -4.53,8.629 -9.07,8.629 -4.53,0 -6.4,-3.879 -7.39,-5.668 -1.57,-3.379 -2.95,-9.242 -2.95,-9.637 0,-0.996 0.99,-0.996 1.19,-0.996 0.99,0 1.09,0.102 1.69,2.317 1.69,7.148 3.67,11.984 7.25,11.984 1.98,0 3.07,-1.305 3.07,-4.598 0,-2.093 -0.29,-3.191 -1.59,-8.375"
         style="fill:#000000;fill-opacity:1;fill-rule:nonzero;stroke:none"
         id="path62"
         inkscape:connector-curvature="0" /><path
         d="m 1369,143.996 c 0,7.797 -1.11,19.899 -6.63,31.195 -6.03,12.301 -14.68,18.809 -15.69,18.809 -0.6,0 -1,-0.41 -1,-1.008 0,-0.301 0,-0.5 1.89,-2.301 9.76,-9.898 15.43,-25.796 15.43,-46.695 0,-17.098 -3.68,-34.699 -16.03,-47.2968 -1.29,-1.1992 -1.29,-1.3984 -1.29,-1.6992 0,-0.6016 0.4,-1 1,-1 1.01,0 10.06,6.801 15.99,19.496 5.12,11 6.33,22.102 6.33,30.5"
         style="fill:#000000;fill-opacity:1;fill-rule:nonzero;stroke:none"
         id="path64"
         inkscape:connector-curvature="0" /></g></g></svg>