<?xml version="1.0" encoding="UTF-8" standalone="no"?>
<svg
   xmlns:dc="http://purl.org/dc/elements/1.1/"
   xmlns:cc="http://creativecommons.org/ns#"
   xmlns:rdf="http://www.w3.org/1999/02/22-rdf-syntax-ns#"
   xmlns:svg="http://www.w3.org/2000/svg"
   xmlns="http://www.w3.org/2000/svg"
   viewBox="0 0 91.75 21.1875"
   height="21.1875"
   width="91.75"
   xml:space="preserve"
   version="1.1"
   id="svg2"><metadata
     id="metadata8"><rdf:RDF><cc:Work
         rdf:about=""><dc:format>image/svg+xml</dc:format><dc:type
           rdf:resource="http://purl.org/dc/dcmitype/StillImage" /><dc:title></dc:title></cc:Work></rdf:RDF></metadata><defs
     id="defs6" /><g
     transform="matrix(1.25,0,0,-1.25,23.5,17.65625)"
     id="g10"><g
       transform="matrix(0.15,0,0,0.15,-10.95,-2.825)"
       id="g12"><path
         id="path14"
         style="fill:#000000;fill-opacity:1;fill-rule:nonzero;stroke:none"
         d="M 5,96.3906 C 5,98.1914 5,100 3,100 1,100 1,98.1914 1,96.3906 L 1,3.59766 C 1,1.80078 1,0 3,0 5,0 5,1.80078 5,3.59766" /><path
         id="path16"
         style="fill:#000000;fill-opacity:1;fill-rule:nonzero;stroke:none"
         d="M 37.207,58.5742 37.207,70 20.6875,69.2734 20.6875,65 C 26.3594,65 27,65 27,61.0703 L 27,30 l -6.3125,0 0,-5 26.3008,0 0,5 -8.9844,0 0,17.2813 c 0,6.914 2.5508,18.9648 12.7695,18.9648 -0.0937,-0.0977 -1.7773,-1.6289 -1.7773,-4.4063 0,-3.9257 3.1484,-5.8437 6,-5.8437 2.8516,0 6,2.0586 6,5.9727 C 60.9961,67.1602 55.6211,70 50.4453,70 43.4766,70 39.4961,64.9453 37.207,58.5742" /><path
         id="path18"
         style="fill:#000000;fill-opacity:1;fill-rule:nonzero;stroke:none"
         d="M 101.59,57.0469 C 100.684,59 99.8438,59 97.7539,59 c -2.1641,0 -3,0 -3.9062,-1.9531 L 75.0898,15.25 C 74.6719,14.418 74.6016,14.3477 72.8555,14.1406 71.5313,14 70.8359,14 69.6484,14 l -2.0898,0 0,-4 18.6172,0 0,4 c -0.207,0 -5.9961,0 -5.9961,0.5703 0,0.0742 0.2773,0.6445 0.3476,0.7852 L 84.293,24 l 21.27,0 4.394,-10 -6.277,0 0,-4 24.199,0 0,4 -6.902,0 -19.387,43.0469 z M 94.8945,47.3789 103.82,28 86.0391,28" /><path
         id="path20"
         style="fill:#000000;fill-opacity:1;fill-rule:nonzero;stroke:none"
         d="m 225.512,48 c 1.695,0 3.5,0 3.5,2 0,2 -1.805,2 -3.5,2 l -54.016,0 C 169.797,52 168,52 168,50 c 0,-2 1.797,-2 3.496,-2" /><path
         id="path22"
         style="fill:#000000;fill-opacity:1;fill-rule:nonzero;stroke:none"
         d="m 279.207,58.5742 0,11.4258 -16.519,-0.7266 0,-4.2734 C 268.359,65 269,65 269,61.0703 L 269,30 l -6.312,0 0,-5 26.3,0 0,5 -8.984,0 0,17.2813 c 0,6.914 2.551,18.9648 12.769,18.9648 -0.093,-0.0977 -1.777,-1.6289 -1.777,-4.4063 0,-3.9257 3.149,-5.8437 6,-5.8437 2.852,0 6,2.0586 6,5.9727 0,5.1914 -5.375,8.0312 -10.551,8.0312 -6.968,0 -10.949,-5.0547 -13.238,-11.4258" /><path
         id="path24"
         style="fill:#000000;fill-opacity:1;fill-rule:nonzero;stroke:none"
         d="m 310.113,58 0,-4 6.887,0 0,-40 -6.887,0 0,-4 35.078,0 c 12.485,0 19.25,6.0859 19.25,13.082 0,5.2461 -4.324,10.7032 -15.132,12.0352 C 358,36.7227 362,41.2031 362,45.8203 362,52.6758 354.73,58 342.863,58 l -32.75,0 z M 327,36 l 0,18 14.551,0 C 348.309,54 351,49.8984 351,45.5039 351,39.6719 346.375,36 339.617,36 L 327,36 Z m 0,-22 0,19 15.738,0 c 9.91,0 10.825,-7.4492 10.825,-9.9102 C 353.563,18.5117 350.188,14 342.035,14" /><path
         id="path26"
         style="fill:#000000;fill-opacity:1;fill-rule:nonzero;stroke:none"
         d="m 390,96.3906 c 0,1.8008 0,3.6094 -2,3.6094 -2,0 -2,-1.8086 -2,-3.6094 L 386,3.59766 C 386,1.80078 386,0 388,0 c 2,0 2,1.80078 2,3.59766" /><path
         id="path28"
         style="fill:#000000;fill-opacity:1;fill-rule:nonzero;stroke:none"
         d="m 437,79.6914 -2.352,0 C 434.441,78.1758 433.75,74.1055 432.852,73.4141 432.297,73 426.977,73 426.012,73 l -12.715,0 c 7.254,6.4258 9.672,8.3594 13.82,11.6055 C 432.23,88.6797 437,92.9609 437,99.5234 437,107.883 429.801,113 421.113,113 412.699,113 407,107.078 407,100.813 407,97.3398 409.84,97 410.5,97 c 1.582,0 3.5,1.1211 3.5,3.5 0,1.188 -0.516,3.5 -4.328,3.5 2.113,4.582 6.75,6 9.957,6 6.82,0 10.371,-5.348 10.371,-10.8906 0,-5.9571 -4.137,-10.6797 -6.27,-13.1446 L 407.664,69.6719 C 407,69.0547 407,68.918 407,67 l 27.961,0" /></g></g></svg>