<?xml version="1.0" encoding="UTF-8" standalone="no"?>
<!-- Created with Inkscape (http://www.inkscape.org/) -->

<svg
   xmlns:dc="http://purl.org/dc/elements/1.1/"
   xmlns:cc="http://creativecommons.org/ns#"
   xmlns:rdf="http://www.w3.org/1999/02/22-rdf-syntax-ns#"
   xmlns:svg="http://www.w3.org/2000/svg"
   xmlns="http://www.w3.org/2000/svg"
   xmlns:sodipodi="http://sodipodi.sourceforge.net/DTD/sodipodi-0.dtd"
   xmlns:inkscape="http://www.inkscape.org/namespaces/inkscape"
   id="svg2"
   version="1.1"
   inkscape:version="0.91 r13725"
   xml:space="preserve"
   width="516.75977"
   height="41.438232"
   viewBox="0 0 516.75977 41.438232"
   sodipodi:docname="s_12.svg"><metadata
     id="metadata8"><rdf:RDF><cc:Work
         rdf:about=""><dc:format>image/svg+xml</dc:format><dc:type
           rdf:resource="http://purl.org/dc/dcmitype/StillImage" /><dc:title></dc:title></cc:Work></rdf:RDF></metadata><defs
     id="defs6" /><sodipodi:namedview
     pagecolor="#ffffff"
     bordercolor="#666666"
     borderopacity="1"
     objecttolerance="10"
     gridtolerance="10"
     guidetolerance="10"
     inkscape:pageopacity="0"
     inkscape:pageshadow="2"
     inkscape:window-width="748"
     inkscape:window-height="480"
     id="namedview4"
     showgrid="false"
     fit-margin-left="10"
     fit-margin-top="0"
     fit-margin-right="0"
     fit-margin-bottom="0"
     inkscape:zoom="1.0833948"
     inkscape:cx="263.6748"
     inkscape:cy="21.28186"
     inkscape:window-x="10"
     inkscape:window-y="34"
     inkscape:window-maximized="0"
     inkscape:current-layer="g10" /><g
     id="g10"
     inkscape:groupmode="layer"
     inkscape:label="ink_ext_XXXXXX"
     transform="matrix(1.25,0,0,-1.25,94.299804,34.531372)"><g
       id="g12"
       transform="matrix(0.15,0,0,0.15,-67.632031,-5.5249023)"><path
         d="M 22.5039,157.191 C 23,158.293 23,158.492 23,158.992 23,160.09 22.1055,161 21.0078,161 c -0.8945,0 -1.5937,-0.508 -2.289,-2.309 l -17.43755,-45.894 0,-3.5 L 18.7188,63.3984 C 19.1172,62.3008 19.6133,61 21.0078,61 22.1055,61 23,61.8984 23,63 c 0,0.3008 0,0.5 -0.4961,1.5977 L 4.87109,110.996"
         style="fill:#000000;fill-opacity:1;fill-rule:nonzero;stroke:none"
         id="path14"
         inkscape:connector-curvature="0" /><path
         d="m 71.4961,152.602 c 0,0.199 0.2969,1.293 0.2969,1.394 0,0.098 0,1 -1.1914,1 -0.9922,0 -1.0899,-0.305 -1.4883,-1.996 L 63.3594,129.996 C 47.582,129.496 33,116.363 33,102.934 33,93.5508 39.9453,85.75 52.0508,85.0586 51.2539,81.9961 50.5586,78.8359 49.7656,75.7773 48.5781,71.1367 47.582,67.3828 47.582,67.0859 47.582,66.0977 48.2773,66 48.7734,66 c 0.4961,0 0.6954,0.0977 0.9922,0.3945 0.1992,0.1993 0.793,2.5664 1.0938,3.9493 l 3.7695,14.7148 C 70.6016,85.5508 85,98.8828 85,112.117 c 0,7.801 -5.2695,16.887 -19.0625,17.879 l 5.5586,22.606 z M 52.3516,87.0039 C 46.2813,87.3008 39,90.793 39,100.766 c 0,11.964 8.6992,25.925 23.7695,27.23 L 52.3516,87.0039 Z m 13.1757,40.9921 c 7.6954,-0.406 13.4688,-4.992 13.4688,-13.769 0,-11.766 -8.7109,-26.0278 -23.8984,-27.2231"
         style="fill:#000000;fill-opacity:1;fill-rule:nonzero;stroke:none"
         id="path16"
         inkscape:connector-curvature="0" /><path
         d="m 111,115.078 c 0,1.848 -0.145,1.922 -2.176,1.922 -4.644,-3.937 -11.2459,-4 -14.2224,-4 l 0,-3 c 1.7226,0 6.4534,0 10.3984,2.285 l 0,-35.117 C 105,74.8945 105,74 97.8203,74 l -2.7305,0 0,-3 24.8942,0 0,3 -2.472,0 C 111,74 111,74.8906 111,77.1484"
         style="fill:#000000;fill-opacity:1;fill-rule:nonzero;stroke:none"
         id="path18"
         inkscape:connector-curvature="0" /><path
         d="m 149,157.391 c 0,1.8 0,3.609 -2,3.609 -2,0 -2,-1.809 -2,-3.609 l 0,-92.7933 C 145,62.8008 145,61 147,61 c 2,0 2,1.8008 2,3.5977"
         style="fill:#000000;fill-opacity:1;fill-rule:nonzero;stroke:none"
         id="path20"
         inkscape:connector-curvature="0" /><path
         d="m 203.496,152.602 c 0,0.199 0.297,1.293 0.297,1.394 0,0.098 0,1 -1.191,1 -0.993,0 -1.09,-0.305 -1.489,-1.996 l -5.754,-23.004 C 179.582,129.496 165,116.363 165,102.934 c 0,-9.3832 6.945,-17.184 19.051,-17.8754 -0.797,-3.0625 -1.492,-6.2227 -2.285,-9.2813 -1.188,-4.6406 -2.184,-8.3945 -2.184,-8.6914 0,-0.9882 0.695,-1.0859 1.191,-1.0859 0.497,0 0.696,0.0977 0.993,0.3945 0.199,0.1993 0.793,2.5664 1.093,3.9493 l 3.77,14.7148 C 202.602,85.5508 217,98.8828 217,112.117 c 0,7.801 -5.27,16.887 -19.062,17.879 l 5.558,22.606 z M 184.352,87.0039 C 178.281,87.3008 171,90.793 171,100.766 c 0,11.964 8.699,25.925 23.77,27.23 L 184.352,87.0039 Z m 13.175,40.9921 c 7.696,-0.406 13.469,-4.992 13.469,-13.769 0,-11.766 -8.711,-26.0278 -23.898,-27.2231"
         style="fill:#000000;fill-opacity:1;fill-rule:nonzero;stroke:none"
         id="path22"
         inkscape:connector-curvature="0" /><path
         d="m 254,83.6914 -2.352,0 C 251.441,82.1758 250.75,78.1055 249.852,77.4141 249.297,77 243.977,77 243.012,77 l -12.715,0 c 7.254,6.4258 9.672,8.3594 13.82,11.6055 C 249.23,92.6797 254,96.9609 254,103.523 254,111.883 246.801,117 238.113,117 229.699,117 224,111.078 224,104.813 c 0,-3.473 2.84,-3.813 3.5,-3.813 1.582,0 3.5,1.121 3.5,3.5 0,1.188 -0.516,3.5 -4.328,3.5 2.113,4.582 6.75,6 9.957,6 6.82,0 10.371,-5.348 10.371,-10.891 0,-5.9567 -4.137,-10.6793 -6.27,-13.1442 L 224.664,73.6719 C 224,73.0547 224,72.918 224,71 l 27.961,0"
         style="fill:#000000;fill-opacity:1;fill-rule:nonzero;stroke:none"
         id="path24"
         inkscape:connector-curvature="0" /><path
         d="m 291.719,109.297 0,3.398 -17.434,45.996 c -0.597,1.7 -1.195,2.309 -2.293,2.309 -1.094,0 -1.992,-0.91 -1.992,-2.008 0,-0.301 0,-0.5 0.5,-1.601 L 288.133,110.996 270.5,64.8008 C 270,63.6992 270,63.5 270,63 c 0,-1.1016 0.898,-2 1.992,-2 1.297,0 1.696,1 2.094,2"
         style="fill:#000000;fill-opacity:1;fill-rule:nonzero;stroke:none"
         id="path26"
         inkscape:connector-curvature="0" /><path
         d="m 399.621,119 c 1.488,0 3.379,0 3.379,2 0,2 -1.891,2 -3.277,2 l -59.457,0 c -1.391,0 -3.278,0 -3.278,-2 0,-2 1.887,-2 3.375,-2 l 59.258,0 z m 0.102,-20 c 1.386,0 3.277,0 3.277,2 0,2 -1.891,2 -3.379,2 l -59.258,0 c -1.488,0 -3.375,0 -3.375,-2 0,-2 1.887,-2 3.278,-2"
         style="fill:#000000;fill-opacity:1;fill-rule:nonzero;stroke:none"
         id="path28"
         inkscape:connector-curvature="0" /><path
         d="m 468.504,157.191 c 0.496,1.102 0.496,1.301 0.496,1.801 0,1.098 -0.895,2.008 -1.992,2.008 -0.895,0 -1.594,-0.508 -2.289,-2.309 l -17.438,-45.894 0,-3.5 17.438,-45.8986 C 465.117,62.3008 465.613,61 467.008,61 c 1.097,0 1.992,0.8984 1.992,2 0,0.3008 0,0.5 -0.496,1.5977 l -17.633,46.3983"
         style="fill:#000000;fill-opacity:1;fill-rule:nonzero;stroke:none"
         id="path30"
         inkscape:connector-curvature="0" /><path
         d="m 523.004,109.441 c 0,15.661 -9.391,20.555 -16.859,20.555 -13.829,0 -27.149,-14.207 -27.149,-28.211 0,-9.2381 5.988,-16.7889 16.164,-16.7889 6.285,0 13.469,2.2656 21.051,8.2773 1.297,-5.2226 4.59,-8.2773 9.082,-8.2773 5.285,0 8.387,5.418 8.387,6.9922 0,0.6875 -0.571,0.9844 -1.145,0.9844 -0.668,0 -0.953,-0.3047 -1.238,-1.0118 -1.715,-4.9648 -5.149,-4.9648 -5.34,-4.9648 -2.953,0 -2.953,7.7812 -2.953,10.1758 0,2.0937 0,2.2929 0.957,3.4921 9,11.77 11.016,23.34 11.016,23.441 0,0.2 -0.098,0.997 -1.153,0.997 -0.957,0 -0.957,-0.301 -1.437,-2.094 -1.723,-6.285 -4.883,-13.867 -9.383,-19.75 l 0,6.183 z m -7,-13.6246 c -8.953,-7.7148 -16.785,-8.8203 -20.852,-8.8203 -6.101,0 -9.152,4.5117 -9.152,10.9258 0,4.9141 2.66,15.7381 5.938,20.8511 4.812,7.317 10.343,9.223 13.925,9.223 10.141,0 10.141,-13.133 10.141,-20.953 0,-3.707 0,-9.5196 0,-11.2266"
         style="fill:#000000;fill-opacity:1;fill-rule:nonzero;stroke:none"
         id="path32"
         inkscape:connector-curvature="0" /><path
         d="m 562,115.078 c 0,1.848 -0.145,1.922 -2.176,1.922 -4.644,-3.937 -11.246,-4 -14.222,-4 l 0,-3 c 1.722,0 6.453,0 10.398,2.285 l 0,-35.117 C 556,74.8945 556,74 548.82,74 l -2.73,0 0,-3 24.894,0 0,3 -2.472,0 C 562,74 562,74.8906 562,77.1484"
         style="fill:#000000;fill-opacity:1;fill-rule:nonzero;stroke:none"
         id="path34"
         inkscape:connector-curvature="0" /><path
         d="m 603,86 c 0,6.9141 -2.445,11 -6.254,11 -3.223,0 -5.18,-2.5937 -5.18,-5.5 0,-2.8008 1.989,-5.5 5.262,-5.5 1.192,0 2.485,0.3984 3.477,1.2969 0.297,0.1992 0.398,0.2969 0.496,0.2969 0.101,0 0.199,-0.1055 0.199,-1.5938 0,-7.2461 -3.473,-13.1211 -6.746,-16.3555 -1.094,-1.0742 -1.094,-1.2695 -1.094,-1.5664 0,-0.6836 0.488,-1.0742 0.977,-1.0742 1.07,0 8.863,7.5391 8.863,18.9961"
         style="fill:#000000;fill-opacity:1;fill-rule:nonzero;stroke:none"
         id="path36"
         inkscape:connector-curvature="0" /><path
         d="M 673.969,153.387 C 672.875,156 671.684,156 669.996,156 c -2.777,0 -3.176,-0.816 -3.867,-2.613 L 641.516,93.2969 C 640.922,91.8008 640.625,91 633.082,91 l -2.086,0 0,-5 24.711,0 0,5 c -0.199,0 -8.832,0 -8.832,1.2461 0,0.0977 0.297,1.0547 0.398,1.1523 l 4.961,11.5976 26.594,0 5.957,-13.996 -9.43,0 0,-5 33.653,0 0,5 -9.637,0 -25.402,62.387 z m -8.215,-15.782 11.359,-27.609 -22.715,0"
         style="fill:#000000;fill-opacity:1;fill-rule:nonzero;stroke:none"
         id="path38"
         inkscape:connector-curvature="0" /><path
         d="m 733,86 c 0,6.9141 -2.445,11 -6.254,11 -3.223,0 -5.18,-2.5937 -5.18,-5.5 0,-2.8008 1.989,-5.5 5.262,-5.5 1.192,0 2.485,0.3984 3.477,1.2969 0.297,0.1992 0.398,0.2969 0.496,0.2969 0.101,0 0.199,-0.1055 0.199,-1.5938 0,-7.2461 -3.473,-13.1211 -6.746,-16.3555 -1.094,-1.0742 -1.094,-1.2695 -1.094,-1.5664 0,-0.6836 0.488,-1.0742 0.977,-1.0742 1.07,0 8.863,7.5391 8.863,18.9961"
         style="fill:#000000;fill-opacity:1;fill-rule:nonzero;stroke:none"
         id="path40"
         inkscape:connector-curvature="0" /><path
         d="m 783.703,153.898 c 0,0.098 0,1.098 -1.293,1.098 -2.293,0 -9.566,-0.762 -12.156,-0.953 -0.797,-0.094 -1.895,-0.188 -1.895,-2 0,-1.047 0.996,-1.047 2.493,-1.047 4.781,0 4.882,-0.906 4.882,-1.703 l -0.3,-1.992 -12.551,-49.7619 c -0.301,-1.0977 -0.5,-1.793 -0.5,-3.3868 0,-5.6718 4.383,-9.1562 9.066,-9.1562 3.289,0 5.778,1.9805 7.473,5.5469 1.793,3.7656 2.988,9.508 2.988,9.707 0,0.992 -0.883,0.992 -1.176,0.992 -0.976,0 -1.074,-0.402 -1.367,-1.8045 -1.664,-6.5234 -3.519,-12.4414 -7.429,-12.4414 -2.934,0 -2.934,3.1875 -2.934,4.582 0,2.3867 0.098,2.8867 0.586,4.7774"
         style="fill:#000000;fill-opacity:1;fill-rule:nonzero;stroke:none"
         id="path42"
         inkscape:connector-curvature="0" /><path
         d="m 812,115.078 c 0,1.848 -0.145,1.922 -2.176,1.922 -4.644,-3.937 -11.246,-4 -14.222,-4 l 0,-3 c 1.722,0 6.453,0 10.398,2.285 l 0,-35.117 C 806,74.8945 806,74 798.82,74 l -2.73,0 0,-3 24.894,0 0,3 -2.472,0 C 812,74 812,74.8906 812,77.1484"
         style="fill:#000000;fill-opacity:1;fill-rule:nonzero;stroke:none"
         id="path44"
         inkscape:connector-curvature="0" /><path
         d="m 852,86 c 0,6.9141 -2.445,11 -6.254,11 -3.223,0 -5.18,-2.5937 -5.18,-5.5 0,-2.8008 1.989,-5.5 5.262,-5.5 1.192,0 2.485,0.3984 3.477,1.2969 0.297,0.1992 0.398,0.2969 0.496,0.2969 0.101,0 0.199,-0.1055 0.199,-1.5938 0,-7.2461 -3.473,-13.1211 -6.746,-16.3555 -1.094,-1.0742 -1.094,-1.2695 -1.094,-1.5664 0,-0.6836 0.488,-1.0742 0.977,-1.0742 1.07,0 8.863,7.5391 8.863,18.9961"
         style="fill:#000000;fill-opacity:1;fill-rule:nonzero;stroke:none"
         id="path46"
         inkscape:connector-curvature="0" /><path
         d="m 885.789,91.9805 c -0.301,-1.4961 -0.902,-3.793 -0.902,-4.2891 0,-1.7969 1.402,-2.6953 2.902,-2.6953 1.199,0 3,0.8008 3.699,2.793 0.098,0.1992 1.301,4.8906 1.899,7.3828 l 2.199,8.9761 c 0.602,2.196 1.203,4.391 1.703,6.684 0.399,1.695 1.199,4.59 1.297,4.988 1.5,3.09 6.801,12.176 16.301,12.176 4.5,0 5.398,-3.699 5.398,-6.988 0,-2.496 -0.699,-5.289 -1.5,-8.281 l -2.801,-11.571 -2,-7.5818 c -0.398,-1.9922 -1.296,-5.3867 -1.296,-5.8828 0,-1.7969 1.398,-2.6953 2.898,-2.6953 3.098,0 3.699,2.4961 4.5,5.6875 1.398,5.5859 5.098,20.1484 6,24.0394 0.297,1.297 5.598,13.273 16.496,13.273 4.301,0 5.414,-3.398 5.414,-6.988 0,-5.688 -4.476,-17.059 -6.609,-22.3439 -0.957,-2.3946 -1.383,-3.4922 -1.383,-5.4883 0,-4.6875 3.527,-8.1797 8.269,-8.1797 9.477,0 13.211,14.4609 13.211,15.2539 0,0.992 -0.914,0.992 -1.218,0.992 -1.012,0 -1.012,-0.301 -1.516,-1.8045 -1.52,-5.3164 -4.754,-12.4414 -10.32,-12.4414 -1.719,0 -2.426,1 -2.426,3.293 0,2.4922 0.91,4.8867 1.82,7.082 1.922,5.1879 6.176,16.2579 6.176,21.9449 0,6.485 -3.996,10.68 -11.453,10.68 -7.461,0 -12.531,-4.367 -16.211,-9.625 -0.102,1.289 -0.398,4.664 -3.184,7.047 -2.488,2.082 -5.668,2.578 -8.156,2.578 -8.949,0 -13.824,-6.348 -15.516,-8.629 -0.496,5.653 -4.671,8.629 -9.148,8.629 -4.574,0 -6.465,-3.879 -7.359,-5.668 -1.789,-3.476 -3.082,-9.34 -3.082,-9.637 0,-0.996 1,-0.996 1.199,-0.996 1,0 1.098,0.102 1.699,2.317 1.699,7.148 3.699,11.984 7.301,11.984 1.598,0 3.098,-0.805 3.098,-4.598 0,-2.093 -0.301,-3.191 -1.602,-8.375"
         style="fill:#000000;fill-opacity:1;fill-rule:nonzero;stroke:none"
         id="path48"
         inkscape:connector-curvature="0" /><path
         d="m 988,115.078 c 0,1.848 -0.145,1.922 -2.176,1.922 -4.644,-3.937 -11.246,-4 -14.222,-4 l 0,-3 c 1.722,0 6.453,0 10.398,2.285 l 0,-35.117 C 982,74.8945 982,74 974.82,74 l -2.73,0 0,-3 24.894,0 0,3 -2.472,0 C 988,74 988,74.8906 988,77.1484"
         style="fill:#000000;fill-opacity:1;fill-rule:nonzero;stroke:none"
         id="path50"
         inkscape:connector-curvature="0" /><path
         d="m 1029,86 c 0,6.9141 -2.45,11 -6.25,11 -3.23,0 -5.18,-2.5937 -5.18,-5.5 0,-2.8008 1.98,-5.5 5.26,-5.5 1.19,0 2.48,0.3984 3.47,1.2969 0.3,0.1992 0.4,0.2969 0.5,0.2969 0.1,0 0.2,-0.1055 0.2,-1.5938 0,-7.2461 -3.47,-13.1211 -6.75,-16.3555 -1.09,-1.0742 -1.09,-1.2695 -1.09,-1.5664 0,-0.6836 0.49,-1.0742 0.98,-1.0742 1.07,0 8.86,7.5391 8.86,18.9961"
         style="fill:#000000;fill-opacity:1;fill-rule:nonzero;stroke:none"
         id="path52"
         inkscape:connector-curvature="0" /><path
         d="m 1061.75,91.9805 c -0.3,-1.4961 -0.9,-3.793 -0.9,-4.2891 0,-1.7969 1.39,-2.6953 2.88,-2.6953 1.2,0 2.98,0.8008 3.68,2.793 0.09,0.1992 1.29,4.8906 1.88,7.3828 l 2.19,8.9761 c 0.59,2.196 1.19,4.391 1.68,6.684 0.4,1.695 1.2,4.59 1.3,4.988 1.49,3.09 6.75,12.176 16.18,12.176 4.47,0 5.36,-3.699 5.36,-6.988 0,-6.188 -4.57,-18.953 -6.07,-23.2424 -0.84,-2.2929 -0.93,-3.4922 -0.93,-4.5898 0,-4.6875 3.43,-8.1797 8.04,-8.1797 9.22,0 12.85,14.4609 12.85,15.2539 0,0.992 -0.88,0.992 -1.17,0.992 -0.97,0 -0.97,-0.301 -1.46,-1.8045 -1.95,-6.8242 -5.16,-12.4414 -9.93,-12.4414 -1.65,0 -2.33,1 -2.33,3.293 0,2.4922 0.8,4.8867 1.59,7.082 1.69,5.2889 5.41,16.2579 5.41,21.9449 0,6.684 -4.23,10.68 -11.33,10.68 -8.87,0 -13.69,-6.348 -15.37,-8.629 -0.49,5.555 -4.53,8.629 -9.07,8.629 -4.53,0 -6.4,-3.879 -7.39,-5.668 -1.57,-3.379 -2.95,-9.242 -2.95,-9.637 0,-0.996 0.99,-0.996 1.19,-0.996 0.99,0 1.09,0.102 1.69,2.317 1.69,7.148 3.67,11.984 7.25,11.984 1.98,0 3.07,-1.305 3.07,-4.598 0,-2.093 -0.29,-3.191 -1.59,-8.375"
         style="fill:#000000;fill-opacity:1;fill-rule:nonzero;stroke:none"
         id="path54"
         inkscape:connector-curvature="0" /><path
         d="m 1137,115.078 c 0,1.848 -0.14,1.922 -2.18,1.922 -4.64,-3.937 -11.24,-4 -14.22,-4 l 0,-3 c 1.72,0 6.45,0 10.4,2.285 l 0,-35.117 c 0,-2.2735 0,-3.168 -7.18,-3.168 l -2.73,0 0,-3 24.89,0 0,3 -2.47,0 c -6.51,0 -6.51,0.8906 -6.51,3.1484"
         style="fill:#000000;fill-opacity:1;fill-rule:nonzero;stroke:none"
         id="path56"
         inkscape:connector-curvature="0" /><path
         d="m 1173,157.391 c 0,1.8 0,3.609 -2,3.609 -2,0 -2,-1.809 -2,-3.609 l 0,-92.7933 c 0,-1.7969 0,-3.5977 2,-3.5977 2,0 2,1.8008 2,3.5977"
         style="fill:#000000;fill-opacity:1;fill-rule:nonzero;stroke:none"
         id="path58"
         inkscape:connector-curvature="0" /><path
         d="m 1233,109.441 c 0,15.661 -9.39,20.555 -16.86,20.555 -13.82,0 -27.14,-14.207 -27.14,-28.211 0,-9.2381 5.98,-16.7889 16.16,-16.7889 6.29,0 13.47,2.2656 21.05,8.2773 1.3,-5.2226 4.59,-8.2773 9.08,-8.2773 5.29,0 8.39,5.418 8.39,6.9922 0,0.6875 -0.57,0.9844 -1.14,0.9844 -0.67,0 -0.96,-0.3047 -1.24,-1.0118 -1.72,-4.9648 -5.15,-4.9648 -5.34,-4.9648 -2.96,0 -2.96,7.7812 -2.96,10.1758 0,2.0937 0,2.2929 0.96,3.4921 9,11.77 11.02,23.34 11.02,23.441 0,0.2 -0.1,0.997 -1.16,0.997 -0.95,0 -0.95,-0.301 -1.43,-2.094 -1.73,-6.285 -4.89,-13.867 -9.39,-19.75 l 0,6.183 z m -7,-13.6246 c -8.95,-7.7148 -16.78,-8.8203 -20.85,-8.8203 -6.1,0 -9.15,4.5117 -9.15,10.9258 0,4.9141 2.66,15.7381 5.94,20.8511 4.81,7.317 10.34,9.223 13.92,9.223 10.14,0 10.14,-13.133 10.14,-20.953 0,-3.707 0,-9.5196 0,-11.2266"
         style="fill:#000000;fill-opacity:1;fill-rule:nonzero;stroke:none"
         id="path60"
         inkscape:connector-curvature="0" /><path
         d="m 1284,83.6914 -2.35,0 c -0.21,-1.5156 -0.9,-5.5859 -1.8,-6.2773 C 1279.3,77 1273.98,77 1273.01,77 l -12.71,0 c 7.25,6.4258 9.67,8.3594 13.82,11.6055 5.11,4.0742 9.88,8.3554 9.88,14.9175 0,8.36 -7.2,13.477 -15.89,13.477 -8.41,0 -14.11,-5.922 -14.11,-12.187 0,-3.473 2.84,-3.813 3.5,-3.813 1.58,0 3.5,1.121 3.5,3.5 0,1.188 -0.52,3.5 -4.33,3.5 2.12,4.582 6.75,6 9.96,6 6.82,0 10.37,-5.348 10.37,-10.891 0,-5.9567 -4.14,-10.6793 -6.27,-13.1442 L 1254.66,73.6719 C 1254,73.0547 1254,72.918 1254,71 l 27.96,0"
         style="fill:#000000;fill-opacity:1;fill-rule:nonzero;stroke:none"
         id="path62"
         inkscape:connector-curvature="0" /><path
         d="m 1314,86 c 0,6.9141 -2.45,11 -6.25,11 -3.23,0 -5.18,-2.5937 -5.18,-5.5 0,-2.8008 1.98,-5.5 5.26,-5.5 1.19,0 2.48,0.3984 3.47,1.2969 0.3,0.1992 0.4,0.2969 0.5,0.2969 0.1,0 0.2,-0.1055 0.2,-1.5938 0,-7.2461 -3.47,-13.1211 -6.75,-16.3555 -1.09,-1.0742 -1.09,-1.2695 -1.09,-1.5664 0,-0.6836 0.49,-1.0742 0.98,-1.0742 1.07,0 8.86,7.5391 8.86,18.9961"
         style="fill:#000000;fill-opacity:1;fill-rule:nonzero;stroke:none"
         id="path64"
         inkscape:connector-curvature="0" /><path
         d="m 1367,124 0,25 18.14,0 c 10.06,0 11.86,-7.484 11.86,-11.84 0,-7.293 -4.79,-13.16 -14.45,-13.16 l -15.55,0 z m 26.59,-2.516 c 10.87,1.883 17.41,7.829 17.41,15.461 0,9.118 -8.69,17.055 -24.77,17.055 l -43.34,0 0,-5 11.11,0 0,-58 -11.11,0 0,-5 46.2,0 c 16.53,0 24.91,8.7227 24.91,18.434 0,9.515 -8.56,16.156 -20.41,17.05 z M 1385.51,91 1367,91 l 0,28.996 19.52,0 c 2.01,0 6.74,0 10.16,-4.273 3.32,-4.172 3.32,-9.731 3.32,-10.821 0,-1.191 0,-13.902 -14.49,-13.902"
         style="fill:#000000;fill-opacity:1;fill-rule:nonzero;stroke:none"
         id="path66"
         inkscape:connector-curvature="0" /><path
         d="m 1440,86 c 0,6.9141 -2.45,11 -6.25,11 -3.23,0 -5.18,-2.5937 -5.18,-5.5 0,-2.8008 1.98,-5.5 5.26,-5.5 1.19,0 2.48,0.3984 3.47,1.2969 0.3,0.1992 0.4,0.2969 0.5,0.2969 0.1,0 0.2,-0.1055 0.2,-1.5938 0,-7.2461 -3.47,-13.1211 -6.75,-16.3555 -1.09,-1.0742 -1.09,-1.2695 -1.09,-1.5664 0,-0.6836 0.49,-1.0742 0.98,-1.0742 1.07,0 8.86,7.5391 8.86,18.9961"
         style="fill:#000000;fill-opacity:1;fill-rule:nonzero;stroke:none"
         id="path68"
         inkscape:connector-curvature="0" /><path
         d="m 1490.7,153.898 c 0,0.098 0,1.098 -1.29,1.098 -2.29,0 -9.57,-0.762 -12.16,-0.953 -0.79,-0.094 -1.89,-0.188 -1.89,-2 0,-1.047 1,-1.047 2.49,-1.047 4.78,0 4.88,-0.906 4.88,-1.703 l -0.3,-1.992 -12.55,-49.7619 c -0.3,-1.0977 -0.5,-1.793 -0.5,-3.3868 0,-5.6718 4.39,-9.1562 9.07,-9.1562 3.29,0 5.78,1.9805 7.47,5.5469 1.79,3.7656 2.99,9.508 2.99,9.707 0,0.992 -0.88,0.992 -1.18,0.992 -0.97,0 -1.07,-0.402 -1.36,-1.8045 -1.67,-6.5234 -3.52,-12.4414 -7.43,-12.4414 -2.94,0 -2.94,3.1875 -2.94,4.582 0,2.3867 0.1,2.8867 0.59,4.7774"
         style="fill:#000000;fill-opacity:1;fill-rule:nonzero;stroke:none"
         id="path70"
         inkscape:connector-curvature="0" /><path
         d="m 1530,83.6914 -2.35,0 c -0.21,-1.5156 -0.9,-5.5859 -1.8,-6.2773 C 1525.3,77 1519.98,77 1519.01,77 l -12.71,0 c 7.25,6.4258 9.67,8.3594 13.82,11.6055 5.11,4.0742 9.88,8.3554 9.88,14.9175 0,8.36 -7.2,13.477 -15.89,13.477 -8.41,0 -14.11,-5.922 -14.11,-12.187 0,-3.473 2.84,-3.813 3.5,-3.813 1.58,0 3.5,1.121 3.5,3.5 0,1.188 -0.52,3.5 -4.33,3.5 2.12,4.582 6.75,6 9.96,6 6.82,0 10.37,-5.348 10.37,-10.891 0,-5.9567 -4.14,-10.6793 -6.27,-13.1442 L 1500.66,73.6719 C 1500,73.0547 1500,72.918 1500,71 l 27.96,0"
         style="fill:#000000;fill-opacity:1;fill-rule:nonzero;stroke:none"
         id="path72"
         inkscape:connector-curvature="0" /><path
         d="m 1558,86 c 0,6.9141 -2.45,11 -6.25,11 -3.23,0 -5.18,-2.5937 -5.18,-5.5 0,-2.8008 1.98,-5.5 5.26,-5.5 1.19,0 2.48,0.3984 3.47,1.2969 0.3,0.1992 0.4,0.2969 0.5,0.2969 0.1,0 0.2,-0.1055 0.2,-1.5938 0,-7.2461 -3.47,-13.1211 -6.75,-16.3555 -1.09,-1.0742 -1.09,-1.2695 -1.09,-1.5664 0,-0.6836 0.49,-1.0742 0.98,-1.0742 1.07,0 8.86,7.5391 8.86,18.9961"
         style="fill:#000000;fill-opacity:1;fill-rule:nonzero;stroke:none"
         id="path74"
         inkscape:connector-curvature="0" /><path
         d="m 1590.79,91.9805 c -0.3,-1.4961 -0.9,-3.793 -0.9,-4.2891 0,-1.7969 1.4,-2.6953 2.9,-2.6953 1.2,0 3,0.8008 3.7,2.793 0.1,0.1992 1.3,4.8906 1.9,7.3828 l 2.2,8.9761 c 0.6,2.196 1.2,4.391 1.7,6.684 0.4,1.695 1.2,4.59 1.3,4.988 1.5,3.09 6.8,12.176 16.3,12.176 4.5,0 5.4,-3.699 5.4,-6.988 0,-2.496 -0.7,-5.289 -1.5,-8.281 l -2.81,-11.571 -2,-7.5818 c -0.39,-1.9922 -1.29,-5.3867 -1.29,-5.8828 0,-1.7969 1.4,-2.6953 2.9,-2.6953 3.09,0 3.7,2.4961 4.5,5.6875 1.39,5.5859 5.09,20.1484 6,24.0394 0.29,1.297 5.59,13.273 16.49,13.273 4.3,0 5.42,-3.398 5.42,-6.988 0,-5.688 -4.48,-17.059 -6.61,-22.3439 -0.96,-2.3946 -1.39,-3.4922 -1.39,-5.4883 0,-4.6875 3.53,-8.1797 8.27,-8.1797 9.48,0 13.21,14.4609 13.21,15.2539 0,0.992 -0.91,0.992 -1.21,0.992 -1.02,0 -1.02,-0.301 -1.52,-1.8045 -1.52,-5.3164 -4.75,-12.4414 -10.32,-12.4414 -1.72,0 -2.43,1 -2.43,3.293 0,2.4922 0.91,4.8867 1.82,7.082 1.93,5.1879 6.18,16.2579 6.18,21.9449 0,6.485 -4,10.68 -11.45,10.68 -7.46,0 -12.53,-4.367 -16.21,-9.625 -0.11,1.289 -0.4,4.664 -3.19,7.047 -2.49,2.082 -5.67,2.578 -8.15,2.578 -8.95,0 -13.83,-6.348 -15.52,-8.629 -0.5,5.653 -4.67,8.629 -9.15,8.629 -4.57,0 -6.46,-3.879 -7.36,-5.668 -1.79,-3.476 -3.08,-9.34 -3.08,-9.637 0,-0.996 1,-0.996 1.2,-0.996 1,0 1.1,0.102 1.7,2.317 1.7,7.148 3.7,11.984 7.3,11.984 1.6,0 3.1,-0.805 3.1,-4.598 0,-2.093 -0.3,-3.191 -1.6,-8.375"
         style="fill:#000000;fill-opacity:1;fill-rule:nonzero;stroke:none"
         id="path76"
         inkscape:connector-curvature="0" /><path
         d="m 1705,83.6914 -2.35,0 c -0.21,-1.5156 -0.9,-5.5859 -1.8,-6.2773 C 1700.3,77 1694.98,77 1694.01,77 l -12.71,0 c 7.25,6.4258 9.67,8.3594 13.82,11.6055 5.11,4.0742 9.88,8.3554 9.88,14.9175 0,8.36 -7.2,13.477 -15.89,13.477 -8.41,0 -14.11,-5.922 -14.11,-12.187 0,-3.473 2.84,-3.813 3.5,-3.813 1.58,0 3.5,1.121 3.5,3.5 0,1.188 -0.52,3.5 -4.33,3.5 2.12,4.582 6.75,6 9.96,6 6.82,0 10.37,-5.348 10.37,-10.891 0,-5.9567 -4.14,-10.6793 -6.27,-13.1442 L 1675.66,73.6719 C 1675,73.0547 1675,72.918 1675,71 l 27.96,0"
         style="fill:#000000;fill-opacity:1;fill-rule:nonzero;stroke:none"
         id="path78"
         inkscape:connector-curvature="0" /><path
         d="m 1734,86 c 0,6.9141 -2.45,11 -6.25,11 -3.23,0 -5.18,-2.5937 -5.18,-5.5 0,-2.8008 1.98,-5.5 5.26,-5.5 1.19,0 2.48,0.3984 3.47,1.2969 0.3,0.1992 0.4,0.2969 0.5,0.2969 0.1,0 0.2,-0.1055 0.2,-1.5938 0,-7.2461 -3.47,-13.1211 -6.75,-16.3555 -1.09,-1.0742 -1.09,-1.2695 -1.09,-1.5664 0,-0.6836 0.49,-1.0742 0.98,-1.0742 1.07,0 8.86,7.5391 8.86,18.9961"
         style="fill:#000000;fill-opacity:1;fill-rule:nonzero;stroke:none"
         id="path80"
         inkscape:connector-curvature="0" /><path
         d="m 1767.75,91.9805 c -0.3,-1.4961 -0.9,-3.793 -0.9,-4.2891 0,-1.7969 1.39,-2.6953 2.88,-2.6953 1.2,0 2.98,0.8008 3.68,2.793 0.09,0.1992 1.29,4.8906 1.88,7.3828 l 2.19,8.9761 c 0.59,2.196 1.19,4.391 1.68,6.684 0.4,1.695 1.2,4.59 1.3,4.988 1.49,3.09 6.75,12.176 16.18,12.176 4.47,0 5.36,-3.699 5.36,-6.988 0,-6.188 -4.57,-18.953 -6.07,-23.2424 -0.84,-2.2929 -0.93,-3.4922 -0.93,-4.5898 0,-4.6875 3.43,-8.1797 8.04,-8.1797 9.22,0 12.85,14.4609 12.85,15.2539 0,0.992 -0.88,0.992 -1.17,0.992 -0.97,0 -0.97,-0.301 -1.46,-1.8045 -1.95,-6.8242 -5.16,-12.4414 -9.93,-12.4414 -1.65,0 -2.33,1 -2.33,3.293 0,2.4922 0.8,4.8867 1.59,7.082 1.69,5.2889 5.41,16.2579 5.41,21.9449 0,6.684 -4.23,10.68 -11.33,10.68 -8.87,0 -13.69,-6.348 -15.37,-8.629 -0.49,5.555 -4.53,8.629 -9.07,8.629 -4.53,0 -6.4,-3.879 -7.39,-5.668 -1.57,-3.379 -2.95,-9.242 -2.95,-9.637 0,-0.996 0.99,-0.996 1.19,-0.996 0.99,0 1.09,0.102 1.69,2.317 1.69,7.148 3.67,11.984 7.25,11.984 1.98,0 3.07,-1.305 3.07,-4.598 0,-2.093 -0.29,-3.191 -1.59,-8.375"
         style="fill:#000000;fill-opacity:1;fill-rule:nonzero;stroke:none"
         id="path82"
         inkscape:connector-curvature="0" /><path
         d="m 1854,83.6914 -2.35,0 c -0.21,-1.5156 -0.9,-5.5859 -1.8,-6.2773 C 1849.3,77 1843.98,77 1843.01,77 l -12.71,0 c 7.25,6.4258 9.67,8.3594 13.82,11.6055 5.11,4.0742 9.88,8.3554 9.88,14.9175 0,8.36 -7.2,13.477 -15.89,13.477 -8.41,0 -14.11,-5.922 -14.11,-12.187 0,-3.473 2.84,-3.813 3.5,-3.813 1.58,0 3.5,1.121 3.5,3.5 0,1.188 -0.52,3.5 -4.33,3.5 2.12,4.582 6.75,6 9.96,6 6.82,0 10.37,-5.348 10.37,-10.891 0,-5.9567 -4.14,-10.6793 -6.27,-13.1442 L 1824.66,73.6719 C 1824,73.0547 1824,72.918 1824,71 l 27.96,0"
         style="fill:#000000;fill-opacity:1;fill-rule:nonzero;stroke:none"
         id="path84"
         inkscape:connector-curvature="0" /><path
         d="m 1889.72,109.297 0,3.398 -17.43,45.996 c -0.6,1.7 -1.2,2.309 -2.3,2.309 -1.09,0 -1.99,-0.91 -1.99,-2.008 0,-0.301 0,-0.5 0.5,-1.601 l 17.63,-46.395 -17.63,-46.1952 C 1868,63.6992 1868,63.5 1868,63 c 0,-1.1016 0.9,-2 1.99,-2 1.3,0 1.7,1 2.1,2"
         style="fill:#000000;fill-opacity:1;fill-rule:nonzero;stroke:none"
         id="path86"
         inkscape:connector-curvature="0" /><path
         d="m 1998.62,119 c 1.49,0 3.38,0 3.38,2 0,2 -1.89,2 -3.28,2 l -59.45,0 c -1.39,0 -3.28,0 -3.28,-2 0,-2 1.89,-2 3.37,-2 l 59.26,0 z m 0.1,-20 c 1.39,0 3.28,0 3.28,2 0,2 -1.89,2 -3.38,2 l -59.26,0 c -1.48,0 -3.37,0 -3.37,-2 0,-2 1.89,-2 3.28,-2"
         style="fill:#000000;fill-opacity:1;fill-rule:nonzero;stroke:none"
         id="path88"
         inkscape:connector-curvature="0" /><path
         d="m 2045.36,4.28125 c 3.03,0.19531 4.64,2.37891 4.64,4.85938 0,3.27347 -2.58,4.85937 -4.95,4.85937 -2.48,0 -5.05,-1.4687 -5.05,-4.89453 0,-4.99609 5.01,-9.10937625 11.13,-9.10937625 15.25,0 20.97,23.29300625 28.09,52.15620625 7.72,31.4493 14.24,63.1997 19.66,95.1487 3.71,21.199 7.42,41.105 10.83,53.945 1.2,4.875 4.61,17.754 8.53,17.754 3.11,0 5.62,-1.887 6.03,-2.281 -3.48,-0.199 -5.27,-2.379 -5.27,-4.86 0,-3.269 2.58,-4.855 4.95,-4.855 2.48,0 5.05,1.465 5.05,4.891 0,5.285 -5.39,9.105 -10.87,9.105 -7.58,0 -13.17,-10.887 -18.65,-31.191 -0.3,-1.094 -13.85,-51.059 -24.82,-116.1488 -2.59,-15.2305 -5.48,-31.8516 -8.77,-45.6836 -1.79,-7.2657 -6.37,-25.98051 -14.45,-25.98051 -3.59,0 -5.98,2.28516 -6.08,2.28516"
         style="fill:#000000;fill-opacity:1;fill-rule:nonzero;stroke:none"
         id="path90"
         inkscape:connector-curvature="0" /><path
         d="m 2194.5,152.602 c 0,0.199 0.29,1.293 0.29,1.394 0,0.098 0,1 -1.19,1 -0.99,0 -1.09,-0.305 -1.49,-1.996 l -5.75,-23.004 c -15.78,-0.5 -30.36,-13.633 -30.36,-27.062 0,-9.3832 6.95,-17.184 19.05,-17.8754 -0.8,-3.0625 -1.49,-6.2227 -2.28,-9.2813 -1.19,-4.6406 -2.19,-8.3945 -2.19,-8.6914 0,-0.9882 0.7,-1.0859 1.19,-1.0859 0.5,0 0.7,0.0977 1,0.3945 0.19,0.1993 0.79,2.5664 1.09,3.9493 l 3.77,14.7148 c 15.97,0.4922 30.37,13.8242 30.37,27.0584 0,7.801 -5.27,16.887 -19.06,17.879 l 5.56,22.606 z m -19.15,-65.5981 c -6.07,0.2969 -13.35,3.7891 -13.35,13.7621 0,11.964 8.7,25.925 23.77,27.23 l -10.42,-40.9921 z m 13.18,40.9921 c 7.69,-0.406 13.47,-4.992 13.47,-13.769 0,-11.766 -8.71,-26.0278 -23.9,-27.2231"
         style="fill:#000000;fill-opacity:1;fill-rule:nonzero;stroke:none"
         id="path92"
         inkscape:connector-curvature="0" /><path
         d="m 2232,142.965 c 5.97,2.504 8.66,3.48 10.48,4.316 1.38,0.555 2.04,0.836 2.04,2.157 0,1.183 -0.91,2.226 -2.16,2.226 -0.49,0 -0.63,0 -1.47,-0.625 l -9.48,-6.332 0.59,10.301 c 0.59,1.25 0.45,2.992 -1.74,2.992 -0.87,0 -2.26,-0.559 -2.26,-2.09 0,-0.625 0.33,-2.715 0.41,-3.41 0.17,-1.184 0.74,-6.195 0.91,-7.793 l -9.42,6.332 c -0.69,0.418 -0.9,0.625 -1.53,0.625 -1.26,0 -2.16,-1.043 -2.16,-2.226 0,-1.391 0.82,-1.739 1.43,-2.02 l 10.36,-4.383 c -5.62,-2.508 -8.16,-3.48 -9.87,-4.316 -1.31,-0.555 -1.92,-0.836 -1.92,-2.156 0,-1.184 0.9,-2.227 2.16,-2.227 0.49,0 0.63,0 1.46,0.625 l 9.49,6.332 -1.32,-11.203 c 0,-1.531 1.23,-2.09 2,-2.09 0.77,0 2,0.559 2,2.09 0,0.625 -0.15,2.715 -0.18,3.41 -0.08,1.184 -0.34,6.195 -0.41,7.793 l 8.37,-5.566 c 1.81,-1.391 1.95,-1.391 2.58,-1.391 1.25,0 2.16,1.043 2.16,2.227 0,1.39 -0.88,1.738 -1.53,2.019"
         style="fill:#000000;fill-opacity:1;fill-rule:nonzero;stroke:none"
         id="path94"
         inkscape:connector-curvature="0" /><path
         d="m 2234,104.078 c 0,1.848 -0.14,1.922 -2.18,1.922 -4.64,-3.937 -11.24,-4 -14.22,-4 l 0,-3 c 1.72,0 6.45,0 10.4,2.285 l 0,-35.117 c 0,-2.2735 0,-3.168 -7.18,-3.168 l -2.73,0 0,-3 24.89,0 0,3 -2.47,0 c -6.51,0 -6.51,0.8906 -6.51,3.1484"
         style="fill:#000000;fill-opacity:1;fill-rule:nonzero;stroke:none"
         id="path96"
         inkscape:connector-curvature="0" /><path
         d="m 2289.98,62 c 0,0.3008 0,0.5 -1.66,2.1992 -12.2,12.5977 -15.32,31.4961 -15.32,46.7968 0,17.399 3.71,34.797 15.71,47.297 1.27,1.199 1.27,1.398 1.27,1.699 0,0.699 -0.41,1.008 -1,1.008 -0.99,0 -9.9,-6.809 -15.74,-19.508 -5.05,-11 -6.24,-22.097 -6.24,-30.496 0,-7.801 1.09,-19.8983 6.54,-31.1991 C 2279.48,67.5 2287.99,61 2288.98,61 c 0.59,0 1,0.3008 1,1"
         style="fill:#000000;fill-opacity:1;fill-rule:nonzero;stroke:none"
         id="path98"
         inkscape:connector-curvature="0" /><path
         d="m 2315.21,119.574 0,11.426 -16.52,-0.727 0,-4.273 c 5.67,0 6.31,0 6.31,-3.93 l 0,-31.07 -6.31,0 0,-5 26.3,0 0,5 -8.99,0 0,17.281 c 0,6.914 2.55,18.965 12.77,18.965 -0.09,-0.098 -1.77,-1.629 -1.77,-4.406 0,-3.926 3.14,-5.844 6,-5.844 2.85,0 6,2.059 6,5.973 0,5.191 -5.38,8.031 -10.55,8.031 -6.97,0 -10.95,-5.055 -13.24,-11.426"
         style="fill:#000000;fill-opacity:1;fill-rule:nonzero;stroke:none"
         id="path100"
         inkscape:connector-curvature="0" /><path
         d="m 2371,110.996 c 0,7.797 -1.11,19.899 -6.63,31.195 -6.03,12.301 -14.68,18.809 -15.69,18.809 -0.6,0 -1,-0.41 -1,-1.008 0,-0.301 0,-0.5 1.89,-2.301 9.76,-9.898 15.43,-25.796 15.43,-46.695 0,-17.0976 -3.68,-34.6991 -16.03,-47.2968 -1.29,-1.1992 -1.29,-1.3984 -1.29,-1.6992 0,-0.6016 0.4,-1 1,-1 1.01,0 10.06,6.8008 15.99,19.4961 5.12,11 6.33,22.1019 6.33,30.4999"
         style="fill:#000000;fill-opacity:1;fill-rule:nonzero;stroke:none"
         id="path102"
         inkscape:connector-curvature="0" /><path
         d="m 2423.5,152.602 c 0,0.199 0.29,1.293 0.29,1.394 0,0.098 0,1 -1.19,1 -0.99,0 -1.09,-0.305 -1.49,-1.996 l -5.75,-23.004 c -15.78,-0.5 -30.36,-13.633 -30.36,-27.062 0,-9.3832 6.95,-17.184 19.05,-17.8754 -0.8,-3.0625 -1.49,-6.2227 -2.28,-9.2813 -1.19,-4.6406 -2.19,-8.3945 -2.19,-8.6914 0,-0.9882 0.7,-1.0859 1.19,-1.0859 0.5,0 0.7,0.0977 1,0.3945 0.19,0.1993 0.79,2.5664 1.09,3.9493 l 3.77,14.7148 c 15.97,0.4922 30.37,13.8242 30.37,27.0584 0,7.801 -5.27,16.887 -19.06,17.879 l 5.56,22.606 z m -19.15,-65.5981 c -6.07,0.2969 -13.35,3.7891 -13.35,13.7621 0,11.964 8.7,25.925 23.77,27.23 l -10.42,-40.9921 z m 13.18,40.9921 c 7.69,-0.406 13.47,-4.992 13.47,-13.769 0,-11.766 -8.71,-26.0278 -23.9,-27.2231"
         style="fill:#000000;fill-opacity:1;fill-rule:nonzero;stroke:none"
         id="path104"
         inkscape:connector-curvature="0" /><path
         d="m 2474,83.6914 -2.35,0 c -0.21,-1.5156 -0.9,-5.5859 -1.8,-6.2773 C 2469.3,77 2463.98,77 2463.01,77 l -12.71,0 c 7.25,6.4258 9.67,8.3594 13.82,11.6055 5.11,4.0742 9.88,8.3554 9.88,14.9175 0,8.36 -7.2,13.477 -15.89,13.477 -8.41,0 -14.11,-5.922 -14.11,-12.187 0,-3.473 2.84,-3.813 3.5,-3.813 1.58,0 3.5,1.121 3.5,3.5 0,1.188 -0.52,3.5 -4.33,3.5 2.12,4.582 6.75,6 9.96,6 6.82,0 10.37,-5.348 10.37,-10.891 0,-5.9567 -4.14,-10.6793 -6.27,-13.1442 L 2444.66,73.6719 C 2444,73.0547 2444,72.918 2444,71 l 27.96,0"
         style="fill:#000000;fill-opacity:1;fill-rule:nonzero;stroke:none"
         id="path106"
         inkscape:connector-curvature="0" /><path
         d="m 2517.98,62 c 0,0.3008 0,0.5 -1.66,2.1992 -12.2,12.5977 -15.32,31.4961 -15.32,46.7968 0,17.399 3.71,34.797 15.71,47.297 1.27,1.199 1.27,1.398 1.27,1.699 0,0.699 -0.41,1.008 -1,1.008 -0.99,0 -9.9,-6.809 -15.74,-19.508 -5.05,-11 -6.24,-22.097 -6.24,-30.496 0,-7.801 1.09,-19.8983 6.54,-31.1991 C 2507.48,67.5 2515.99,61 2516.98,61 c 0.59,0 1,0.3008 1,1"
         style="fill:#000000;fill-opacity:1;fill-rule:nonzero;stroke:none"
         id="path108"
         inkscape:connector-curvature="0" /><path
         d="m 2543.21,119.574 0,11.426 -16.52,-0.727 0,-4.273 c 5.67,0 6.31,0 6.31,-3.93 l 0,-31.07 -6.31,0 0,-5 26.3,0 0,5 -8.99,0 0,17.281 c 0,6.914 2.55,18.965 12.77,18.965 -0.09,-0.098 -1.77,-1.629 -1.77,-4.406 0,-3.926 3.14,-5.844 6,-5.844 2.85,0 6,2.059 6,5.973 0,5.191 -5.38,8.031 -10.55,8.031 -6.97,0 -10.95,-5.055 -13.24,-11.426"
         style="fill:#000000;fill-opacity:1;fill-rule:nonzero;stroke:none"
         id="path110"
         inkscape:connector-curvature="0" /><path
         d="m 2599,110.996 c 0,7.797 -1.11,19.899 -6.63,31.195 -6.03,12.301 -14.68,18.809 -15.69,18.809 -0.6,0 -1,-0.41 -1,-1.008 0,-0.301 0,-0.5 1.89,-2.301 9.76,-9.898 15.43,-25.796 15.43,-46.695 0,-17.0976 -3.68,-34.6991 -16.03,-47.2968 -1.29,-1.1992 -1.29,-1.3984 -1.29,-1.6992 0,-0.6016 0.4,-1 1,-1 1.01,0 10.06,6.8008 15.99,19.4961 5.12,11 6.33,22.1019 6.33,30.4999"
         style="fill:#000000;fill-opacity:1;fill-rule:nonzero;stroke:none"
         id="path112"
         inkscape:connector-curvature="0" /><path
         d="m 2659.41,153.898 c 0,0.098 0,1.098 -1.31,1.098 -1.49,0 -10.95,-0.855 -12.64,-1.047 -0.8,-0.094 -1.4,-0.57 -1.4,-1.808 0,-1.145 0.9,-1.145 2.39,-1.145 4.78,0 4.98,-0.699 4.98,-1.695 l -0.3,-1.996 -5.97,-23.645 c -1.8,3.664 -4.68,6.336 -9.16,6.336 -11.66,0 -24,-14.601 -24,-29.105 0,-9.3363 5.47,-15.8949 13.24,-15.8949 1.99,0 6.97,0.3945 12.95,7.3789 0.79,-4.1328 4.28,-7.3789 9.06,-7.3789 3.48,0 5.77,2.2773 7.37,5.4492 1.69,3.5664 2.99,9.6057 2.99,9.8047 0,0.992 -0.9,0.992 -1.2,0.992 -1,0 -1.1,-0.402 -1.39,-1.8045 -1.7,-6.5234 -3.49,-12.4414 -7.57,-12.4414 -2.69,0 -2.99,2.5898 -2.99,4.582 0,2.3867 0.2,3.086 0.6,4.7774 l 14.35,57.5425 z m -20.74,-56.0738 c -0.5,-1.8047 -0.5,-2.0078 -2,-3.7109 -4.39,-5.5117 -8.49,-7.1172 -11.28,-7.1172 -5,0 -6.39,5.5156 -6.39,9.4219 0,5.012 3.2,17.344 5.49,21.953 3.1,5.914 7.59,9.625 11.58,9.625 6.49,0 7.89,-8.223 7.89,-8.824 0,-0.602 -0.2,-1.203 -0.3,-1.703"
         style="fill:#000000;fill-opacity:1;fill-rule:nonzero;stroke:none"
         id="path114"
         inkscape:connector-curvature="0" /><path
         d="m 2680.21,119.574 0,11.426 -16.52,-0.727 0,-4.273 c 5.67,0 6.31,0 6.31,-3.93 l 0,-31.07 -6.31,0 0,-5 26.3,0 0,5 -8.99,0 0,17.281 c 0,6.914 2.55,18.965 12.77,18.965 -0.09,-0.098 -1.77,-1.629 -1.77,-4.406 0,-3.926 3.14,-5.844 6,-5.844 2.85,0 6,2.059 6,5.973 0,5.191 -5.38,8.031 -10.55,8.031 -6.97,0 -10.95,-5.055 -13.24,-11.426"
         style="fill:#000000;fill-opacity:1;fill-rule:nonzero;stroke:none"
         id="path116"
         inkscape:connector-curvature="0" /></g></g></svg>