<?xml version="1.0" encoding="UTF-8" standalone="no"?>
<!-- Created with Inkscape (http://www.inkscape.org/) -->

<svg
   xmlns:dc="http://purl.org/dc/elements/1.1/"
   xmlns:cc="http://creativecommons.org/ns#"
   xmlns:rdf="http://www.w3.org/1999/02/22-rdf-syntax-ns#"
   xmlns:svg="http://www.w3.org/2000/svg"
   xmlns="http://www.w3.org/2000/svg"
   xmlns:sodipodi="http://sodipodi.sourceforge.net/DTD/sodipodi-0.dtd"
   xmlns:inkscape="http://www.inkscape.org/namespaces/inkscape"
   id="svg2"
   version="1.1"
   inkscape:version="0.91 r13725"
   xml:space="preserve"
   width="740.63477"
   height="44.811749"
   viewBox="0 0 740.63477 44.811749"
   sodipodi:docname="t_12.svg"><metadata
     id="metadata8"><rdf:RDF><cc:Work
         rdf:about=""><dc:format>image/svg+xml</dc:format><dc:type
           rdf:resource="http://purl.org/dc/dcmitype/StillImage" /><dc:title></dc:title></cc:Work></rdf:RDF></metadata><defs
     id="defs6" /><sodipodi:namedview
     pagecolor="#ffffff"
     bordercolor="#666666"
     borderopacity="1"
     objecttolerance="10"
     gridtolerance="10"
     guidetolerance="10"
     inkscape:pageopacity="0"
     inkscape:pageshadow="2"
     inkscape:window-width="748"
     inkscape:window-height="480"
     id="namedview4"
     showgrid="false"
     fit-margin-left="10"
     fit-margin-top="0"
     fit-margin-right="0"
     fit-margin-bottom="0"
     inkscape:zoom="0.75282051"
     inkscape:cx="375.3623"
     inkscape:cy="22.468625"
     inkscape:window-x="0"
     inkscape:window-y="24"
     inkscape:window-maximized="0"
     inkscape:current-layer="g10" /><g
     id="g10"
     inkscape:groupmode="layer"
     inkscape:label="ink_ext_XXXXXX"
     transform="matrix(1.25,0,0,-1.25,131.6123,37.343125)"><g
       id="g12"
       transform="matrix(0.15,0,0,0.15,-97.482031,-5.9749)"><path
         d="M 22.5039,166.191 C 23,167.293 23,167.492 23,167.992 23,169.09 22.1055,170 21.0078,170 c -0.8945,0 -1.5937,-0.508 -2.289,-2.309 l -17.43755,-45.894 0,-3.5 L 18.7188,72.3984 C 19.1172,71.3008 19.6133,70 21.0078,70 22.1055,70 23,70.8984 23,72 c 0,0.3008 0,0.5 -0.4961,1.5977 L 4.87109,119.996"
         style="fill:#000000;fill-opacity:1;fill-rule:nonzero;stroke:none"
         id="path14"
         inkscape:connector-curvature="0" /><path
         d="m 71.4961,161.602 c 0,0.199 0.2969,1.293 0.2969,1.394 0,0.098 0,1 -1.1914,1 -0.9922,0 -1.0899,-0.305 -1.4883,-1.996 L 63.3594,138.996 C 47.582,138.496 33,125.363 33,111.934 33,102.551 39.9453,94.75 52.0508,94.0586 51.2539,90.9961 50.5586,87.8359 49.7656,84.7773 48.5781,80.1367 47.582,76.3828 47.582,76.0859 47.582,75.0977 48.2773,75 48.7734,75 c 0.4961,0 0.6954,0.0977 0.9922,0.3945 0.1992,0.1993 0.793,2.5664 1.0938,3.9493 l 3.7695,14.7148 C 70.6016,94.5508 85,107.883 85,121.117 c 0,7.801 -5.2695,16.887 -19.0625,17.879 l 5.5586,22.606 z M 52.3516,96.0039 C 46.2813,96.3008 39,99.793 39,109.766 c 0,11.964 8.6992,25.925 23.7695,27.23 L 52.3516,96.0039 Z m 13.1757,40.9921 c 7.6954,-0.406 13.4688,-4.992 13.4688,-13.769 0,-11.766 -8.7109,-26.0278 -23.8984,-27.2231"
         style="fill:#000000;fill-opacity:1;fill-rule:nonzero;stroke:none"
         id="path16"
         inkscape:connector-curvature="0" /><path
         d="m 111,125.078 c 0,1.848 -0.145,1.922 -2.176,1.922 -4.644,-3.937 -11.2459,-4 -14.2224,-4 l 0,-3 c 1.7226,0 6.4534,0 10.3984,2.285 l 0,-35.117 C 105,84.8945 105,84 97.8203,84 l -2.7305,0 0,-3 24.8942,0 0,3 -2.472,0 C 111,84 111,84.8906 111,87.1484"
         style="fill:#000000;fill-opacity:1;fill-rule:nonzero;stroke:none"
         id="path18"
         inkscape:connector-curvature="0" /><path
         d="m 149,166.391 c 0,1.8 0,3.609 -2,3.609 -2,0 -2,-1.809 -2,-3.609 l 0,-92.7933 C 145,71.8008 145,70 147,70 c 2,0 2,1.8008 2,3.5977"
         style="fill:#000000;fill-opacity:1;fill-rule:nonzero;stroke:none"
         id="path20"
         inkscape:connector-curvature="0" /><path
         d="m 247.512,118 c 1.695,0 3.5,0 3.5,2 0,2 -1.805,2 -3.5,2 l -54.016,0 c -1.699,0 -3.496,0 -3.496,-2 0,-2 1.797,-2 3.496,-2"
         style="fill:#000000;fill-opacity:1;fill-rule:nonzero;stroke:none"
         id="path22"
         inkscape:connector-curvature="0" /><path
         d="m 323,225.422 c 0,2.379 0,2.582 -2.262,2.582 C 314.648,222 306.008,222 302.867,222 l 0,-3 c 2.004,0 7.918,0 13.133,2.477 l 0,-51.688 c 0,-3.59 -0.305,-4.789 -9.328,-4.789 l -3.207,0 0,-3 32.277,0 0,3 -3.262,0 c -9.175,0 -9.48,1.09 -9.48,4.762"
         style="fill:#000000;fill-opacity:1;fill-rule:nonzero;stroke:none"
         id="path24"
         inkscape:connector-curvature="0" /><g
         id="g26"
         transform="matrix(50.4,0,0,-4.8,293.48,122.48)"><rect
           x="0"
           y="0"
           width="1"
           height="1"
           transform="matrix(1,0,0,-1,0,1)"
           style="fill:#000000;fill-opacity:1;fill-rule:nonzero"
           id="rect28" /></g><path
         d="m 306.652,35 10.649,10.1406 C 332.973,58.7305 339,64.0469 339,73.8906 339,85.1172 329.973,93.0039 317.742,93.0039 306.418,93.0039 299,84.0703 299,75.4336 299,70 303.762,70 304.047,70 305.668,70 309,71.1445 309,75.0469 309,77.5234 307.328,80 304.074,80 c -0.742,0 -0.929,0 -1.207,0 2.321,6.375 7.766,10.0039 13.613,10.0039 9.176,0 13.52,-8.0391 13.52,-16.1758 0,-7.9375 -5.039,-15.7734 -10.574,-21.9258 L 300.105,30.6719 C 299,29.5781 299,29.3828 299,27 l 37.188,0 2.812,17.3359 -2,0 c -0.52,-2.8867 -1.234,-7.1211 -2.254,-8.5664 C 334.031,35 327.289,35 325.039,35"
         style="fill:#000000;fill-opacity:1;fill-rule:nonzero;stroke:none"
         id="path30"
         inkscape:connector-curvature="0" /><path
         d="m 433.707,160.816 c 0.199,0.301 0.5,0.993 0.5,1.391 0,0.695 -0.102,0.793 -2.391,0.793 l -68.742,0 c -2.293,0 -2.39,-0.098 -2.39,-0.793 0,-0.398 0.296,-1.09 0.496,-1.391 L 394.754,93.8828 C 395.453,92.5938 395.75,92 397.445,92 c 1.692,0 1.993,0.5938 2.688,1.8828 l 33.574,66.9332 z M 373.035,156 l 54.695,0 -27.296,-54.922"
         style="fill:#000000;fill-opacity:1;fill-rule:nonzero;stroke:none"
         id="path32"
         inkscape:connector-curvature="0" /><path
         d="m 474,149.691 -2.352,0 c -0.207,-1.515 -0.898,-5.586 -1.796,-6.277 C 469.297,143 463.977,143 463.012,143 l -12.715,0 c 7.254,6.426 9.672,8.359 13.82,11.605 5.113,4.075 9.883,8.356 9.883,14.918 0,8.36 -7.199,13.477 -15.887,13.477 -8.414,0 -14.113,-5.922 -14.113,-12.187 0,-3.473 2.84,-3.813 3.5,-3.813 1.582,0 3.5,1.121 3.5,3.5 0,1.188 -0.516,3.5 -4.328,3.5 2.113,4.582 6.75,6 9.957,6 6.82,0 10.371,-5.348 10.371,-10.891 0,-5.957 -4.137,-10.679 -6.27,-13.144 L 444.664,139.672 C 444,139.055 444,138.918 444,137 l 27.961,0"
         style="fill:#000000;fill-opacity:1;fill-rule:nonzero;stroke:none"
         id="path34"
         inkscape:connector-curvature="0" /><path
         d="m 516,166.391 c 0,1.8 0,3.609 -2,3.609 -2,0 -2,-1.809 -2,-3.609 l 0,-92.7933 C 512,71.8008 512,70 514,70 c 2,0 2,1.8008 2,3.5977"
         style="fill:#000000;fill-opacity:1;fill-rule:nonzero;stroke:none"
         id="path36"
         inkscape:connector-curvature="0" /><path
         d="m 571.496,161.602 c 0,0.199 0.297,1.293 0.297,1.394 0,0.098 0,1 -1.191,1 -0.993,0 -1.09,-0.305 -1.489,-1.996 l -5.754,-23.004 C 547.582,138.496 533,125.363 533,111.934 c 0,-9.383 6.945,-17.184 19.051,-17.8754 -0.797,-3.0625 -1.492,-6.2227 -2.285,-9.2813 -1.188,-4.6406 -2.184,-8.3945 -2.184,-8.6914 0,-0.9882 0.695,-1.0859 1.191,-1.0859 0.497,0 0.696,0.0977 0.993,0.3945 0.199,0.1993 0.793,2.5664 1.093,3.9493 l 3.77,14.7148 C 570.602,94.5508 585,107.883 585,121.117 c 0,7.801 -5.27,16.887 -19.062,17.879 l 5.558,22.606 z M 552.352,96.0039 C 546.281,96.3008 539,99.793 539,109.766 c 0,11.964 8.699,25.925 23.77,27.23 L 552.352,96.0039 Z m 13.175,40.9921 c 7.696,-0.406 13.469,-4.992 13.469,-13.769 0,-11.766 -8.711,-26.0278 -23.898,-27.2231"
         style="fill:#000000;fill-opacity:1;fill-rule:nonzero;stroke:none"
         id="path38"
         inkscape:connector-curvature="0" /><path
         d="m 621,93.6914 -2.352,0 C 618.441,92.1758 617.75,88.1055 616.852,87.4141 616.297,87 610.977,87 610.012,87 l -12.715,0 c 7.254,6.4258 9.672,8.3594 13.82,11.6055 C 616.23,102.68 621,106.961 621,113.523 621,121.883 613.801,127 605.113,127 596.699,127 591,121.078 591,114.813 c 0,-3.473 2.84,-3.813 3.5,-3.813 1.582,0 3.5,1.121 3.5,3.5 0,1.188 -0.516,3.5 -4.328,3.5 2.113,4.582 6.75,6 9.957,6 6.82,0 10.371,-5.348 10.371,-10.891 0,-5.957 -4.137,-10.679 -6.27,-13.1442 L 591.664,83.6719 C 591,83.0547 591,82.918 591,81 l 27.961,0"
         style="fill:#000000;fill-opacity:1;fill-rule:nonzero;stroke:none"
         id="path40"
         inkscape:connector-curvature="0" /><path
         d="m 658.719,118.297 0,3.398 -17.434,45.996 c -0.597,1.7 -1.195,2.309 -2.293,2.309 -1.094,0 -1.992,-0.91 -1.992,-2.008 0,-0.301 0,-0.5 0.5,-1.601 L 655.133,119.996 637.5,73.8008 C 637,72.6992 637,72.5 637,72 c 0,-1.1016 0.898,-2 1.992,-2 1.297,0 1.696,1 2.094,2"
         style="fill:#000000;fill-opacity:1;fill-rule:nonzero;stroke:none"
         id="path42"
         inkscape:connector-curvature="0" /><path
         d="m 766.621,128 c 1.488,0 3.379,0 3.379,2 0,2 -1.891,2 -3.277,2 l -59.457,0 c -1.391,0 -3.278,0 -3.278,-2 0,-2 1.887,-2 3.375,-2 l 59.258,0 z m 0.102,-20 c 1.386,0 3.277,0 3.277,2 0,2 -1.891,2 -3.379,2 l -59.258,0 c -1.488,0 -3.375,0 -3.375,-2 0,-2 1.887,-2 3.278,-2"
         style="fill:#000000;fill-opacity:1;fill-rule:nonzero;stroke:none"
         id="path44"
         inkscape:connector-curvature="0" /><path
         d="m 836.504,166.191 c 0.496,1.102 0.496,1.301 0.496,1.801 0,1.098 -0.895,2.008 -1.992,2.008 -0.895,0 -1.594,-0.508 -2.289,-2.309 l -17.438,-45.894 0,-3.5 17.438,-45.8986 C 833.117,71.3008 833.613,70 835.008,70 c 1.097,0 1.992,0.8984 1.992,2 0,0.3008 0,0.5 -0.496,1.5977 l -17.633,46.3983"
         style="fill:#000000;fill-opacity:1;fill-rule:nonzero;stroke:none"
         id="path46"
         inkscape:connector-curvature="0" /><path
         d="m 890.004,118.441 c 0,15.661 -9.391,20.555 -16.859,20.555 -13.829,0 -27.149,-14.207 -27.149,-28.211 0,-9.238 5.988,-16.7889 16.164,-16.7889 6.285,0 13.469,2.2656 21.051,8.2769 1.297,-5.2222 4.59,-8.2769 9.082,-8.2769 5.285,0 8.387,5.418 8.387,6.9919 0,0.688 -0.571,0.985 -1.145,0.985 -0.668,0 -0.953,-0.305 -1.238,-1.012 -1.715,-4.9649 -5.149,-4.9649 -5.34,-4.9649 -2.953,0 -2.953,7.7809 -2.953,10.1759 0,2.094 0,2.293 0.957,3.492 9,11.77 11.016,23.34 11.016,23.441 0,0.2 -0.098,0.997 -1.153,0.997 -0.957,0 -0.957,-0.301 -1.437,-2.094 -1.723,-6.285 -4.883,-13.867 -9.383,-19.75 l 0,6.183 z m -7,-13.625 c -8.953,-7.7144 -16.785,-8.8199 -20.852,-8.8199 -6.101,0 -9.152,4.5119 -9.152,10.9259 0,4.914 2.66,15.738 5.938,20.851 4.812,7.317 10.343,9.223 13.925,9.223 10.141,0 10.141,-13.133 10.141,-20.953 0,-3.707 0,-9.52 0,-11.227"
         style="fill:#000000;fill-opacity:1;fill-rule:nonzero;stroke:none"
         id="path48"
         inkscape:connector-curvature="0" /><path
         d="m 930,125.078 c 0,1.848 -0.145,1.922 -2.176,1.922 -4.644,-3.937 -11.246,-4 -14.222,-4 l 0,-3 c 1.722,0 6.453,0 10.398,2.285 l 0,-35.117 C 924,84.8945 924,84 916.82,84 l -2.73,0 0,-3 24.894,0 0,3 -2.472,0 C 930,84 930,84.8906 930,87.1484"
         style="fill:#000000;fill-opacity:1;fill-rule:nonzero;stroke:none"
         id="path50"
         inkscape:connector-curvature="0" /><path
         d="m 970,95 c 0,6.914 -2.445,11 -6.254,11 -3.223,0 -5.18,-2.594 -5.18,-5.5 0,-2.8008 1.989,-5.5 5.262,-5.5 1.192,0 2.485,0.3984 3.477,1.2969 0.297,0.1992 0.398,0.2969 0.496,0.2969 0.101,0 0.199,-0.1055 0.199,-1.5938 0,-7.2461 -3.473,-13.1211 -6.746,-16.3555 -1.094,-1.0742 -1.094,-1.2695 -1.094,-1.5664 0,-0.6836 0.488,-1.0742 0.977,-1.0742 1.07,0 8.863,7.5391 8.863,18.9961"
         style="fill:#000000;fill-opacity:1;fill-rule:nonzero;stroke:none"
         id="path52"
         inkscape:connector-curvature="0" /><path
         d="M 1040.97,162.387 C 1039.88,165 1038.68,165 1037,165 c -2.78,0 -3.18,-0.816 -3.87,-2.613 l -24.61,-60.09 c -0.6,-1.496 -0.89,-2.297 -8.44,-2.297 l -2.084,0 0,-5 24.714,0 0,5 c -0.2,0 -8.83,0 -8.83,1.246 0,0.098 0.29,1.055 0.39,1.152 l 4.96,11.598 26.6,0 5.96,-13.996 -9.43,0 0,-5 33.65,0 0,5 -9.64,0 -25.4,62.387 z m -8.22,-15.782 11.36,-27.609 -22.71,0"
         style="fill:#000000;fill-opacity:1;fill-rule:nonzero;stroke:none"
         id="path54"
         inkscape:connector-curvature="0" /><path
         d="m 1101,95 c 0,6.914 -2.45,11 -6.25,11 -3.23,0 -5.18,-2.594 -5.18,-5.5 0,-2.8008 1.98,-5.5 5.26,-5.5 1.19,0 2.48,0.3984 3.47,1.2969 0.3,0.1992 0.4,0.2969 0.5,0.2969 0.1,0 0.2,-0.1055 0.2,-1.5938 0,-7.2461 -3.47,-13.1211 -6.75,-16.3555 -1.09,-1.0742 -1.09,-1.2695 -1.09,-1.5664 0,-0.6836 0.49,-1.0742 0.98,-1.0742 1.07,0 8.86,7.5391 8.86,18.9961"
         style="fill:#000000;fill-opacity:1;fill-rule:nonzero;stroke:none"
         id="path56"
         inkscape:connector-curvature="0" /><path
         d="m 1150.7,162.898 c 0,0.098 0,1.098 -1.29,1.098 -2.29,0 -9.57,-0.762 -12.16,-0.953 -0.79,-0.094 -1.89,-0.188 -1.89,-2 0,-1.047 1,-1.047 2.49,-1.047 4.78,0 4.88,-0.906 4.88,-1.703 l -0.3,-1.992 -12.55,-49.762 c -0.3,-1.098 -0.5,-1.793 -0.5,-3.387 0,-5.6715 4.39,-9.1559 9.07,-9.1559 3.29,0 5.78,1.9805 7.47,5.5469 1.79,3.766 2.99,9.508 2.99,9.707 0,0.992 -0.88,0.992 -1.18,0.992 -0.97,0 -1.07,-0.402 -1.36,-1.804 -1.67,-6.524 -3.52,-12.4419 -7.43,-12.4419 -2.94,0 -2.94,3.1875 -2.94,4.5819 0,2.387 0.1,2.887 0.59,4.777"
         style="fill:#000000;fill-opacity:1;fill-rule:nonzero;stroke:none"
         id="path58"
         inkscape:connector-curvature="0" /><path
         d="m 1179,125.078 c 0,1.848 -0.14,1.922 -2.18,1.922 -4.64,-3.937 -11.24,-4 -14.22,-4 l 0,-3 c 1.72,0 6.45,0 10.4,2.285 l 0,-35.117 c 0,-2.2735 0,-3.168 -7.18,-3.168 l -2.73,0 0,-3 24.89,0 0,3 -2.47,0 c -6.51,0 -6.51,0.8906 -6.51,3.1484"
         style="fill:#000000;fill-opacity:1;fill-rule:nonzero;stroke:none"
         id="path60"
         inkscape:connector-curvature="0" /><path
         d="m 1220,95 c 0,6.914 -2.45,11 -6.25,11 -3.23,0 -5.18,-2.594 -5.18,-5.5 0,-2.8008 1.98,-5.5 5.26,-5.5 1.19,0 2.48,0.3984 3.47,1.2969 0.3,0.1992 0.4,0.2969 0.5,0.2969 0.1,0 0.2,-0.1055 0.2,-1.5938 0,-7.2461 -3.47,-13.1211 -6.75,-16.3555 -1.09,-1.0742 -1.09,-1.2695 -1.09,-1.5664 0,-0.6836 0.49,-1.0742 0.98,-1.0742 1.07,0 8.86,7.5391 8.86,18.9961"
         style="fill:#000000;fill-opacity:1;fill-rule:nonzero;stroke:none"
         id="path62"
         inkscape:connector-curvature="0" /><path
         d="m 1252.79,100.98 c -0.3,-1.4956 -0.9,-3.7925 -0.9,-4.2886 0,-1.7969 1.4,-2.6953 2.9,-2.6953 1.2,0 3,0.8008 3.7,2.793 0.1,0.1992 1.3,4.8909 1.9,7.3829 l 2.2,8.976 c 0.6,2.196 1.2,4.391 1.7,6.684 0.4,1.695 1.2,4.59 1.3,4.988 1.5,3.09 6.8,12.176 16.3,12.176 4.5,0 5.4,-3.699 5.4,-6.988 0,-2.496 -0.7,-5.289 -1.5,-8.281 l -2.81,-11.571 -2,-7.582 c -0.39,-1.992 -1.29,-5.3865 -1.29,-5.8826 0,-1.7969 1.4,-2.6953 2.9,-2.6953 3.09,0 3.7,2.4961 4.5,5.6875 1.39,5.5864 5.09,20.1484 6,24.0394 0.29,1.297 5.59,13.273 16.49,13.273 4.3,0 5.42,-3.398 5.42,-6.988 0,-5.688 -4.48,-17.059 -6.61,-22.344 -0.96,-2.394 -1.39,-3.492 -1.39,-5.488 0,-4.6877 3.53,-8.1799 8.27,-8.1799 9.48,0 13.21,14.4609 13.21,15.2539 0,0.992 -0.91,0.992 -1.21,0.992 -1.02,0 -1.02,-0.301 -1.52,-1.804 -1.52,-5.317 -4.75,-12.4419 -10.32,-12.4419 -1.72,0 -2.43,1 -2.43,3.293 0,2.4919 0.91,4.8869 1.82,7.0819 1.93,5.188 6.18,16.258 6.18,21.945 0,6.485 -4,10.68 -11.45,10.68 -7.46,0 -12.53,-4.367 -16.21,-9.625 -0.11,1.289 -0.4,4.664 -3.19,7.047 -2.49,2.082 -5.67,2.578 -8.15,2.578 -8.95,0 -13.83,-6.348 -15.52,-8.629 -0.5,5.653 -4.67,8.629 -9.15,8.629 -4.57,0 -6.46,-3.879 -7.36,-5.668 -1.79,-3.476 -3.08,-9.34 -3.08,-9.637 0,-0.996 1,-0.996 1.2,-0.996 1,0 1.1,0.102 1.7,2.317 1.7,7.148 3.7,11.984 7.3,11.984 1.6,0 3.1,-0.805 3.1,-4.598 0,-2.093 -0.3,-3.191 -1.6,-8.375"
         style="fill:#000000;fill-opacity:1;fill-rule:nonzero;stroke:none"
         id="path64"
         inkscape:connector-curvature="0" /><path
         d="m 1356,125.078 c 0,1.848 -0.14,1.922 -2.18,1.922 -4.64,-3.937 -11.24,-4 -14.22,-4 l 0,-3 c 1.72,0 6.45,0 10.4,2.285 l 0,-35.117 c 0,-2.2735 0,-3.168 -7.18,-3.168 l -2.73,0 0,-3 24.89,0 0,3 -2.47,0 c -6.51,0 -6.51,0.8906 -6.51,3.1484"
         style="fill:#000000;fill-opacity:1;fill-rule:nonzero;stroke:none"
         id="path66"
         inkscape:connector-curvature="0" /><path
         d="m 1396,95 c 0,6.914 -2.45,11 -6.25,11 -3.23,0 -5.18,-2.594 -5.18,-5.5 0,-2.8008 1.98,-5.5 5.26,-5.5 1.19,0 2.48,0.3984 3.47,1.2969 0.3,0.1992 0.4,0.2969 0.5,0.2969 0.1,0 0.2,-0.1055 0.2,-1.5938 0,-7.2461 -3.47,-13.1211 -6.75,-16.3555 -1.09,-1.0742 -1.09,-1.2695 -1.09,-1.5664 0,-0.6836 0.49,-1.0742 0.98,-1.0742 1.07,0 8.86,7.5391 8.86,18.9961"
         style="fill:#000000;fill-opacity:1;fill-rule:nonzero;stroke:none"
         id="path68"
         inkscape:connector-curvature="0" /><path
         d="m 1428.75,100.98 c -0.3,-1.4956 -0.9,-3.7925 -0.9,-4.2886 0,-1.7969 1.39,-2.6953 2.88,-2.6953 1.2,0 2.98,0.8008 3.68,2.793 0.09,0.1992 1.29,4.8909 1.88,7.3829 l 2.19,8.976 c 0.59,2.196 1.19,4.391 1.68,6.684 0.4,1.695 1.2,4.59 1.3,4.988 1.49,3.09 6.75,12.176 16.18,12.176 4.47,0 5.36,-3.699 5.36,-6.988 0,-6.188 -4.57,-18.953 -6.07,-23.242 -0.84,-2.293 -0.93,-3.493 -0.93,-4.59 0,-4.6877 3.43,-8.1799 8.04,-8.1799 9.22,0 12.85,14.4609 12.85,15.2539 0,0.992 -0.88,0.992 -1.17,0.992 -0.97,0 -0.97,-0.301 -1.46,-1.804 -1.95,-6.825 -5.16,-12.4419 -9.93,-12.4419 -1.65,0 -2.33,1 -2.33,3.293 0,2.4919 0.8,4.8869 1.59,7.0819 1.69,5.289 5.41,16.258 5.41,21.945 0,6.684 -4.23,10.68 -11.33,10.68 -8.87,0 -13.69,-6.348 -15.37,-8.629 -0.49,5.555 -4.53,8.629 -9.07,8.629 -4.53,0 -6.4,-3.879 -7.39,-5.668 -1.57,-3.379 -2.95,-9.242 -2.95,-9.637 0,-0.996 0.99,-0.996 1.19,-0.996 0.99,0 1.09,0.102 1.69,2.317 1.69,7.148 3.67,11.984 7.25,11.984 1.98,0 3.07,-1.305 3.07,-4.598 0,-2.093 -0.29,-3.191 -1.59,-8.375"
         style="fill:#000000;fill-opacity:1;fill-rule:nonzero;stroke:none"
         id="path70"
         inkscape:connector-curvature="0" /><path
         d="m 1504,125.078 c 0,1.848 -0.14,1.922 -2.18,1.922 -4.64,-3.937 -11.24,-4 -14.22,-4 l 0,-3 c 1.72,0 6.45,0 10.4,2.285 l 0,-35.117 c 0,-2.2735 0,-3.168 -7.18,-3.168 l -2.73,0 0,-3 24.89,0 0,3 -2.47,0 c -6.51,0 -6.51,0.8906 -6.51,3.1484"
         style="fill:#000000;fill-opacity:1;fill-rule:nonzero;stroke:none"
         id="path72"
         inkscape:connector-curvature="0" /><path
         d="m 1541,166.391 c 0,1.8 0,3.609 -2,3.609 -2,0 -2,-1.809 -2,-3.609 l 0,-92.7933 c 0,-1.7969 0,-3.5977 2,-3.5977 2,0 2,1.8008 2,3.5977"
         style="fill:#000000;fill-opacity:1;fill-rule:nonzero;stroke:none"
         id="path74"
         inkscape:connector-curvature="0" /><path
         d="m 1640.51,118 c 1.7,0 3.5,0 3.5,2 0,2 -1.8,2 -3.5,2 l -54.01,0 c -1.7,0 -3.5,0 -3.5,-2 0,-2 1.8,-2 3.5,-2"
         style="fill:#000000;fill-opacity:1;fill-rule:nonzero;stroke:none"
         id="path76"
         inkscape:connector-curvature="0" /><path
         d="m 1716,225.422 c 0,2.379 0,2.582 -2.26,2.582 C 1707.65,222 1699.01,222 1695.87,222 l 0,-3 c 2,0 7.92,0 13.13,2.477 l 0,-51.688 c 0,-3.59 -0.3,-4.789 -9.33,-4.789 l -3.21,0 0,-3 32.28,0 0,3 -3.26,0 c -9.18,0 -9.48,1.09 -9.48,4.762"
         style="fill:#000000;fill-opacity:1;fill-rule:nonzero;stroke:none"
         id="path78"
         inkscape:connector-curvature="0" /><g
         id="g80"
         transform="matrix(50.4,0,0,-4.8,1686.68,122.48)"><rect
           x="0"
           y="0"
           width="1"
           height="1"
           transform="matrix(1,0,0,-1,0,1)"
           style="fill:#000000;fill-opacity:1;fill-rule:nonzero"
           id="rect82" /></g><path
         d="m 1699.65,35 10.65,10.1406 c 15.67,13.5899 21.7,18.9063 21.7,28.75 0,11.2266 -9.03,19.1133 -21.26,19.1133 -11.32,0 -18.74,-8.9336 -18.74,-17.5703 C 1692,70 1696.76,70 1697.05,70 c 1.62,0 4.95,1.1445 4.95,5.0469 0,2.4765 -1.67,4.9531 -4.93,4.9531 -0.74,0 -0.93,0 -1.2,0 2.32,6.375 7.76,10.0039 13.61,10.0039 9.18,0 13.52,-8.0391 13.52,-16.1758 0,-7.9375 -5.04,-15.7734 -10.57,-21.9258 L 1693.11,30.6719 C 1692,29.5781 1692,29.3828 1692,27 l 37.19,0 2.81,17.3359 -2,0 c -0.52,-2.8867 -1.23,-7.1211 -2.25,-8.5664 C 1727.03,35 1720.29,35 1718.04,35"
         style="fill:#000000;fill-opacity:1;fill-rule:nonzero;stroke:none"
         id="path84"
         inkscape:connector-curvature="0" /><path
         d="m 1825.71,160.816 c 0.2,0.301 0.5,0.993 0.5,1.391 0,0.695 -0.1,0.793 -2.39,0.793 l -68.75,0 c -2.29,0 -2.39,-0.098 -2.39,-0.793 0,-0.398 0.3,-1.09 0.5,-1.391 l 33.57,-66.9332 c 0.7,-1.289 1,-1.8828 2.7,-1.8828 1.69,0 1.99,0.5938 2.68,1.8828 l 33.58,66.9332 z m -60.67,-4.816 54.69,0 -27.3,-54.922"
         style="fill:#000000;fill-opacity:1;fill-rule:nonzero;stroke:none"
         id="path86"
         inkscape:connector-curvature="0" /><path
         d="m 1866,149.691 -2.35,0 c -0.21,-1.515 -0.9,-5.586 -1.8,-6.277 C 1861.3,143 1855.98,143 1855.01,143 l -12.71,0 c 7.25,6.426 9.67,8.359 13.82,11.605 5.11,4.075 9.88,8.356 9.88,14.918 0,8.36 -7.2,13.477 -15.89,13.477 -8.41,0 -14.11,-5.922 -14.11,-12.187 0,-3.473 2.84,-3.813 3.5,-3.813 1.58,0 3.5,1.121 3.5,3.5 0,1.188 -0.52,3.5 -4.33,3.5 2.12,4.582 6.75,6 9.96,6 6.82,0 10.37,-5.348 10.37,-10.891 0,-5.957 -4.14,-10.679 -6.27,-13.144 l -16.07,-16.293 C 1836,139.055 1836,138.918 1836,137 l 27.96,0"
         style="fill:#000000;fill-opacity:1;fill-rule:nonzero;stroke:none"
         id="path88"
         inkscape:connector-curvature="0" /><path
         d="m 1909,166.391 c 0,1.8 0,3.609 -2,3.609 -2,0 -2,-1.809 -2,-3.609 l 0,-92.7933 c 0,-1.7969 0,-3.5977 2,-3.5977 2,0 2,1.8008 2,3.5977"
         style="fill:#000000;fill-opacity:1;fill-rule:nonzero;stroke:none"
         id="path90"
         inkscape:connector-curvature="0" /><path
         d="m 1969,118.441 c 0,15.661 -9.39,20.555 -16.86,20.555 -13.82,0 -27.14,-14.207 -27.14,-28.211 0,-9.238 5.98,-16.7889 16.16,-16.7889 6.29,0 13.47,2.2656 21.05,8.2769 1.3,-5.2222 4.59,-8.2769 9.08,-8.2769 5.29,0 8.39,5.418 8.39,6.9919 0,0.688 -0.57,0.985 -1.14,0.985 -0.67,0 -0.96,-0.305 -1.24,-1.012 -1.72,-4.9649 -5.15,-4.9649 -5.34,-4.9649 -2.96,0 -2.96,7.7809 -2.96,10.1759 0,2.094 0,2.293 0.96,3.492 9,11.77 11.02,23.34 11.02,23.441 0,0.2 -0.1,0.997 -1.16,0.997 -0.95,0 -0.95,-0.301 -1.43,-2.094 -1.73,-6.285 -4.89,-13.867 -9.39,-19.75 l 0,6.183 z m -7,-13.625 c -8.95,-7.7144 -16.78,-8.8199 -20.85,-8.8199 -6.1,0 -9.15,4.5119 -9.15,10.9259 0,4.914 2.66,15.738 5.94,20.851 4.81,7.317 10.34,9.223 13.92,9.223 10.14,0 10.14,-13.133 10.14,-20.953 0,-3.707 0,-9.52 0,-11.227"
         style="fill:#000000;fill-opacity:1;fill-rule:nonzero;stroke:none"
         id="path92"
         inkscape:connector-curvature="0" /><path
         d="m 2019,93.6914 -2.35,0 c -0.21,-1.5156 -0.9,-5.5859 -1.8,-6.2773 C 2014.3,87 2008.98,87 2008.01,87 l -12.71,0 c 7.25,6.4258 9.67,8.3594 13.82,11.6055 5.11,4.0745 9.88,8.3555 9.88,14.9175 0,8.36 -7.2,13.477 -15.89,13.477 -8.41,0 -14.11,-5.922 -14.11,-12.187 0,-3.473 2.84,-3.813 3.5,-3.813 1.58,0 3.5,1.121 3.5,3.5 0,1.188 -0.52,3.5 -4.33,3.5 2.12,4.582 6.75,6 9.96,6 6.82,0 10.37,-5.348 10.37,-10.891 0,-5.957 -4.14,-10.679 -6.27,-13.1442 L 1989.66,83.6719 C 1989,83.0547 1989,82.918 1989,81 l 27.96,0"
         style="fill:#000000;fill-opacity:1;fill-rule:nonzero;stroke:none"
         id="path94"
         inkscape:connector-curvature="0" /><path
         d="m 2049,95 c 0,6.914 -2.45,11 -6.25,11 -3.23,0 -5.18,-2.594 -5.18,-5.5 0,-2.8008 1.98,-5.5 5.26,-5.5 1.19,0 2.48,0.3984 3.47,1.2969 0.3,0.1992 0.4,0.2969 0.5,0.2969 0.1,0 0.2,-0.1055 0.2,-1.5938 0,-7.2461 -3.47,-13.1211 -6.75,-16.3555 -1.09,-1.0742 -1.09,-1.2695 -1.09,-1.5664 0,-0.6836 0.49,-1.0742 0.98,-1.0742 1.07,0 8.86,7.5391 8.86,18.9961"
         style="fill:#000000;fill-opacity:1;fill-rule:nonzero;stroke:none"
         id="path96"
         inkscape:connector-curvature="0" /><path
         d="m 2101,133 0,25 18.14,0 c 10.06,0 11.86,-7.484 11.86,-11.84 0,-7.293 -4.79,-13.16 -14.45,-13.16 l -15.55,0 z m 26.59,-2.516 c 10.87,1.883 17.41,7.829 17.41,15.461 0,9.118 -8.69,17.055 -24.77,17.055 l -43.34,0 0,-5 11.11,0 0,-58 -11.11,0 0,-5 46.2,0 c 16.53,0 24.91,8.723 24.91,18.434 0,9.515 -8.56,16.156 -20.41,17.05 z m -8.08,-30.484 -18.51,0 0,28.996 19.52,0 c 2.01,0 6.74,0 10.16,-4.273 3.32,-4.172 3.32,-9.731 3.32,-10.821 0,-1.191 0,-13.902 -14.49,-13.902"
         style="fill:#000000;fill-opacity:1;fill-rule:nonzero;stroke:none"
         id="path98"
         inkscape:connector-curvature="0" /><path
         d="m 2175,95 c 0,6.914 -2.45,11 -6.25,11 -3.23,0 -5.18,-2.594 -5.18,-5.5 0,-2.8008 1.98,-5.5 5.26,-5.5 1.19,0 2.48,0.3984 3.47,1.2969 0.3,0.1992 0.4,0.2969 0.5,0.2969 0.1,0 0.2,-0.1055 0.2,-1.5938 0,-7.2461 -3.47,-13.1211 -6.75,-16.3555 -1.09,-1.0742 -1.09,-1.2695 -1.09,-1.5664 0,-0.6836 0.49,-1.0742 0.98,-1.0742 1.07,0 8.86,7.5391 8.86,18.9961"
         style="fill:#000000;fill-opacity:1;fill-rule:nonzero;stroke:none"
         id="path100"
         inkscape:connector-curvature="0" /><path
         d="m 2224.7,162.898 c 0,0.098 0,1.098 -1.29,1.098 -2.29,0 -9.57,-0.762 -12.16,-0.953 -0.79,-0.094 -1.89,-0.188 -1.89,-2 0,-1.047 1,-1.047 2.49,-1.047 4.78,0 4.88,-0.906 4.88,-1.703 l -0.3,-1.992 -12.55,-49.762 c -0.3,-1.098 -0.5,-1.793 -0.5,-3.387 0,-5.6715 4.39,-9.1559 9.07,-9.1559 3.29,0 5.78,1.9805 7.47,5.5469 1.79,3.766 2.99,9.508 2.99,9.707 0,0.992 -0.88,0.992 -1.18,0.992 -0.97,0 -1.07,-0.402 -1.36,-1.804 -1.67,-6.524 -3.52,-12.4419 -7.43,-12.4419 -2.94,0 -2.94,3.1875 -2.94,4.5819 0,2.387 0.1,2.887 0.59,4.777"
         style="fill:#000000;fill-opacity:1;fill-rule:nonzero;stroke:none"
         id="path102"
         inkscape:connector-curvature="0" /><path
         d="m 2264,93.6914 -2.35,0 c -0.21,-1.5156 -0.9,-5.5859 -1.8,-6.2773 C 2259.3,87 2253.98,87 2253.01,87 l -12.71,0 c 7.25,6.4258 9.67,8.3594 13.82,11.6055 5.11,4.0745 9.88,8.3555 9.88,14.9175 0,8.36 -7.2,13.477 -15.89,13.477 -8.41,0 -14.11,-5.922 -14.11,-12.187 0,-3.473 2.84,-3.813 3.5,-3.813 1.58,0 3.5,1.121 3.5,3.5 0,1.188 -0.52,3.5 -4.33,3.5 2.12,4.582 6.75,6 9.96,6 6.82,0 10.37,-5.348 10.37,-10.891 0,-5.957 -4.14,-10.679 -6.27,-13.1442 L 2234.66,83.6719 C 2234,83.0547 2234,82.918 2234,81 l 27.96,0"
         style="fill:#000000;fill-opacity:1;fill-rule:nonzero;stroke:none"
         id="path104"
         inkscape:connector-curvature="0" /><path
         d="m 2294,95 c 0,6.914 -2.45,11 -6.25,11 -3.23,0 -5.18,-2.594 -5.18,-5.5 0,-2.8008 1.98,-5.5 5.26,-5.5 1.19,0 2.48,0.3984 3.47,1.2969 0.3,0.1992 0.4,0.2969 0.5,0.2969 0.1,0 0.2,-0.1055 0.2,-1.5938 0,-7.2461 -3.47,-13.1211 -6.75,-16.3555 -1.09,-1.0742 -1.09,-1.2695 -1.09,-1.5664 0,-0.6836 0.49,-1.0742 0.98,-1.0742 1.07,0 8.86,7.5391 8.86,18.9961"
         style="fill:#000000;fill-opacity:1;fill-rule:nonzero;stroke:none"
         id="path106"
         inkscape:connector-curvature="0" /><path
         d="m 2326.79,100.98 c -0.3,-1.4956 -0.9,-3.7925 -0.9,-4.2886 0,-1.7969 1.4,-2.6953 2.9,-2.6953 1.2,0 3,0.8008 3.7,2.793 0.1,0.1992 1.3,4.8909 1.9,7.3829 l 2.2,8.976 c 0.6,2.196 1.2,4.391 1.7,6.684 0.4,1.695 1.2,4.59 1.3,4.988 1.5,3.09 6.8,12.176 16.3,12.176 4.5,0 5.4,-3.699 5.4,-6.988 0,-2.496 -0.7,-5.289 -1.5,-8.281 l -2.81,-11.571 -2,-7.582 c -0.39,-1.992 -1.29,-5.3865 -1.29,-5.8826 0,-1.7969 1.4,-2.6953 2.9,-2.6953 3.09,0 3.7,2.4961 4.5,5.6875 1.39,5.5864 5.09,20.1484 6,24.0394 0.29,1.297 5.59,13.273 16.49,13.273 4.3,0 5.42,-3.398 5.42,-6.988 0,-5.688 -4.48,-17.059 -6.61,-22.344 -0.96,-2.394 -1.39,-3.492 -1.39,-5.488 0,-4.6877 3.53,-8.1799 8.27,-8.1799 9.48,0 13.21,14.4609 13.21,15.2539 0,0.992 -0.91,0.992 -1.21,0.992 -1.02,0 -1.02,-0.301 -1.52,-1.804 -1.52,-5.317 -4.75,-12.4419 -10.32,-12.4419 -1.72,0 -2.43,1 -2.43,3.293 0,2.4919 0.91,4.8869 1.82,7.0819 1.93,5.188 6.18,16.258 6.18,21.945 0,6.485 -4,10.68 -11.45,10.68 -7.46,0 -12.53,-4.367 -16.21,-9.625 -0.11,1.289 -0.4,4.664 -3.19,7.047 -2.49,2.082 -5.67,2.578 -8.15,2.578 -8.95,0 -13.83,-6.348 -15.52,-8.629 -0.5,5.653 -4.67,8.629 -9.15,8.629 -4.57,0 -6.46,-3.879 -7.36,-5.668 -1.79,-3.476 -3.08,-9.34 -3.08,-9.637 0,-0.996 1,-0.996 1.2,-0.996 1,0 1.1,0.102 1.7,2.317 1.7,7.148 3.7,11.984 7.3,11.984 1.6,0 3.1,-0.805 3.1,-4.598 0,-2.093 -0.3,-3.191 -1.6,-8.375"
         style="fill:#000000;fill-opacity:1;fill-rule:nonzero;stroke:none"
         id="path108"
         inkscape:connector-curvature="0" /><path
         d="m 2441,93.6914 -2.35,0 c -0.21,-1.5156 -0.9,-5.5859 -1.8,-6.2773 C 2436.3,87 2430.98,87 2430.01,87 l -12.71,0 c 7.25,6.4258 9.67,8.3594 13.82,11.6055 5.11,4.0745 9.88,8.3555 9.88,14.9175 0,8.36 -7.2,13.477 -15.89,13.477 -8.41,0 -14.11,-5.922 -14.11,-12.187 0,-3.473 2.84,-3.813 3.5,-3.813 1.58,0 3.5,1.121 3.5,3.5 0,1.188 -0.52,3.5 -4.33,3.5 2.12,4.582 6.75,6 9.96,6 6.82,0 10.37,-5.348 10.37,-10.891 0,-5.957 -4.14,-10.679 -6.27,-13.1442 L 2411.66,83.6719 C 2411,83.0547 2411,82.918 2411,81 l 27.96,0"
         style="fill:#000000;fill-opacity:1;fill-rule:nonzero;stroke:none"
         id="path110"
         inkscape:connector-curvature="0" /><path
         d="m 2470,95 c 0,6.914 -2.45,11 -6.25,11 -3.23,0 -5.18,-2.594 -5.18,-5.5 0,-2.8008 1.98,-5.5 5.26,-5.5 1.19,0 2.48,0.3984 3.47,1.2969 0.3,0.1992 0.4,0.2969 0.5,0.2969 0.1,0 0.2,-0.1055 0.2,-1.5938 0,-7.2461 -3.47,-13.1211 -6.75,-16.3555 -1.09,-1.0742 -1.09,-1.2695 -1.09,-1.5664 0,-0.6836 0.49,-1.0742 0.98,-1.0742 1.07,0 8.86,7.5391 8.86,18.9961"
         style="fill:#000000;fill-opacity:1;fill-rule:nonzero;stroke:none"
         id="path112"
         inkscape:connector-curvature="0" /><path
         d="m 2502.75,100.98 c -0.3,-1.4956 -0.9,-3.7925 -0.9,-4.2886 0,-1.7969 1.39,-2.6953 2.88,-2.6953 1.2,0 2.98,0.8008 3.68,2.793 0.09,0.1992 1.29,4.8909 1.88,7.3829 l 2.19,8.976 c 0.59,2.196 1.19,4.391 1.68,6.684 0.4,1.695 1.2,4.59 1.3,4.988 1.49,3.09 6.75,12.176 16.18,12.176 4.47,0 5.36,-3.699 5.36,-6.988 0,-6.188 -4.57,-18.953 -6.07,-23.242 -0.84,-2.293 -0.93,-3.493 -0.93,-4.59 0,-4.6877 3.43,-8.1799 8.04,-8.1799 9.22,0 12.85,14.4609 12.85,15.2539 0,0.992 -0.88,0.992 -1.17,0.992 -0.97,0 -0.97,-0.301 -1.46,-1.804 -1.95,-6.825 -5.16,-12.4419 -9.93,-12.4419 -1.65,0 -2.33,1 -2.33,3.293 0,2.4919 0.8,4.8869 1.59,7.0819 1.69,5.289 5.41,16.258 5.41,21.945 0,6.684 -4.23,10.68 -11.33,10.68 -8.87,0 -13.69,-6.348 -15.37,-8.629 -0.49,5.555 -4.53,8.629 -9.07,8.629 -4.53,0 -6.4,-3.879 -7.39,-5.668 -1.57,-3.379 -2.95,-9.242 -2.95,-9.637 0,-0.996 0.99,-0.996 1.19,-0.996 0.99,0 1.09,0.102 1.69,2.317 1.69,7.148 3.67,11.984 7.25,11.984 1.98,0 3.07,-1.305 3.07,-4.598 0,-2.093 -0.29,-3.191 -1.59,-8.375"
         style="fill:#000000;fill-opacity:1;fill-rule:nonzero;stroke:none"
         id="path114"
         inkscape:connector-curvature="0" /><path
         d="m 2589,93.6914 -2.35,0 c -0.21,-1.5156 -0.9,-5.5859 -1.8,-6.2773 C 2584.3,87 2578.98,87 2578.01,87 l -12.71,0 c 7.25,6.4258 9.67,8.3594 13.82,11.6055 5.11,4.0745 9.88,8.3555 9.88,14.9175 0,8.36 -7.2,13.477 -15.89,13.477 -8.41,0 -14.11,-5.922 -14.11,-12.187 0,-3.473 2.84,-3.813 3.5,-3.813 1.58,0 3.5,1.121 3.5,3.5 0,1.188 -0.52,3.5 -4.33,3.5 2.12,4.582 6.75,6 9.96,6 6.82,0 10.37,-5.348 10.37,-10.891 0,-5.957 -4.14,-10.679 -6.27,-13.1442 L 2559.66,83.6719 C 2559,83.0547 2559,82.918 2559,81 l 27.96,0"
         style="fill:#000000;fill-opacity:1;fill-rule:nonzero;stroke:none"
         id="path116"
         inkscape:connector-curvature="0" /><path
         d="m 2625.72,118.297 0,3.398 -17.43,45.996 c -0.6,1.7 -1.2,2.309 -2.3,2.309 -1.09,0 -1.99,-0.91 -1.99,-2.008 0,-0.301 0,-0.5 0.5,-1.601 l 17.63,-46.395 -17.63,-46.1952 C 2604,72.6992 2604,72.5 2604,72 c 0,-1.1016 0.9,-2 1.99,-2 1.3,0 1.7,1 2.1,2"
         style="fill:#000000;fill-opacity:1;fill-rule:nonzero;stroke:none"
         id="path118"
         inkscape:connector-curvature="0" /><path
         d="m 2733.62,128 c 1.49,0 3.38,0 3.38,2 0,2 -1.89,2 -3.28,2 l -59.45,0 c -1.39,0 -3.28,0 -3.28,-2 0,-2 1.89,-2 3.37,-2 l 59.26,0 z m 0.1,-20 c 1.39,0 3.28,0 3.28,2 0,2 -1.89,2 -3.38,2 l -59.26,0 c -1.48,0 -3.37,0 -3.37,-2 0,-2 1.89,-2 3.28,-2"
         style="fill:#000000;fill-opacity:1;fill-rule:nonzero;stroke:none"
         id="path120"
         inkscape:connector-curvature="0" /><path
         d="m 2780.36,14.2813 c 3.03,0.1953 4.64,2.3789 4.64,4.8593 0,3.2735 -2.58,4.8594 -4.95,4.8594 -2.48,0 -5.05,-1.4687 -5.05,-4.8945 0,-4.9961 5.01,-9.10941 11.13,-9.10941 15.25,0 20.97,23.29301 28.09,52.15621 7.72,31.4493 14.24,63.1997 19.66,95.1487 3.71,21.199 7.42,41.105 10.83,53.945 1.2,4.875 4.61,17.754 8.53,17.754 3.11,0 5.62,-1.887 6.03,-2.281 -3.48,-0.199 -5.27,-2.379 -5.27,-4.86 0,-3.269 2.58,-4.855 4.95,-4.855 2.48,0 5.05,1.465 5.05,4.891 0,5.285 -5.39,9.105 -10.87,9.105 -7.58,0 -13.17,-10.887 -18.65,-31.191 -0.3,-1.094 -13.85,-51.059 -24.82,-116.1488 -2.59,-15.2305 -5.48,-31.8516 -8.77,-45.6836 -1.79,-7.2657 -6.37,-25.9805 -14.45,-25.9805 -3.59,0 -5.98,2.2852 -6.08,2.2852"
         style="fill:#000000;fill-opacity:1;fill-rule:nonzero;stroke:none"
         id="path122"
         inkscape:connector-curvature="0" /><path
         d="m 2930.5,161.602 c 0,0.199 0.29,1.293 0.29,1.394 0,0.098 0,1 -1.19,1 -0.99,0 -1.09,-0.305 -1.49,-1.996 l -5.75,-23.004 c -15.78,-0.5 -30.36,-13.633 -30.36,-27.062 0,-9.383 6.95,-17.184 19.05,-17.8754 -0.8,-3.0625 -1.49,-6.2227 -2.28,-9.2813 -1.19,-4.6406 -2.19,-8.3945 -2.19,-8.6914 0,-0.9882 0.7,-1.0859 1.19,-1.0859 0.5,0 0.7,0.0977 1,0.3945 0.19,0.1993 0.79,2.5664 1.09,3.9493 l 3.77,14.7148 c 15.97,0.4922 30.37,13.8244 30.37,27.0584 0,7.801 -5.27,16.887 -19.06,17.879 l 5.56,22.606 z m -19.15,-65.5981 c -6.07,0.2969 -13.35,3.7891 -13.35,13.7621 0,11.964 8.7,25.925 23.77,27.23 l -10.42,-40.9921 z m 13.18,40.9921 c 7.69,-0.406 13.47,-4.992 13.47,-13.769 0,-11.766 -8.71,-26.0278 -23.9,-27.2231"
         style="fill:#000000;fill-opacity:1;fill-rule:nonzero;stroke:none"
         id="path124"
         inkscape:connector-curvature="0" /><path
         d="m 2968,153.965 c 5.97,2.504 8.66,3.48 10.48,4.316 1.38,0.555 2.04,0.836 2.04,2.157 0,1.183 -0.91,2.226 -2.16,2.226 -0.49,0 -0.63,0 -1.47,-0.625 l -9.48,-6.332 0.59,10.301 c 0.59,1.25 0.45,2.992 -1.74,2.992 -0.87,0 -2.26,-0.559 -2.26,-2.09 0,-0.625 0.33,-2.715 0.41,-3.41 0.17,-1.184 0.74,-6.195 0.91,-7.793 l -9.42,6.332 c -0.69,0.418 -0.9,0.625 -1.53,0.625 -1.26,0 -2.16,-1.043 -2.16,-2.226 0,-1.391 0.82,-1.739 1.43,-2.02 l 10.36,-4.383 c -5.62,-2.508 -8.16,-3.48 -9.87,-4.316 -1.31,-0.555 -1.92,-0.836 -1.92,-2.156 0,-1.184 0.9,-2.227 2.16,-2.227 0.49,0 0.63,0 1.46,0.625 l 9.49,6.332 -1.32,-11.203 c 0,-1.531 1.23,-2.09 2,-2.09 0.77,0 2,0.559 2,2.09 0,0.625 -0.15,2.715 -0.18,3.41 -0.08,1.184 -0.34,6.195 -0.41,7.793 l 8.37,-5.566 c 1.81,-1.391 1.95,-1.391 2.58,-1.391 1.25,0 2.16,1.043 2.16,2.227 0,1.39 -0.88,1.738 -1.53,2.019"
         style="fill:#000000;fill-opacity:1;fill-rule:nonzero;stroke:none"
         id="path126"
         inkscape:connector-curvature="0" /><path
         d="m 2970,115.078 c 0,1.848 -0.14,1.922 -2.18,1.922 -4.64,-3.937 -11.24,-4 -14.22,-4 l 0,-3 c 1.72,0 6.45,0 10.4,2.285 l 0,-35.117 c 0,-2.2735 0,-3.168 -7.18,-3.168 l -2.73,0 0,-3 24.89,0 0,3 -2.47,0 c -6.51,0 -6.51,0.8906 -6.51,3.1484"
         style="fill:#000000;fill-opacity:1;fill-rule:nonzero;stroke:none"
         id="path128"
         inkscape:connector-curvature="0" /><path
         d="m 3023.98,71 c 0,0.3008 0,0.5 -1.66,2.1992 -12.2,12.5977 -15.32,31.4958 -15.32,46.7968 0,17.399 3.71,34.797 15.71,47.297 1.27,1.199 1.27,1.398 1.27,1.699 0,0.699 -0.41,1.008 -1,1.008 -0.99,0 -9.9,-6.809 -15.74,-19.508 -5.05,-11 -6.24,-22.097 -6.24,-30.496 0,-7.801 1.09,-19.898 6.54,-31.1991 C 3013.48,76.5 3021.99,70 3022.98,70 c 0.59,0 1,0.3008 1,1"
         style="fill:#000000;fill-opacity:1;fill-rule:nonzero;stroke:none"
         id="path130"
         inkscape:connector-curvature="0" /><path
         d="m 3050.21,128.574 0,11.426 -16.52,-0.727 0,-4.273 c 5.67,0 6.31,0 6.31,-3.93 l 0,-31.07 -6.31,0 0,-5 26.3,0 0,5 -8.99,0 0,17.281 c 0,6.914 2.55,18.965 12.77,18.965 -0.09,-0.098 -1.77,-1.629 -1.77,-4.406 0,-3.926 3.14,-5.844 6,-5.844 2.85,0 6,2.059 6,5.973 0,5.191 -5.38,8.031 -10.55,8.031 -6.97,0 -10.95,-5.055 -13.24,-11.426"
         style="fill:#000000;fill-opacity:1;fill-rule:nonzero;stroke:none"
         id="path132"
         inkscape:connector-curvature="0" /><path
         d="m 3105,119.996 c 0,7.797 -1.11,19.899 -6.63,31.195 -6.03,12.301 -14.68,18.809 -15.69,18.809 -0.6,0 -1,-0.41 -1,-1.008 0,-0.301 0,-0.5 1.89,-2.301 9.76,-9.898 15.43,-25.796 15.43,-46.695 0,-17.098 -3.68,-34.6991 -16.03,-47.2968 -1.29,-1.1992 -1.29,-1.3984 -1.29,-1.6992 0,-0.6016 0.4,-1 1,-1 1.01,0 10.06,6.8008 15.99,19.4961 5.12,10.9999 6.33,22.1019 6.33,30.4999"
         style="fill:#000000;fill-opacity:1;fill-rule:nonzero;stroke:none"
         id="path134"
         inkscape:connector-curvature="0" /><path
         d="m 3201.74,0.996094 c 0,0.398436 -0.2,0.597656 -0.4,0.894536 -3.69,3.6875 -10.36,10.35937 -17.04,21.11717 -16.03,25.6992 -23.3,58.0703 -23.3,96.4142 0,26.793 3.58,61.355 20.02,91.035 7.87,14.145 16.03,22.313 20.42,26.695 0.3,0.301 0.3,0.496 0.3,0.797 0,1.047 -0.7,1.047 -2.08,1.047 -1.39,0 -1.59,0 -3.07,-1.543 -33.19,-30.379 -43.59,-76 -43.59,-117.93 0,-39.1441 8.91,-78.5855 34.07,-108.3667 1.98,-2.29302 5.75,-6.37505 9.81,-9.96099 C 3198.07,0 3198.27,0 3199.66,0 c 1.38,0 2.08,0 2.08,0.996094"
         style="fill:#000000;fill-opacity:1;fill-rule:nonzero;stroke:none"
         id="path136"
         inkscape:connector-curvature="0" /><path
         d="m 3271.51,118 c 1.7,0 3.5,0 3.5,2 0,2 -1.8,2 -3.5,2 l -54.01,0 c -1.7,0 -3.5,0 -3.5,-2 0,-2 1.8,-2 3.5,-2"
         style="fill:#000000;fill-opacity:1;fill-rule:nonzero;stroke:none"
         id="path138"
         inkscape:connector-curvature="0" /><path
         d="m 3325,225.422 c 0,2.379 0,2.582 -2.26,2.582 C 3316.65,222 3308.01,222 3304.87,222 l 0,-3 c 2,0 7.92,0 13.13,2.477 l 0,-51.688 c 0,-3.59 -0.3,-4.789 -9.33,-4.789 l -3.21,0 0,-3 32.28,0 0,3 -3.26,0 c -9.18,0 -9.48,1.09 -9.48,4.762"
         style="fill:#000000;fill-opacity:1;fill-rule:nonzero;stroke:none"
         id="path140"
         inkscape:connector-curvature="0" /><g
         id="g142"
         transform="matrix(50.4,0,0,-4.8,3295.88,122.48)"><rect
           x="0"
           y="0"
           width="1"
           height="1"
           transform="matrix(1,0,0,-1,0,1)"
           style="fill:#000000;fill-opacity:1;fill-rule:nonzero"
           id="rect144" /></g><path
         d="m 3308.65,35 10.65,10.1406 c 15.67,13.5899 21.7,18.9063 21.7,28.75 0,11.2266 -9.03,19.1133 -21.26,19.1133 -11.32,0 -18.74,-8.9336 -18.74,-17.5703 C 3301,70 3305.76,70 3306.05,70 c 1.62,0 4.95,1.1445 4.95,5.0469 0,2.4765 -1.67,4.9531 -4.93,4.9531 -0.74,0 -0.93,0 -1.2,0 2.32,6.375 7.76,10.0039 13.61,10.0039 9.18,0 13.52,-8.0391 13.52,-16.1758 0,-7.9375 -5.04,-15.7734 -10.57,-21.9258 L 3302.11,30.6719 C 3301,29.5781 3301,29.3828 3301,27 l 37.19,0 2.81,17.3359 -2,0 c -0.52,-2.8867 -1.23,-7.1211 -2.25,-8.5664 C 3336.03,35 3329.29,35 3327.04,35"
         style="fill:#000000;fill-opacity:1;fill-rule:nonzero;stroke:none"
         id="path146"
         inkscape:connector-curvature="0" /><path
         d="m 3434.71,160.816 c 0.2,0.301 0.5,0.993 0.5,1.391 0,0.695 -0.1,0.793 -2.39,0.793 l -68.75,0 c -2.29,0 -2.39,-0.098 -2.39,-0.793 0,-0.398 0.3,-1.09 0.5,-1.391 l 33.57,-66.9332 c 0.7,-1.289 1,-1.8828 2.7,-1.8828 1.69,0 1.99,0.5938 2.68,1.8828 l 33.58,66.9332 z m -60.67,-4.816 54.69,0 -27.3,-54.922"
         style="fill:#000000;fill-opacity:1;fill-rule:nonzero;stroke:none"
         id="path148"
         inkscape:connector-curvature="0" /><path
         d="m 3475,149.691 -2.35,0 c -0.21,-1.515 -0.9,-5.586 -1.8,-6.277 C 3470.3,143 3464.98,143 3464.01,143 l -12.71,0 c 7.25,6.426 9.67,8.359 13.82,11.605 5.11,4.075 9.88,8.356 9.88,14.918 0,8.36 -7.2,13.477 -15.89,13.477 -8.41,0 -14.11,-5.922 -14.11,-12.187 0,-3.473 2.84,-3.813 3.5,-3.813 1.58,0 3.5,1.121 3.5,3.5 0,1.188 -0.52,3.5 -4.33,3.5 2.12,4.582 6.75,6 9.96,6 6.82,0 10.37,-5.348 10.37,-10.891 0,-5.957 -4.14,-10.679 -6.27,-13.144 l -16.07,-16.293 C 3445,139.055 3445,138.918 3445,137 l 27.96,0"
         style="fill:#000000;fill-opacity:1;fill-rule:nonzero;stroke:none"
         id="path150"
         inkscape:connector-curvature="0" /><path
         d="m 3538,119.422 c 0,39.144 -8.88,78.586 -33.92,108.367 -1.97,2.293 -5.72,6.375 -9.76,9.961 -1.19,1.246 -1.38,1.246 -2.76,1.246 -1.18,0 -2.07,0 -2.07,-1.047 0,-0.398 0.39,-0.797 0.59,-0.996 3.47,-3.586 10.1,-10.258 16.74,-21.015 15.95,-25.7 23.18,-58.071 23.18,-96.415 0,-26.7925 -3.57,-61.355 -19.91,-91.0347 -7.83,-14.1445 -16.05,-22.41408 -20.21,-26.59767 -0.2,-0.29688 -0.39,-0.59375 -0.39,-0.894536 C 3489.49,0 3490.38,0 3491.56,0 c 1.38,0 1.57,0 3.05,1.49609 C 3527.64,31.8711 3538,77.4922 3538,119.422"
         style="fill:#000000;fill-opacity:1;fill-rule:nonzero;stroke:none"
         id="path152"
         inkscape:connector-curvature="0" /><path
         d="m 3617.5,161.602 c 0,0.199 0.29,1.293 0.29,1.394 0,0.098 0,1 -1.19,1 -0.99,0 -1.09,-0.305 -1.49,-1.996 l -5.75,-23.004 c -15.78,-0.5 -30.36,-13.633 -30.36,-27.062 0,-9.383 6.95,-17.184 19.05,-17.8754 -0.8,-3.0625 -1.49,-6.2227 -2.28,-9.2813 -1.19,-4.6406 -2.19,-8.3945 -2.19,-8.6914 0,-0.9882 0.7,-1.0859 1.19,-1.0859 0.5,0 0.7,0.0977 1,0.3945 0.19,0.1993 0.79,2.5664 1.09,3.9493 l 3.77,14.7148 c 15.97,0.4922 30.37,13.8244 30.37,27.0584 0,7.801 -5.27,16.887 -19.06,17.879 l 5.56,22.606 z m -19.15,-65.5981 c -6.07,0.2969 -13.35,3.7891 -13.35,13.7621 0,11.964 8.7,25.925 23.77,27.23 l -10.42,-40.9921 z m 13.18,40.9921 c 7.69,-0.406 13.47,-4.992 13.47,-13.769 0,-11.766 -8.71,-26.0278 -23.9,-27.2231"
         style="fill:#000000;fill-opacity:1;fill-rule:nonzero;stroke:none"
         id="path154"
         inkscape:connector-curvature="0" /><path
         d="m 3668,93.6914 -2.35,0 c -0.21,-1.5156 -0.9,-5.5859 -1.8,-6.2773 C 3663.3,87 3657.98,87 3657.01,87 l -12.71,0 c 7.25,6.4258 9.67,8.3594 13.82,11.6055 5.11,4.0745 9.88,8.3555 9.88,14.9175 0,8.36 -7.2,13.477 -15.89,13.477 -8.41,0 -14.11,-5.922 -14.11,-12.187 0,-3.473 2.84,-3.813 3.5,-3.813 1.58,0 3.5,1.121 3.5,3.5 0,1.188 -0.52,3.5 -4.33,3.5 2.12,4.582 6.75,6 9.96,6 6.82,0 10.37,-5.348 10.37,-10.891 0,-5.957 -4.14,-10.679 -6.27,-13.1442 L 3638.66,83.6719 C 3638,83.0547 3638,82.918 3638,81 l 27.96,0"
         style="fill:#000000;fill-opacity:1;fill-rule:nonzero;stroke:none"
         id="path156"
         inkscape:connector-curvature="0" /><path
         d="m 3711.98,71 c 0,0.3008 0,0.5 -1.66,2.1992 -12.2,12.5977 -15.32,31.4958 -15.32,46.7968 0,17.399 3.71,34.797 15.71,47.297 1.27,1.199 1.27,1.398 1.27,1.699 0,0.699 -0.41,1.008 -1,1.008 -0.99,0 -9.9,-6.809 -15.74,-19.508 -5.05,-11 -6.24,-22.097 -6.24,-30.496 0,-7.801 1.09,-19.898 6.54,-31.1991 C 3701.48,76.5 3709.99,70 3710.98,70 c 0.59,0 1,0.3008 1,1"
         style="fill:#000000;fill-opacity:1;fill-rule:nonzero;stroke:none"
         id="path158"
         inkscape:connector-curvature="0" /><path
         d="m 3737.21,128.574 0,11.426 -16.52,-0.727 0,-4.273 c 5.67,0 6.31,0 6.31,-3.93 l 0,-31.07 -6.31,0 0,-5 26.3,0 0,5 -8.99,0 0,17.281 c 0,6.914 2.55,18.965 12.77,18.965 -0.09,-0.098 -1.77,-1.629 -1.77,-4.406 0,-3.926 3.14,-5.844 6,-5.844 2.85,0 6,2.059 6,5.973 0,5.191 -5.38,8.031 -10.55,8.031 -6.97,0 -10.95,-5.055 -13.24,-11.426"
         style="fill:#000000;fill-opacity:1;fill-rule:nonzero;stroke:none"
         id="path160"
         inkscape:connector-curvature="0" /><path
         d="m 3793,119.996 c 0,7.797 -1.11,19.899 -6.63,31.195 -6.03,12.301 -14.68,18.809 -15.69,18.809 -0.6,0 -1,-0.41 -1,-1.008 0,-0.301 0,-0.5 1.89,-2.301 9.76,-9.898 15.43,-25.796 15.43,-46.695 0,-17.098 -3.68,-34.6991 -16.03,-47.2968 -1.29,-1.1992 -1.29,-1.3984 -1.29,-1.6992 0,-0.6016 0.4,-1 1,-1 1.01,0 10.06,6.8008 15.99,19.4961 5.12,10.9999 6.33,22.1019 6.33,30.4999"
         style="fill:#000000;fill-opacity:1;fill-rule:nonzero;stroke:none"
         id="path162"
         inkscape:connector-curvature="0" /><path
         d="m 3853.41,162.898 c 0,0.098 0,1.098 -1.31,1.098 -1.49,0 -10.95,-0.855 -12.64,-1.047 -0.8,-0.094 -1.4,-0.57 -1.4,-1.808 0,-1.145 0.9,-1.145 2.39,-1.145 4.78,0 4.98,-0.699 4.98,-1.695 l -0.3,-1.996 -5.97,-23.645 c -1.8,3.664 -4.68,6.336 -9.16,6.336 -11.66,0 -24,-14.601 -24,-29.105 0,-9.336 5.47,-15.8949 13.24,-15.8949 1.99,0 6.97,0.3945 12.95,7.3789 0.79,-4.1328 4.28,-7.3789 9.06,-7.3789 3.48,0 5.77,2.2773 7.37,5.4492 1.69,3.5667 2.99,9.6057 2.99,9.8047 0,0.992 -0.9,0.992 -1.2,0.992 -1,0 -1.1,-0.402 -1.39,-1.804 -1.7,-6.524 -3.49,-12.4419 -7.57,-12.4419 -2.69,0 -2.99,2.5898 -2.99,4.5819 0,2.387 0.2,3.086 0.6,4.777 l 14.35,57.543 z m -20.74,-56.074 c -0.5,-1.804 -0.5,-2.008 -2,-3.711 -4.39,-5.5114 -8.49,-7.1169 -11.28,-7.1169 -5,0 -6.39,5.5159 -6.39,9.4219 0,5.012 3.2,17.344 5.49,21.953 3.1,5.914 7.59,9.625 11.58,9.625 6.49,0 7.89,-8.223 7.89,-8.824 0,-0.602 -0.2,-1.203 -0.3,-1.703"
         style="fill:#000000;fill-opacity:1;fill-rule:nonzero;stroke:none"
         id="path164"
         inkscape:connector-curvature="0" /><path
         d="m 3874.21,128.574 0,11.426 -16.52,-0.727 0,-4.273 c 5.67,0 6.31,0 6.31,-3.93 l 0,-31.07 -6.31,0 0,-5 26.3,0 0,5 -8.99,0 0,17.281 c 0,6.914 2.55,18.965 12.77,18.965 -0.09,-0.098 -1.77,-1.629 -1.77,-4.406 0,-3.926 3.14,-5.844 6,-5.844 2.85,0 6,2.059 6,5.973 0,5.191 -5.38,8.031 -10.55,8.031 -6.97,0 -10.95,-5.055 -13.24,-11.426"
         style="fill:#000000;fill-opacity:1;fill-rule:nonzero;stroke:none"
         id="path166"
         inkscape:connector-curvature="0" /></g></g></svg>