<?xml version="1.0" encoding="UTF-8" standalone="no"?>
<!-- Created with Inkscape (http://www.inkscape.org/) -->

<svg
   xmlns:dc="http://purl.org/dc/elements/1.1/"
   xmlns:cc="http://creativecommons.org/ns#"
   xmlns:rdf="http://www.w3.org/1999/02/22-rdf-syntax-ns#"
   xmlns:svg="http://www.w3.org/2000/svg"
   xmlns="http://www.w3.org/2000/svg"
   xmlns:sodipodi="http://sodipodi.sourceforge.net/DTD/sodipodi-0.dtd"
   xmlns:inkscape="http://www.inkscape.org/namespaces/inkscape"
   id="svg2"
   version="1.1"
   inkscape:version="0.91 r13725"
   xml:space="preserve"
   width="289"
   height="68.25"
   viewBox="0 0 289 68.25"
   sodipodi:docname="contraction.svg"><metadata
     id="metadata8"><rdf:RDF><cc:Work
         rdf:about=""><dc:format>image/svg+xml</dc:format><dc:type
           rdf:resource="http://purl.org/dc/dcmitype/StillImage" /><dc:title></dc:title></cc:Work></rdf:RDF></metadata><defs
     id="defs6" /><sodipodi:namedview
     pagecolor="#ffffff"
     bordercolor="#666666"
     borderopacity="1"
     objecttolerance="10"
     gridtolerance="10"
     guidetolerance="10"
     inkscape:pageopacity="0"
     inkscape:pageshadow="2"
     inkscape:window-width="748"
     inkscape:window-height="480"
     id="namedview4"
     showgrid="false"
     fit-margin-top="0"
     fit-margin-left="0"
     fit-margin-right="0"
     fit-margin-bottom="0"
     inkscape:zoom="2.5310345"
     inkscape:cx="144.625"
     inkscape:cy="34.5625"
     inkscape:window-x="0"
     inkscape:window-y="24"
     inkscape:window-maximized="0"
     inkscape:current-layer="g10" /><g
     id="g10"
     inkscape:groupmode="layer"
     inkscape:label="ink_ext_XXXXXX"
     transform="matrix(1.25,0,0,-1.25,72.125,51.1875)"><g
       id="g12"
       transform="matrix(0.18,0,0,0.18,-46.32,-10.92)"><path
         d="m 39.4961,185.602 c 0,0.199 0.2969,1.293 0.2969,1.394 0,0.098 0,1 -1.1914,1 -0.9922,0 -1.0899,-0.305 -1.4883,-1.996 L 31.3594,162.996 C 15.582,162.496 1,149.363 1,135.934 c 0,-9.383 6.94531,-17.184 19.0508,-17.875 -0.7969,-3.063 -1.4922,-6.223 -2.2852,-9.282 -1.1875,-4.64 -2.1836,-8.394 -2.1836,-8.691 0,-0.9883 0.6953,-1.086 1.1914,-1.086 0.4961,0 0.6954,0.0977 0.9922,0.3945 0.1992,0.1993 0.793,2.5665 1.0938,3.9495 l 3.7695,14.715 C 38.6016,118.551 53,131.883 53,145.117 c 0,7.801 -5.2695,16.887 -19.0625,17.879 l 5.5586,22.606 z M 20.3516,120.004 C 14.2813,120.301 7,123.793 7,133.766 c 0,11.964 8.6992,25.925 23.7695,27.23 L 20.3516,120.004 Z m 13.1757,40.992 c 7.6954,-0.406 13.4688,-4.992 13.4688,-13.769 0,-11.766 -8.7109,-26.028 -23.8984,-27.223"
         style="fill:#000000;fill-opacity:1;fill-rule:nonzero;stroke:none"
         id="path14"
         inkscape:connector-curvature="0" /><path
         d="m 87.9766,95 c 0,0.3008 0,0.5 -1.6602,2.1992 C 74.1211,109.797 71,128.695 71,143.996 c 0,17.399 3.707,34.797 15.707,47.297 1.2696,1.199 1.2696,1.398 1.2696,1.699 0,0.699 -0.4024,1.008 -0.9961,1.008 -0.9883,0 -9.9024,-6.809 -15.7422,-19.508 C 66.1875,163.492 65,152.395 65,143.996 65,136.195 66.0898,124.098 71.5352,112.797 77.4766,100.5 85.9922,94 86.9805,94 c 0.5937,0 0.9961,0.3008 0.9961,1"
         style="fill:#000000;fill-opacity:1;fill-rule:nonzero;stroke:none"
         id="path16"
         inkscape:connector-curvature="0" /><path
         d="m 114.207,152.574 0,11.426 -16.5195,-0.727 0,-4.273 c 5.6715,0 6.3125,0 6.3125,-3.93 l 0,-31.07 -6.3125,0 0,-5 26.3005,0 0,5 -8.984,0 0,17.281 c 0,6.914 2.551,18.965 12.769,18.965 -0.093,-0.098 -1.777,-1.629 -1.777,-4.406 0,-3.926 3.149,-5.844 6,-5.844 2.852,0 6,2.059 6,5.973 0,5.191 -5.375,8.031 -10.551,8.031 -6.968,0 -10.949,-5.055 -13.238,-11.426"
         style="fill:#000000;fill-opacity:1;fill-rule:nonzero;stroke:none"
         id="path18"
         inkscape:connector-curvature="0" /><path
         d="m 169.004,143.996 c 0,7.797 -1.109,19.899 -6.637,31.195 -6.031,12.301 -14.679,18.809 -15.683,18.809 -0.602,0 -1.004,-0.41 -1.004,-1.008 0,-0.301 0,-0.5 1.89,-2.301 9.758,-9.898 15.43,-25.796 15.43,-46.695 0,-17.098 -3.684,-34.699 -16.027,-47.2968 C 145.68,95.5 145.68,95.3008 145.68,95 c 0,-0.6016 0.402,-1 1.004,-1 1.004,0 10.054,6.801 15.984,19.496 5.125,11 6.336,22.102 6.336,30.5"
         style="fill:#000000;fill-opacity:1;fill-rule:nonzero;stroke:none"
         id="path20"
         inkscape:connector-curvature="0" /><path
         d="m 277.621,152 c 1.488,0 3.379,0 3.379,2 0,2 -1.891,2 -3.277,2 l -59.457,0 c -1.391,0 -3.278,0 -3.278,-2 0,-2 1.887,-2 3.375,-2 l 59.258,0 z m 0.102,-20 c 1.386,0 3.277,0 3.277,2 0,2 -1.891,2 -3.379,2 l -59.258,0 c -1.488,0 -3.375,0 -3.375,-2 0,-2 1.887,-2 3.278,-2"
         style="fill:#000000;fill-opacity:1;fill-rule:nonzero;stroke:none"
         id="path22"
         inkscape:connector-curvature="0" /><path
         d="m 346.273,149.164 c 0.598,2.609 2.891,11.832 9.864,11.832 0.5,0 2.89,0 4.984,-0.992 -2.988,-0.508 -5.121,-3.035 -5.121,-5.465 0,-1.617 1.078,-3.539 3.719,-3.539 2.152,0 5.285,1.742 5.285,5.609 0,5.032 -5.711,6.387 -9.004,6.387 -5.75,0 -9.211,-5.254 -10.398,-7.531 -2.477,6.539 -7.821,7.531 -10.692,7.531 -10.293,0 -15.933,-12.82 -15.933,-15.305 0,-0.996 0.996,-0.996 1.195,-0.996 0.797,0 1.098,0.203 1.297,1.11 3.386,10.672 9.961,13.191 13.347,13.191 1.895,0 5.383,-0.906 5.383,-6.719 0,-3.105 -1.695,-9.824 -5.383,-23.855 -1.593,-6.215 -5.078,-10.426 -9.461,-10.426 -0.597,0 -2.89,0 -4.984,1.004 2.461,0.504 4.629,2.629 4.629,5.461 0,2.73 -2.156,3.539 -3.621,3.539 -2.938,0 -5.383,-2.52 -5.383,-5.613 0,-4.453 4.969,-6.391 9.344,-6.391 6.558,0 10.137,6.887 10.433,7.481 1.196,-3.641 4.77,-7.481 10.735,-7.481 10.234,0 15.906,12.777 15.906,15.254 0,0.992 -0.894,0.992 -1.195,0.992 -0.895,0 -1.094,-0.402 -1.293,-1.105 -3.289,-10.731 -10.063,-13.141 -13.254,-13.141 -3.883,0 -5.477,3.211 -5.477,6.617 0,2.203 0.598,4.41 1.692,8.821"
         style="fill:#000000;fill-opacity:1;fill-rule:nonzero;stroke:none"
         id="path24"
         inkscape:connector-curvature="0" /><path
         d="m 389.648,206.867 c 0.075,0.141 0.297,1.067 0.297,1.137 0,0.355 -0.285,0.996 -1.14,0.996 -1.422,0 -7.332,-0.512 -9.11,-0.637 -0.5,-0.066 -1.496,-0.129 -1.496,-1.468 0,-0.895 0.996,-0.895 1.781,-0.895 3.415,0 3.415,-0.508 3.415,-1.078 0,-0.5 -0.141,-0.93 -0.286,-1.574 l -8.824,-35.332 c -0.211,-0.715 -0.285,-1.504 -0.285,-2.219 0,-4.578 4.059,-6.797 7.477,-6.797 1.711,0 3.847,0.574 5.695,3.793 1.496,2.648 2.496,6.867 2.496,7.156 0,0.93 -0.961,0.93 -1.18,0.93 -1.031,0 -1.175,-0.43 -1.472,-1.719 -0.953,-3.578 -2.352,-8.16 -5.516,-8.16 -1.984,0 -2.5,1.777 -2.5,3.48 0,0.782 0.223,2.129 0.441,2.911"
         style="fill:#000000;fill-opacity:1;fill-rule:nonzero;stroke:none"
         id="path26"
         inkscape:connector-curvature="0" /><path
         d="m 449.418,156.98 c 0.398,1.387 0.398,1.586 0.398,2.278 0,1.781 -1.406,2.68 -2.906,2.68 -1,0 -2.601,-0.606 -3.5,-2.102 -0.203,-0.5 -1,-3.594 -1.402,-5.391 -0.699,-2.597 -1.399,-5.293 -2,-7.988 l -4.504,-17.973 c -0.399,-1.496 -4.699,-8.488 -11.305,-8.488 -5.101,0 -6.199,4.391 -6.199,8.082 0,4.586 1.676,10.774 5.031,19.551 1.578,4.09 1.973,5.187 1.973,7.18 0,4.488 -3.16,8.187 -8.094,8.187 -9.371,0 -13.019,-14.41 -13.019,-15.305 0,-0.996 0.98,-0.996 1.175,-0.996 0.981,0 1.079,0.203 1.571,1.813 2.648,9.465 6.574,12.488 9.91,12.488 0.785,0 2.457,0 2.457,-3.199 0,-2.492 -0.934,-5.086 -1.59,-6.984 -3.734,-10.571 -5.418,-16.258 -5.418,-20.946 0,-8.879 6.211,-11.871 12.024,-11.871 3.847,0 7.195,1.66 9.957,4.391 -1.297,-5.125 -2.493,-9.953 -6.477,-15.176 -2.59,-3.352 -6.375,-6.211 -10.957,-6.211 -1.395,0 -5.879,0.285 -7.574,3.996 1.594,0 2.89,0 4.285,1.227 0.996,0.922 1.992,2.25 1.992,4.195 0,3.168 -2.687,3.578 -3.687,3.578 -2.289,0 -5.579,-1.578 -5.579,-6.414 0,-4.934 4.383,-8.582 10.563,-8.582 10.262,0 20.523,9.004 23.312,20.184"
         style="fill:#000000;fill-opacity:1;fill-rule:nonzero;stroke:none"
         id="path28"
         inkscape:connector-curvature="0" /><path
         d="m 484.371,165.453 c -0.348,-1.418 -0.98,-3.828 -0.98,-4.183 0,-1.559 1.261,-2.27 2.382,-2.27 1.258,0 2.379,0.922 2.731,1.563 0.348,0.636 0.91,2.906 1.258,4.394 0.351,1.348 1.121,4.609 1.543,6.383 0.418,1.562 0.84,3.121 1.187,4.754 0.77,3.047 0.77,3.187 2.172,5.386 2.238,3.477 5.742,7.52 11.199,7.52 3.922,0 4.137,-3.266 4.137,-4.965 0,-4.258 -2.906,-12.129 -3.988,-15.105 -0.742,-1.985 -1.012,-2.625 -1.012,-3.828 0,-3.758 3,-6.102 6.477,-6.102 6.82,0 9.82,9.875 9.82,10.949 0,0.93 -0.887,0.93 -1.09,0.93 -0.953,0 -1.019,-0.43 -1.293,-1.219 -1.566,-5.722 -4.492,-8.66 -7.215,-8.66 -1.426,0 -1.699,0.992 -1.699,2.477 0,1.625 0.328,2.543 1.512,5.726 0.789,2.192 3.488,9.684 3.488,13.641 0,1.133 0,4.101 -2.586,6.156 -1.184,0.961 -3.207,2 -6.484,2 -6.274,0 -10.106,-4.258 -12.336,-7.289 -0.559,6.133 -5.508,7.289 -9.063,7.289 -5.785,0 -9.687,-3.695 -11.777,-6.59 -0.488,4.996 -4.602,6.59 -7.461,6.59 -2.996,0 -4.602,-2.211 -5.508,-3.848 -1.531,-2.632 -2.508,-6.691 -2.508,-7.05 0,-0.922 0.981,-0.922 1.192,-0.922 0.98,0 1.051,0.211 1.539,2.133 1.051,4.199 2.379,7.687 5.109,7.687 1.821,0 2.313,-1.562 2.313,-3.477 0,-1.347 -0.629,-3.972 -1.121,-5.886 -0.489,-1.914 -1.192,-4.821 -1.539,-6.383 l -2.243,-9.074 c -0.277,-0.922 -0.699,-2.696 -0.699,-2.91 0,-1.559 1.262,-2.27 2.379,-2.27 1.262,0 2.383,0.922 2.731,1.563 0.351,0.636 0.91,2.906 1.261,4.394 0.352,1.348 1.121,4.609 1.539,6.383 0.422,1.562 0.84,3.121 1.192,4.754 0.769,2.906 0.91,3.472 2.941,6.379 1.961,2.836 5.25,6.527 10.5,6.527 4.063,0 4.133,-3.617 4.133,-4.965 0,-1.773 -0.211,-2.695 -1.191,-6.668"
         style="fill:#000000;fill-opacity:1;fill-rule:nonzero;stroke:none"
         id="path30"
         inkscape:connector-curvature="0" /><path
         d="m 542.25,127.27 c 5.379,5.769 8.27,8.257 11.855,11.343 0,0.098 6.176,5.371 9.766,8.953 9.461,9.254 11.656,14.032 11.656,14.43 0,1 -0.898,1 -1.097,1 -0.7,0 -0.996,-0.215 -1.496,-1.172 -2.989,-5.117 -5.079,-6.82 -7.469,-6.82 -2.395,0 -3.59,1.598 -5.082,3.41 -1.895,2.449 -3.586,4.582 -6.875,4.582 -7.473,0 -12.055,-9.238 -12.055,-11.32 0,-0.5 0.301,-1.094 1.195,-1.094 0.899,0 1.098,0.465 1.297,1.027 1.891,4.293 7.668,4.387 8.469,4.387 2.09,0 3.984,-0.699 6.274,-1.496 3.984,-1.496 5.082,-1.496 7.671,-1.496 -3.586,-4.234 -11.953,-11.313 -13.847,-12.887 l -8.965,-8.258 c -6.777,-6.586 -10.262,-12.191 -10.262,-12.879 0,-0.984 0.996,-0.984 1.195,-0.984 0.797,0 0.997,0.188 1.594,1.215 2.289,3.269 5.281,5.793 8.469,5.793 2.289,0 3.285,-0.844 5.777,-3.551 1.696,-1.961 3.489,-3.457 6.375,-3.457 9.864,0 15.641,12.578 15.641,15.254 0,0.496 -0.398,0.992 -1.195,0.992 -0.895,0 -1.094,-0.57 -1.395,-1.238 -2.289,-6.195 -8.668,-8.004 -11.953,-8.004 -1.992,0 -3.785,0.398 -5.879,0.867 -3.387,0.867 -4.883,1.137 -6.973,1.137 -0.199,0 -1.793,0 -2.691,0.266"
         style="fill:#000000;fill-opacity:1;fill-rule:nonzero;stroke:none"
         id="path32"
         inkscape:connector-curvature="0" /><path
         d="m 589.445,164.18 c -0.277,-0.922 -0.691,-2.696 -0.691,-2.91 0,-1.559 1.242,-2.27 2.344,-2.27 1.238,0 2.343,0.922 2.687,1.563 0.344,0.636 0.895,2.906 1.238,4.394 0.344,1.348 1.102,4.609 1.516,6.383 0.414,1.562 0.828,3.121 1.172,4.754 0.758,2.906 0.894,3.472 2.894,6.379 1.926,2.836 5.165,6.527 10.333,6.527 3.996,0 4.062,-3.617 4.062,-4.965 0,-4.258 -2.906,-12.129 -3.988,-15.105 -0.742,-1.985 -1.012,-2.625 -1.012,-3.828 0,-3.758 3.105,-6.102 6.711,-6.102 7.066,0 10.176,9.875 10.176,10.949 0,0.93 -0.934,0.93 -1.149,0.93 -1,0 -1.074,-0.43 -1.359,-1.219 -1.649,-5.722 -4.727,-8.66 -7.59,-8.66 -1.504,0 -1.789,0.996 -1.789,2.484 0,1.629 0.328,2.551 1.512,5.743 0.789,2.199 3.492,9.714 3.492,13.687 0,6.879 -5.285,8.086 -8.918,8.086 -5.691,0 -9.531,-3.695 -11.586,-6.59 -0.48,4.996 -4.527,6.59 -7.336,6.59 -2.949,0 -4.527,-2.211 -5.418,-3.848 -1.508,-2.632 -2.469,-6.691 -2.469,-7.05 0,-0.922 0.965,-0.922 1.172,-0.922 0.965,0 1.031,0.211 1.516,2.133 1.031,4.199 2.34,7.687 5.027,7.687 1.793,0 2.274,-1.562 2.274,-3.477 0,-1.347 -0.621,-3.972 -1.102,-5.886 -0.48,-1.914 -1.172,-4.821 -1.516,-6.383"
         style="fill:#000000;fill-opacity:1;fill-rule:nonzero;stroke:none"
         id="path34"
         inkscape:connector-curvature="0" /><path
         d="m 706.445,246.18 c -0.277,-0.922 -0.691,-2.696 -0.691,-2.91 0,-1.559 1.242,-2.27 2.344,-2.27 1.238,0 2.343,0.922 2.687,1.563 0.344,0.636 0.895,2.906 1.238,4.394 0.344,1.348 1.102,4.609 1.516,6.383 0.414,1.562 0.828,3.121 1.172,4.754 0.758,2.906 0.894,3.472 2.894,6.379 1.926,2.836 5.165,6.527 10.333,6.527 3.996,0 4.062,-3.617 4.062,-4.965 0,-4.258 -2.906,-12.129 -3.988,-15.105 -0.742,-1.985 -1.012,-2.625 -1.012,-3.828 0,-3.758 3.105,-6.102 6.711,-6.102 7.066,0 10.176,9.875 10.176,10.949 0,0.93 -0.934,0.93 -1.149,0.93 -1,0 -1.074,-0.43 -1.359,-1.219 -1.649,-5.722 -4.727,-8.66 -7.59,-8.66 -1.504,0 -1.789,0.996 -1.789,2.484 0,1.629 0.328,2.551 1.512,5.743 0.789,2.199 3.492,9.714 3.492,13.687 0,6.879 -5.285,8.086 -8.918,8.086 -5.691,0 -9.531,-3.695 -11.586,-6.59 -0.48,4.996 -4.527,6.59 -7.336,6.59 -2.949,0 -4.527,-2.211 -5.418,-3.848 -1.508,-2.632 -2.469,-6.691 -2.469,-7.05 0,-0.922 0.965,-0.922 1.172,-0.922 0.965,0 1.031,0.211 1.516,2.133 1.031,4.199 2.34,7.687 5.027,7.687 1.793,0 2.274,-1.562 2.274,-3.477 0,-1.347 -0.621,-3.972 -1.102,-5.886 -0.48,-1.914 -1.172,-4.821 -1.516,-6.383"
         style="fill:#000000;fill-opacity:1;fill-rule:nonzero;stroke:none"
         id="path36"
         inkscape:connector-curvature="0" /><path
         d="m 776.125,72 12.059,32.402 -2.493,0 C 781.805,93.957 771.246,87.1289 759.789,84.1133 757.695,83.6133 747.934,81 728.805,81 l -60.075,0 50.711,59.465 c 0.696,0.797 0.895,1.094 0.895,1.594 0,0.199 0,0.496 -0.695,1.492 L 673.215,207 l 54.594,0 c 13.347,0 22.414,-1.383 23.312,-1.582 5.379,-0.789 14.047,-2.469 21.918,-7.402 2.488,-1.578 9.266,-6.02 12.652,-14.012 l 2.493,0 -12.059,27.996 -117.758,0 c -2.289,0 -2.39,-0.113 -2.687,-0.711 -0.102,-0.301 -0.102,-2.203 -0.102,-3.301 L 708.281,135.594 656.676,74.8984 C 655.68,73.6992 655.68,73.1992 655.68,73.1016 655.68,72 656.574,72 658.367,72"
         style="fill:#000000;fill-opacity:1;fill-rule:nonzero;stroke:none"
         id="path38"
         inkscape:connector-curvature="0" /><path
         d="m 730.594,44.5508 c 0,1.0312 -0.836,2.4492 -2.789,2.4492 -1.883,0 -3.907,-1.6758 -3.907,-3.5469 0,-1.0976 0.911,-2.4531 2.793,-2.4531 2.02,0 3.903,1.8086 3.903,3.5508 z M 716.621,9.00781 C 716.344,8.08594 716,7.23438 716,6.03125 716,2.69531 718.742,0 722.52,0 c 6.863,0 9.89,9.875 9.89,10.9492 0,0.9297 -0.894,0.9297 -1.101,0.9297 -0.961,0 -1.032,-0.4297 -1.305,-1.2187 C 728.422,4.9375 725.398,2 722.715,2 721.344,2 721,2.92188 721,4.48438 c 0,1.6289 0.473,2.97656 1.086,4.53906 0.68,1.91406 1.426,3.82816 2.176,5.67186 0.613,1.7031 3.058,8.1563 3.332,9.0078 0.203,0.7071 0.406,1.5586 0.406,2.2657 0,3.3359 -2.789,6.0312 -6.621,6.0312 -6.899,0 -10.102,-9.6875 -10.102,-10.8984 0,-0.9219 0.985,-0.9219 1.196,-0.9219 0.98,0 1.05,0.3555 1.261,1.1367 1.825,6.1172 4.914,8.6836 7.512,8.6836 1.121,0 1.754,-0.5703 1.754,-2.4844 0,-1.6289 -0.387,-2.6953 -2,-7.0898"
         style="fill:#000000;fill-opacity:1;fill-rule:nonzero;stroke:none"
         id="path40"
         inkscape:connector-curvature="0" /><path
         d="m 848.156,156.605 c -1.793,3.692 -4.679,6.391 -9.16,6.391 -11.652,0 -24,-14.601 -24,-29.105 0,-9.336 5.477,-15.895 13.246,-15.895 1.992,0 6.969,0.395 12.946,7.379 0.796,-4.133 4.281,-7.379 9.058,-7.379 3.488,0 5.777,2.277 7.371,5.449 1.692,3.567 2.996,9.606 2.996,9.805 0,0.992 -0.906,0.992 -1.203,0.992 -0.996,0 -1.097,-0.402 -1.394,-1.804 -1.696,-6.524 -3.485,-12.442 -7.571,-12.442 -2.687,0 -2.984,2.594 -2.984,4.59 0,2.195 0.199,2.992 1.293,7.383 1.094,4.187 1.297,5.183 2.191,8.976 l 3.586,13.965 c 0.696,2.793 0.696,2.992 0.696,3.391 0,1.695 -1.196,2.691 -2.887,2.691 -2.391,0 -3.883,-2.191 -4.184,-4.387 z m -6.488,-25.781 c -0.5,-1.804 -0.5,-2.008 -1.996,-3.711 -4.395,-5.511 -8.488,-7.117 -11.281,-7.117 -4.996,0 -6.391,5.516 -6.391,9.422 0,5.012 3.195,17.344 5.488,21.953 3.098,5.914 7.59,9.625 11.582,9.625 6.493,0 7.895,-8.223 7.895,-8.824 0,-0.602 -0.203,-1.203 -0.305,-1.703"
         style="fill:#000000;fill-opacity:1;fill-rule:nonzero;stroke:none"
         id="path42"
         inkscape:connector-curvature="0" /><path
         d="m 886.594,147.551 c 0,1.031 -0.836,2.449 -2.789,2.449 -1.883,0 -3.907,-1.676 -3.907,-3.547 0,-1.098 0.911,-2.453 2.793,-2.453 2.02,0 3.903,1.809 3.903,3.551 z m -13.973,-35.543 c -0.277,-0.922 -0.621,-1.774 -0.621,-2.977 0,-3.336 2.742,-6.031 6.52,-6.031 6.863,0 9.89,9.875 9.89,10.949 0,0.93 -0.894,0.93 -1.101,0.93 -0.961,0 -1.032,-0.43 -1.305,-1.219 -1.582,-5.722 -4.606,-8.66 -7.289,-8.66 -1.371,0 -1.715,0.922 -1.715,2.484 0,1.629 0.473,2.977 1.086,4.539 0.68,1.915 1.426,3.829 2.176,5.672 0.613,1.703 3.058,8.157 3.332,9.008 0.203,0.707 0.406,1.559 0.406,2.266 0,3.336 -2.789,6.031 -6.621,6.031 -6.899,0 -10.102,-9.687 -10.102,-10.898 0,-0.922 0.985,-0.922 1.196,-0.922 0.98,0 1.05,0.355 1.261,1.136 1.825,6.118 4.914,8.684 7.512,8.684 1.121,0 1.754,-0.57 1.754,-2.484 0,-1.629 -0.387,-2.696 -2,-7.09"
         style="fill:#000000;fill-opacity:1;fill-rule:nonzero;stroke:none"
         id="path44"
         inkscape:connector-curvature="0" /><path
         d="m 914.734,142 c 2.832,0 10.059,0.176 14.938,2 6.836,3.031 7.328,8.992 7.328,10.406 0,4.449 -3.711,8.59 -10.441,8.59 -10.829,0 -25.563,-9.637 -25.563,-27.019 0,-10.133 5.817,-17.981 15.473,-17.981 14.09,0 22.371,10.484 22.371,11.672 0,0.594 -0.594,1.289 -1.188,1.289 -0.492,0 -0.691,-0.207 -1.285,-1.012 -7.808,-9.949 -18.582,-9.949 -19.769,-9.949 -7.711,0 -8.598,8.402 -8.598,11.606 0,1.199 0.098,4.296 1.563,10.398 l 5.171,0 z m -4.785,2 c 3.875,15.469 14.11,16.996 16.696,16.996 4.671,0 7.355,-2.949 7.355,-6.41 C 934,144 918.098,144 914.023,144"
         style="fill:#000000;fill-opacity:1;fill-rule:nonzero;stroke:none"
         id="path46"
         inkscape:connector-curvature="0" /><path
         d="m 995.211,176 c 1.113,0 2.789,0 2.789,1.469 0,1.531 -1.605,1.531 -2.789,1.531 l -41.43,0 C 952.668,179 951,179 951,177.531 951,176 952.598,176 953.781,176"
         style="fill:#000000;fill-opacity:1;fill-rule:nonzero;stroke:none"
         id="path48"
         inkscape:connector-curvature="0" /><path
         d="m 1044.08,169.723 c 6.46,6.738 9.06,16.168 9.06,16.949 0,0.922 -0.8,0.922 -1.14,0.922 -0.94,0 -0.94,-0.211 -1.41,-1.774 -1.21,-4.679 -3.43,-9.004 -6.25,-12.836 -0.07,1.067 -0.21,5.817 -0.34,6.454 -1.07,7.023 -6.41,11.562 -13.52,11.562 -10.45,0 -20.48,-9.727 -20.48,-19.656 0,-6.528 4.71,-12.344 12.86,-12.344 6.46,0 12.29,3.078 16.23,6.23 1.61,-5.347 5.2,-6.23 7.3,-6.23 4.08,0 6.61,3.598 6.61,5.141 0,0.879 -0.84,0.879 -1.19,0.879 -0.92,0 -1.06,-0.297 -1.2,-0.743 -0.98,-2.828 -3.16,-3.277 -4,-3.277 -0.98,0 -2.18,0 -2.53,8.723 z m -5.37,-2.414 c -6.87,-5.668 -12.83,-6.309 -15.5,-6.309 -4.62,0 -7.21,3.121 -7.21,7.867 0,2.055 0.98,9.781 4.63,14.668 3.22,4.254 7.21,5.465 9.66,5.465 5.61,0 7.22,-5.465 7.78,-9.855 0.42,-3.051 0.29,-8.082 0.64,-11.836"
         style="fill:#000000;fill-opacity:1;fill-rule:nonzero;stroke:none"
         id="path50"
         inkscape:connector-curvature="0" /><path
         d="m 1076.73,180.914 c 0,1.164 -0.9,2.086 -2.19,2.086 -1.4,0 -3.04,-1.309 -3.04,-2.91 0,-1.36 1.09,-2.09 2.14,-2.09 1.64,0 3.09,1.457 3.09,2.914 z m 2.34,-23.781 c 0,0.738 -0.83,0.738 -1.02,0.738 -0.83,0 -0.87,-0.203 -1.17,-1.172 -0.82,-2.797 -3,-5.699 -5.42,-5.699 -1.12,0 -1.46,0.801 -1.46,1.906 0,1.051 0.24,1.602 0.62,2.555 0.38,1 0.76,2.004 1,2.703 0.19,0.453 2.05,5.113 2.71,6.914 0.38,1.004 0.67,1.656 0.67,2.508 0,2.406 -2.3,4.414 -5.44,4.414 -5.24,0 -8.03,-6.363 -8.03,-7.707 0,-0.695 0.81,-0.695 1.07,-0.695 0.86,0 0.91,0.238 1.16,0.949 1.12,3.367 3.54,5.453 5.72,5.453 0.97,0 1.52,-0.555 1.52,-1.91 0,-0.199 0,-0.852 -0.29,-1.805 -0.33,-0.898 -2.47,-6.262 -3.14,-7.965 -0.33,-0.851 -0.33,-0.953 -1.05,-2.656 -0.23,-0.699 -0.52,-1.402 -0.52,-2.254 0,-2.605 2.37,-4.41 5.28,-4.41 5.08,0 7.79,6.824 7.79,8.133"
         style="fill:#000000;fill-opacity:1;fill-rule:nonzero;stroke:none"
         id="path52"
         inkscape:connector-curvature="0" /><path
         d="m 1104.39,174.035 c 0.07,0.426 1.67,6.809 1.81,7.164 0.14,0.567 2.16,4.11 4.39,5.813 0.77,0.566 2.66,1.988 5.65,1.988 0.7,0 2.44,-0.074 3.84,-1 -2.24,-0.59 -3.08,-2.414 -3.08,-3.586 0,-1.437 1.24,-2.414 2.91,-2.414 1.68,0 4.09,1.277 4.09,4.098 0,3.488 -3.88,4.902 -7.46,4.902 -3.66,0 -6.83,-1.539 -9.93,-5.195 -1.26,4.461 -5.56,5.195 -7.24,5.195 -2.6,0 -4.36,-1.641 -5.49,-3.633 -1.62,-2.777 -2.6,-6.906 -2.6,-7.265 0,-0.922 0.97,-0.922 1.18,-0.922 0.98,0 1.05,0.211 1.54,2.133 1.04,4.339 2.37,7.687 5.09,7.687 1.81,0 2.3,-1.562 2.3,-3.477 0,-1.347 -0.63,-3.972 -1.12,-5.886 -0.48,-1.914 -1.18,-4.821 -1.53,-6.383 l -2.23,-9.074 c -0.28,-0.922 -0.7,-2.696 -0.7,-2.91 0,-1.559 1.26,-2.27 2.37,-2.27 1.05,0 2.44,0.641 3,2.059 0.14,0.425 0.91,3.546 1.32,5.316"
         style="fill:#000000;fill-opacity:1;fill-rule:nonzero;stroke:none"
         id="path54"
         inkscape:connector-curvature="0" /><path
         d="m 1157,199.613 -2.05,0 c -0.15,-0.902 -0.64,-3.851 -1.42,-4.328 -0.39,-0.285 -4.5,-0.285 -5.24,-0.285 l -9.58,0 c 3.23,2.406 6.84,5.156 9.78,7.121 4.4,3.047 8.51,5.895 8.51,11.102 0,6.289 -6.08,9.777 -13.25,9.777 -6.78,0 -11.75,-3.949 -11.75,-8.91 0,-2.637 2.26,-3.09 2.97,-3.09 1.39,0 3.03,0.914 3.03,3 0,1.828 -1.13,2.844 -2.48,3 1.39,2.398 4.28,4 7.62,4 4.82,0 8.86,-2.891 8.86,-7.777 0,-4.184 -2.96,-7.375 -6.91,-10.614 l -12.48,-10.316 c -0.51,-0.449 -0.56,-0.449 -0.61,-0.797 l 0,-1.496 23.34,0"
         style="fill:#000000;fill-opacity:1;fill-rule:nonzero;stroke:none"
         id="path56"
         inkscape:connector-curvature="0" /></g></g></svg>