<?xml version="1.0" encoding="UTF-8" standalone="no"?>
<!-- Created with Inkscape (http://www.inkscape.org/) -->

<svg
   xmlns:dc="http://purl.org/dc/elements/1.1/"
   xmlns:cc="http://creativecommons.org/ns#"
   xmlns:rdf="http://www.w3.org/1999/02/22-rdf-syntax-ns#"
   xmlns:svg="http://www.w3.org/2000/svg"
   xmlns="http://www.w3.org/2000/svg"
   xmlns:sodipodi="http://sodipodi.sourceforge.net/DTD/sodipodi-0.dtd"
   xmlns:inkscape="http://www.inkscape.org/namespaces/inkscape"
   id="svg2"
   version="1.1"
   inkscape:version="0.91 r13725"
   xml:space="preserve"
   width="131.50075"
   height="18.75"
   viewBox="0 0 131.50075 18.75"
   sodipodi:docname="G.svg"><metadata
     id="metadata8"><rdf:RDF><cc:Work
         rdf:about=""><dc:format>image/svg+xml</dc:format><dc:type
           rdf:resource="http://purl.org/dc/dcmitype/StillImage" /><dc:title></dc:title></cc:Work></rdf:RDF></metadata><defs
     id="defs6" /><sodipodi:namedview
     pagecolor="#ffffff"
     bordercolor="#666666"
     borderopacity="1"
     objecttolerance="10"
     gridtolerance="10"
     guidetolerance="10"
     inkscape:pageopacity="0"
     inkscape:pageshadow="2"
     inkscape:window-width="748"
     inkscape:window-height="480"
     id="namedview4"
     showgrid="false"
     fit-margin-left="10"
     fit-margin-top="0"
     fit-margin-right="0"
     fit-margin-bottom="0"
     inkscape:zoom="4.5169231"
     inkscape:cx="70.750125"
     inkscape:cy="9.375"
     inkscape:window-x="0"
     inkscape:window-y="24"
     inkscape:window-maximized="0"
     inkscape:current-layer="g10" /><g
     id="g10"
     inkscape:groupmode="layer"
     inkscape:label="ink_ext_XXXXXX"
     transform="matrix(1.25,0,0,-1.25,30.125125,15.625)"><g
       id="g12"
       transform="matrix(0.15,0,0,0.15,-16.2501,-2.5)"><path
         d="M 71.7148,94.0078 C 71.7148,94.3008 71.5,95 70.6055,95 70.3047,95 70.207,94.9023 69.1094,93.8359 L 62.1406,86.3711 C 61.2461,87.7266 56.6641,95 45.6094,95 23.4063,95 1,73.1055 1,50.1328 1,34.3867 12.0547,23 28.1836,23 c 4.3828,0 8.8633,0.8867 12.4492,2.3633 4.9766,1.9687 6.8711,4.039 8.6641,6.0078 0.8945,-2.4609 3.4844,-6.1055 4.4804,-6.1055 0.4961,0 0.6954,0.2969 0.6954,0.3946 0.1992,0.1953 1.1953,3.9375 1.6914,6.0039 l 1.8945,7.582 c 0.3984,1.6758 0.8945,3.3477 1.293,5.0234 1.0976,4.4297 1.1953,4.625 6.8711,4.7266 0.5,0 1.6093,0.0977 1.6093,1.9375 0,0.6758 -0.5039,1.0625 -1.3007,1.0625 l -24.4258,0 c -0.8985,0 -2.0938,0 -2.0938,-1.9336 0,-1.0664 0.7969,-1.0664 2.9883,-1.0664 0.1016,0 2.9922,0 5.2852,-0.1992 2.5937,-0.2969 3.0898,-0.5938 3.0898,-1.875 0,-0.8867 -1.0937,-5.3281 -2.0937,-8.9805 C 46.4922,27.0859 33.5313,26 30.0391,26 20.4688,26 10,31.6602 10,46.8398 10,49.918 10.9961,66.293 21.4648,79.1914 26.8516,85.9414 36.5195,92 46.3906,92 c 10.1719,0 16.0508,-7.6328 16.0508,-19.1172 0,-3.9609 -0.2969,-4.0586 -0.2969,-5.0508 0,-0.9882 1.0977,-0.9882 1.4961,-0.9882 1.2969,0 1.2969,0.1953 1.793,1.9765"
         style="fill:#000000;fill-opacity:1;fill-rule:nonzero;stroke:none"
         id="path14"
         inkscape:connector-curvature="0" /><path
         d="m 106.977,1 c 0,0.30078 0,0.5 -1.661,2.19922 C 93.1211,15.7969 90,34.6953 90,49.9961 c 0,17.3984 3.707,34.7969 15.707,47.2969 1.27,1.1992 1.27,1.3984 1.27,1.6992 0,0.6992 -0.403,1.0078 -0.997,1.0078 -0.988,0 -9.9019,-6.8086 -15.7417,-19.5078 C 85.1875,69.4922 84,58.3945 84,49.9961 84,42.1953 85.0898,30.0977 90.5352,18.7969 96.4766,6.5 104.992,0 105.98,0 c 0.594,0 0.997,0.300781 0.997,1"
         style="fill:#000000;fill-opacity:1;fill-rule:nonzero;stroke:none"
         id="path16"
         inkscape:connector-curvature="0" /><path
         d="m 161.004,48.4414 c 0,15.6602 -9.391,20.5547 -16.859,20.5547 -13.829,0 -27.149,-14.207 -27.149,-28.2109 0,-9.2383 5.988,-16.7891 16.164,-16.7891 6.285,0 13.469,2.2656 21.051,8.2773 1.297,-5.2226 4.59,-8.2773 9.082,-8.2773 5.285,0 8.387,5.418 8.387,6.9922 0,0.6875 -0.571,0.9844 -1.145,0.9844 -0.668,0 -0.953,-0.3047 -1.238,-1.0118 -1.715,-4.9648 -5.149,-4.9648 -5.34,-4.9648 -2.953,0 -2.953,7.7812 -2.953,10.1758 0,2.0937 0,2.2929 0.957,3.4922 9,11.7695 11.016,23.3398 11.016,23.4414 0,0.1992 -0.098,0.9961 -1.153,0.9961 -0.957,0 -0.957,-0.3008 -1.437,-2.0938 -1.723,-6.2851 -4.883,-13.8672 -9.383,-19.75 l 0,6.1836 z m -7,-13.625 c -8.953,-7.7148 -16.785,-8.8203 -20.852,-8.8203 -6.101,0 -9.152,4.5117 -9.152,10.9258 0,4.914 2.66,15.7383 5.938,20.8515 4.812,7.3164 10.343,9.2227 13.925,9.2227 10.141,0 10.141,-13.1328 10.141,-20.9531 0,-3.7071 0,-9.5196 0,-11.2266"
         style="fill:#000000;fill-opacity:1;fill-rule:nonzero;stroke:none"
         id="path18"
         inkscape:connector-curvature="0" /><path
         d="m 196,25 c 0,6.9141 -2.445,11 -6.254,11 -3.223,0 -5.18,-2.5937 -5.18,-5.5 0,-2.8008 1.989,-5.5 5.262,-5.5 1.192,0 2.485,0.3984 3.477,1.2969 0.297,0.1992 0.398,0.2969 0.496,0.2969 0.101,0 0.199,-0.1055 0.199,-1.5938 0,-7.2461 -3.473,-13.1211 -6.746,-16.35547 -1.094,-1.07422 -1.094,-1.26953 -1.094,-1.5664 0,-0.6836 0.488,-1.07422 0.977,-1.07422 1.07,0 8.863,7.53909 8.863,18.99609"
         style="fill:#000000;fill-opacity:1;fill-rule:nonzero;stroke:none"
         id="path20"
         inkscape:connector-curvature="0" /><path
         d="M 267.969,92.3867 C 266.875,95 265.684,95 263.996,95 c -2.777,0 -3.176,-0.8164 -3.867,-2.6133 L 235.516,32.2969 C 234.922,30.8008 234.625,30 227.082,30 l -2.086,0 0,-5 24.711,0 0,5 c -0.199,0 -8.832,0 -8.832,1.2461 0,0.0977 0.297,1.0547 0.398,1.1523 l 4.961,11.5977 26.594,0 5.957,-13.9961 -9.43,0 0,-5 33.653,0 0,5 -9.637,0 -25.402,62.3867 z m -8.215,-15.7812 11.359,-27.6094 -22.715,0"
         style="fill:#000000;fill-opacity:1;fill-rule:nonzero;stroke:none"
         id="path22"
         inkscape:connector-curvature="0" /><path
         d="m 327,25 c 0,6.9141 -2.445,11 -6.254,11 -3.223,0 -5.18,-2.5937 -5.18,-5.5 0,-2.8008 1.989,-5.5 5.262,-5.5 1.192,0 2.485,0.3984 3.477,1.2969 0.297,0.1992 0.398,0.2969 0.496,0.2969 0.101,0 0.199,-0.1055 0.199,-1.5938 0,-7.2461 -3.473,-13.1211 -6.746,-16.35547 -1.094,-1.07422 -1.094,-1.26953 -1.094,-1.5664 0,-0.6836 0.488,-1.07422 0.977,-1.07422 1.07,0 8.863,7.53909 8.863,18.99609"
         style="fill:#000000;fill-opacity:1;fill-rule:nonzero;stroke:none"
         id="path24"
         inkscape:connector-curvature="0" /><path
         d="m 376.703,92.8984 c 0,0.0977 0,1.0977 -1.293,1.0977 -2.293,0 -9.566,-0.7617 -12.156,-0.9531 -0.797,-0.0938 -1.895,-0.1875 -1.895,-2 0,-1.0469 0.996,-1.0469 2.493,-1.0469 4.781,0 4.882,-0.9063 4.882,-1.7031 l -0.3,-1.9922 -12.551,-49.7617 c -0.301,-1.0977 -0.5,-1.793 -0.5,-3.3868 0,-5.6718 4.383,-9.1562 9.066,-9.1562 3.289,0 5.778,1.9805 7.473,5.5469 1.793,3.7656 2.988,9.5078 2.988,9.707 0,0.9922 -0.883,0.9922 -1.176,0.9922 -0.976,0 -1.074,-0.4024 -1.367,-1.8047 -1.664,-6.5234 -3.519,-12.4414 -7.429,-12.4414 -2.934,0 -2.934,3.1875 -2.934,4.582 0,2.3867 0.098,2.8867 0.586,4.7774"
         style="fill:#000000;fill-opacity:1;fill-rule:nonzero;stroke:none"
         id="path26"
         inkscape:connector-curvature="0" /><path
         d="m 404,25 c 0,6.9141 -2.445,11 -6.254,11 -3.223,0 -5.18,-2.5937 -5.18,-5.5 0,-2.8008 1.989,-5.5 5.262,-5.5 1.192,0 2.485,0.3984 3.477,1.2969 0.297,0.1992 0.398,0.2969 0.496,0.2969 0.101,0 0.199,-0.1055 0.199,-1.5938 0,-7.2461 -3.473,-13.1211 -6.746,-16.35547 -1.094,-1.07422 -1.094,-1.26953 -1.094,-1.5664 0,-0.6836 0.488,-1.07422 0.977,-1.07422 1.07,0 8.863,7.53909 8.863,18.99609"
         style="fill:#000000;fill-opacity:1;fill-rule:nonzero;stroke:none"
         id="path28"
         inkscape:connector-curvature="0" /><path
         d="m 436.789,30.9805 c -0.301,-1.4961 -0.902,-3.793 -0.902,-4.2891 0,-1.7969 1.402,-2.6953 2.902,-2.6953 1.199,0 3,0.8008 3.699,2.793 0.098,0.1992 1.301,4.8906 1.899,7.3828 l 2.199,8.9765 c 0.602,2.1954 1.203,4.3907 1.703,6.6836 0.399,1.6953 1.199,4.5899 1.297,4.9883 1.5,3.0899 6.801,12.1758 16.301,12.1758 4.5,0 5.398,-3.6992 5.398,-6.9883 0,-2.4961 -0.699,-5.289 -1.5,-8.2812 l -2.801,-11.5703 -2,-7.5821 c -0.398,-1.9922 -1.296,-5.3867 -1.296,-5.8828 0,-1.7969 1.398,-2.6953 2.898,-2.6953 3.098,0 3.699,2.4961 4.5,5.6875 1.398,5.5859 5.098,20.1484 6,24.0391 0.297,1.2968 5.598,13.2734 16.496,13.2734 4.301,0 5.414,-3.3984 5.414,-6.9883 0,-5.6875 -4.476,-17.0586 -6.609,-22.3437 -0.957,-2.3946 -1.383,-3.4922 -1.383,-5.4883 0,-4.6875 3.527,-8.1797 8.269,-8.1797 9.477,0 13.211,14.4609 13.211,15.2539 0,0.9922 -0.914,0.9922 -1.218,0.9922 -1.012,0 -1.012,-0.3008 -1.516,-1.8047 -1.52,-5.3164 -4.754,-12.4414 -10.32,-12.4414 -1.719,0 -2.426,1 -2.426,3.293 0,2.4922 0.91,4.8867 1.82,7.082 1.922,5.1875 6.176,16.2578 6.176,21.9453 0,6.4844 -3.996,10.6797 -11.453,10.6797 -7.461,0 -12.531,-4.3672 -16.211,-9.625 -0.102,1.2891 -0.398,4.6641 -3.184,7.0469 -2.488,2.082 -5.668,2.5781 -8.156,2.5781 -8.949,0 -13.824,-6.3477 -15.516,-8.6289 -0.496,5.6523 -4.671,8.6289 -9.148,8.6289 -4.574,0 -6.465,-3.8789 -7.359,-5.668 -1.789,-3.4765 -3.082,-9.3398 -3.082,-9.6367 0,-0.9961 1,-0.9961 1.199,-0.9961 1,0 1.098,0.1016 1.699,2.3164 1.699,7.1485 3.699,11.9844 7.301,11.9844 1.598,0 3.098,-0.8047 3.098,-4.5977 0,-2.0937 -0.301,-3.1914 -1.602,-8.375"
         style="fill:#000000;fill-opacity:1;fill-rule:nonzero;stroke:none"
         id="path30"
         inkscape:connector-curvature="0" /><path
         d="m 536,25 c 0,6.9141 -2.445,11 -6.254,11 -3.223,0 -5.18,-2.5937 -5.18,-5.5 0,-2.8008 1.989,-5.5 5.262,-5.5 1.192,0 2.485,0.3984 3.477,1.2969 0.297,0.1992 0.398,0.2969 0.496,0.2969 0.101,0 0.199,-0.1055 0.199,-1.5938 0,-7.2461 -3.473,-13.1211 -6.746,-16.35547 -1.094,-1.07422 -1.094,-1.26953 -1.094,-1.5664 0,-0.6836 0.488,-1.07422 0.977,-1.07422 1.07,0 8.863,7.53909 8.863,18.99609"
         style="fill:#000000;fill-opacity:1;fill-rule:nonzero;stroke:none"
         id="path32"
         inkscape:connector-curvature="0" /><path
         d="m 568.746,30.9805 c -0.297,-1.4961 -0.894,-3.793 -0.894,-4.2891 0,-1.7969 1.39,-2.6953 2.878,-2.6953 1.196,0 2.981,0.8008 3.676,2.793 0.098,0.1992 1.289,4.8906 1.887,7.3828 l 2.184,8.9765 c 0.597,2.1954 1.191,4.3907 1.687,6.6836 0.399,1.6953 1.191,4.5899 1.293,4.9883 1.488,3.0899 6.75,12.1758 16.184,12.1758 4.464,0 5.359,-3.6992 5.359,-6.9883 0,-6.1875 -4.574,-18.9531 -6.07,-23.2422 -0.84,-2.2929 -0.934,-3.4922 -0.934,-4.5898 0,-4.6875 3.434,-8.1797 8.043,-8.1797 9.219,0 12.848,14.4609 12.848,15.2539 0,0.9922 -0.875,0.9922 -1.168,0.9922 -0.973,0 -0.973,-0.3008 -1.461,-1.8047 -1.945,-6.8242 -5.156,-12.4414 -9.926,-12.4414 -1.652,0 -2.336,1 -2.336,3.293 0,2.4922 0.801,4.8867 1.598,7.082 1.683,5.2891 5.41,16.2578 5.41,21.9453 0,6.6836 -4.238,10.6797 -11.332,10.6797 -8.867,0 -13.695,-6.3477 -15.371,-8.6289 -0.492,5.5547 -4.535,8.6289 -9.067,8.6289 -4.531,0 -6.402,-3.8789 -7.39,-5.668 -1.574,-3.3789 -2.953,-9.2422 -2.953,-9.6367 0,-0.9961 0.992,-0.9961 1.191,-0.9961 0.992,0 1.09,0.1016 1.688,2.3164 1.687,7.1485 3.671,11.9844 7.246,11.9844 1.984,0 3.078,-1.3047 3.078,-4.5977 0,-2.0937 -0.297,-3.1914 -1.59,-8.375"
         style="fill:#000000;fill-opacity:1;fill-rule:nonzero;stroke:none"
         id="path34"
         inkscape:connector-curvature="0" /><path
         d="m 649.004,49.9961 c 0,7.7969 -1.109,19.8984 -6.637,31.1953 C 636.336,93.4922 627.688,100 626.684,100 c -0.602,0 -1.004,-0.4102 -1.004,-1.0078 0,-0.3008 0,-0.5 1.89,-2.3008 C 637.328,86.793 643,70.8945 643,49.9961 643,32.8984 639.316,15.2969 626.973,2.69922 625.68,1.5 625.68,1.30078 625.68,1 c 0,-0.601562 0.402,-1 1.004,-1 1.004,0 10.054,6.80078 15.984,19.4961 5.125,11 6.336,22.1016 6.336,30.5"
         style="fill:#000000;fill-opacity:1;fill-rule:nonzero;stroke:none"
         id="path36"
         inkscape:connector-curvature="0" /></g></g></svg>