<?xml version="1.0" encoding="UTF-8" standalone="no"?>
<!-- Created with Inkscape (http://www.inkscape.org/) -->

<svg
   xmlns:dc="http://purl.org/dc/elements/1.1/"
   xmlns:cc="http://creativecommons.org/ns#"
   xmlns:rdf="http://www.w3.org/1999/02/22-rdf-syntax-ns#"
   xmlns:svg="http://www.w3.org/2000/svg"
   xmlns="http://www.w3.org/2000/svg"
   xmlns:sodipodi="http://sodipodi.sourceforge.net/DTD/sodipodi-0.dtd"
   xmlns:inkscape="http://www.inkscape.org/namespaces/inkscape"
   id="svg2"
   version="1.1"
   inkscape:version="0.91 r13725"
   xml:space="preserve"
   width="201.3876"
   height="36.103542"
   viewBox="0 0 201.3876 36.103542"
   sodipodi:docname="primitive_gaussian.svg"><metadata
     id="metadata8"><rdf:RDF><cc:Work
         rdf:about=""><dc:format>image/svg+xml</dc:format><dc:type
           rdf:resource="http://purl.org/dc/dcmitype/StillImage" /><dc:title></dc:title></cc:Work></rdf:RDF></metadata><defs
     id="defs6" /><sodipodi:namedview
     pagecolor="#ffffff"
     bordercolor="#666666"
     borderopacity="1"
     objecttolerance="10"
     gridtolerance="10"
     guidetolerance="10"
     inkscape:pageopacity="0"
     inkscape:pageshadow="2"
     inkscape:window-width="1256"
     inkscape:window-height="652"
     id="namedview4"
     showgrid="false"
     inkscape:zoom="3.3747126"
     inkscape:cx="105.2173"
     inkscape:cy="8.1249999"
     inkscape:window-x="10"
     inkscape:window-y="34"
     inkscape:window-maximized="0"
     inkscape:current-layer="g10"
     fit-margin-top="0"
     fit-margin-left="0"
     fit-margin-right="0"
     fit-margin-bottom="0" /><g
     id="g10"
     inkscape:groupmode="layer"
     inkscape:label="ink_ext_XXXXXX"
     transform="matrix(1.25,0,0,-1.25,93.512602,36.103542)"><g
       id="g12"
       transform="matrix(0.18690265,0,0,0.1966464,-74.996984,0)"><path
         d="m 39.4961,91.6016 c 0,0.1992 0.2969,1.2929 0.2969,1.3945 0,0.0977 0,1 -1.1914,1 -0.9922,0 -1.0899,-0.3047 -1.4883,-1.9961 L 31.3594,68.9961 C 15.582,68.4961 1,55.3633 1,41.9336 1,32.5508 7.94531,24.75 20.0508,24.0586 19.2539,20.9961 18.5586,17.8359 17.7656,14.7773 16.5781,10.1367 15.582,6.38281 15.582,6.08594 15.582,5.09766 16.2773,5 16.7734,5 c 0.4961,0 0.6954,0.09766 0.9922,0.39453 0.1992,0.19922 0.793,2.56641 1.0938,3.94922 L 22.6289,24.0586 C 38.6016,24.5508 53,37.8828 53,51.1172 53,58.918 47.7305,68.0039 33.9375,68.9961 l 5.5586,22.6055 z M 20.3516,26.0039 C 14.2813,26.3008 7,29.793 7,39.7656 7,51.7305 15.6992,65.6914 30.7695,66.9961 L 20.3516,26.0039 Z m 13.1757,40.9922 c 7.6954,-0.4063 13.4688,-4.9922 13.4688,-13.7695 0,-11.7657 -8.7109,-26.0274 -23.8984,-27.2227"
         style="fill:#000000;fill-opacity:1;fill-rule:nonzero;stroke:none"
         id="path14"
         inkscape:connector-curvature="0" /><path
         d="m 87.9766,1 c 0,0.30078 0,0.5 -1.6602,2.19922 C 74.1211,15.7969 71,34.6953 71,49.9961 c 0,17.3984 3.707,34.7969 15.707,47.2969 1.2696,1.1992 1.2696,1.3984 1.2696,1.6992 0,0.6992 -0.4024,1.0078 -0.9961,1.0078 C 85.9922,100 77.0781,93.1914 71.2383,80.4922 66.1875,69.4922 65,58.3945 65,49.9961 65,42.1953 66.0898,30.0977 71.5352,18.7969 77.4766,6.5 85.9922,0 86.9805,0 c 0.5937,0 0.9961,0.300781 0.9961,1"
         style="fill:#000000;fill-opacity:1;fill-rule:nonzero;stroke:none"
         id="path16"
         inkscape:connector-curvature="0" /><path
         d="m 113.207,58.5742 0,11.4258 -16.5195,-0.7266 0,-4.2734 C 102.359,65 103,65 103,61.0703 L 103,30 l -6.3125,0 0,-5 26.3005,0 0,5 -8.984,0 0,17.2813 c 0,6.914 2.551,18.9648 12.769,18.9648 -0.093,-0.0977 -1.777,-1.6289 -1.777,-4.4063 0,-3.9257 3.149,-5.8437 6,-5.8437 2.852,0 6,2.0586 6,5.9727 0,5.1914 -5.375,8.0312 -10.551,8.0312 -6.968,0 -10.949,-5.0547 -13.238,-11.4258"
         style="fill:#000000;fill-opacity:1;fill-rule:nonzero;stroke:none"
         id="path18"
         inkscape:connector-curvature="0" /><path
         d="m 169.004,49.9961 c 0,7.7969 -1.109,19.8984 -6.637,31.1953 C 156.336,93.4922 147.688,100 146.684,100 c -0.602,0 -1.004,-0.4102 -1.004,-1.0078 0,-0.3008 0,-0.5 1.89,-2.3008 C 157.328,86.793 163,70.8945 163,49.9961 163,32.8984 159.316,15.2969 146.973,2.69922 145.68,1.5 145.68,1.30078 145.68,1 c 0,-0.601562 0.402,-1 1.004,-1 1.004,0 10.054,6.80078 15.984,19.4961 5.125,11 6.336,22.1016 6.336,30.5"
         style="fill:#000000;fill-opacity:1;fill-rule:nonzero;stroke:none"
         id="path20"
         inkscape:connector-curvature="0" /><path
         d="m 275.621,58 c 1.488,0 3.379,0 3.379,2 0,2 -1.891,2 -3.277,2 l -59.457,0 c -1.391,0 -3.278,0 -3.278,-2 0,-2 1.887,-2 3.375,-2 l 59.258,0 z m 0.102,-20 c 1.386,0 3.277,0 3.277,2 0,2 -1.891,2 -3.379,2 l -59.258,0 c -1.488,0 -3.375,0 -3.375,-2 0,-2 1.887,-2 3.278,-2"
         style="fill:#000000;fill-opacity:1;fill-rule:nonzero;stroke:none"
         id="path22"
         inkscape:connector-curvature="0" /><path
         d="m 346.273,55.1641 c 0.598,2.6093 2.891,11.832 9.864,11.832 0.5,0 2.89,0 4.984,-0.9922 C 358.133,65.4961 356,62.9688 356,60.5391 356,58.9219 357.078,57 359.719,57 c 2.152,0 5.285,1.7422 5.285,5.6094 0,5.0312 -5.711,6.3867 -9.004,6.3867 -5.75,0 -9.211,-5.2539 -10.398,-7.5313 -2.477,6.5391 -7.821,7.5313 -10.692,7.5313 -10.293,0 -15.933,-12.8203 -15.933,-15.3047 0,-0.9961 0.996,-0.9961 1.195,-0.9961 0.797,0 1.098,0.2031 1.297,1.1094 3.386,10.6719 9.961,13.1914 13.347,13.1914 1.895,0 5.383,-0.9063 5.383,-6.7188 0,-3.1054 -1.695,-9.8242 -5.383,-23.8554 -1.593,-6.2149 -5.078,-10.4258 -9.461,-10.4258 -0.597,0 -2.89,0 -4.984,1.0039 2.461,0.5039 4.629,2.6289 4.629,5.4609 0,2.7305 -2.156,3.5391 -3.621,3.5391 -2.938,0 -5.383,-2.5195 -5.383,-5.6133 0,-4.4531 4.969,-6.3906 9.344,-6.3906 6.558,0 10.137,6.8867 10.433,7.4805 1.196,-3.6407 4.77,-7.4805 10.735,-7.4805 10.234,0 15.906,12.7773 15.906,15.2539 0,0.9922 -0.894,0.9922 -1.195,0.9922 -0.895,0 -1.094,-0.4024 -1.293,-1.1055 -3.289,-10.7304 -10.063,-13.1406 -13.254,-13.1406 -3.883,0 -5.477,3.2109 -5.477,6.6172 0,2.2031 0.598,4.4101 1.692,8.8203"
         style="fill:#000000;fill-opacity:1;fill-rule:nonzero;stroke:none"
         id="path24"
         inkscape:connector-curvature="0" /><path
         d="m 388.648,113.867 c 0.075,0.141 0.297,1.067 0.297,1.137 0,0.355 -0.285,0.996 -1.14,0.996 -1.422,0 -7.332,-0.512 -9.11,-0.637 -0.5,-0.066 -1.496,-0.129 -1.496,-1.468 0,-0.895 0.996,-0.895 1.781,-0.895 3.415,0 3.415,-0.508 3.415,-1.078 0,-0.5 -0.141,-0.93 -0.286,-1.574 L 373.285,75.0156 C 373.074,74.3008 373,73.5117 373,72.7969 373,68.2188 377.059,66 380.477,66 c 1.711,0 3.847,0.5742 5.695,3.793 1.496,2.6484 2.496,6.8672 2.496,7.1562 0,0.9297 -0.961,0.9297 -1.18,0.9297 -1.031,0 -1.175,-0.4297 -1.472,-1.7187 C 385.063,72.582 383.664,68 380.5,68 c -1.984,0 -2.5,1.7773 -2.5,3.4805 0,0.7812 0.223,2.1289 0.441,2.9101"
         style="fill:#000000;fill-opacity:1;fill-rule:nonzero;stroke:none"
         id="path26"
         inkscape:connector-curvature="0" /><path
         d="m 448.418,62.9805 c 0.398,1.3867 0.398,1.5859 0.398,2.2773 0,1.7813 -1.406,2.6797 -2.906,2.6797 -1,0 -2.601,-0.6055 -3.5,-2.1016 -0.203,-0.5 -1,-3.5937 -1.402,-5.3906 -0.699,-2.5976 -1.399,-5.293 -2,-7.9883 l -4.504,-17.9726 c -0.399,-1.4961 -4.699,-8.4883 -11.305,-8.4883 -5.101,0 -6.199,4.3906 -6.199,8.082 0,4.586 1.676,10.7735 5.031,19.5508 1.578,4.0899 1.973,5.1875 1.973,7.1797 0,4.4883 -3.16,8.1875 -8.094,8.1875 -9.371,0 -13.019,-14.4102 -13.019,-15.3047 0,-0.9961 0.98,-0.9961 1.175,-0.9961 0.981,0 1.079,0.2031 1.571,1.8125 2.648,9.4649 6.574,12.4883 9.91,12.4883 0.785,0 2.457,0 2.457,-3.1992 0,-2.4922 -0.934,-5.086 -1.59,-6.9844 -3.734,-10.5703 -5.418,-16.2578 -5.418,-20.9453 0,-8.8789 6.211,-11.8711 12.024,-11.8711 3.847,0 7.195,1.6602 9.957,4.3906 C 431.68,23.2617 430.484,18.4336 426.5,13.2109 423.91,9.85938 420.125,7 415.543,7 c -1.395,0 -5.879,0.28516 -7.574,3.9961 1.594,0 2.89,0 4.285,1.2266 0.996,0.9218 1.992,2.25 1.992,4.1953 0,3.1679 -2.687,3.5781 -3.687,3.5781 -2.289,0 -5.579,-1.5781 -5.579,-6.4141 0,-4.93356 4.383,-8.582 10.563,-8.582 10.262,0 20.523,9.0039 23.312,20.1836"
         style="fill:#000000;fill-opacity:1;fill-rule:nonzero;stroke:none"
         id="path28"
         inkscape:connector-curvature="0" /><path
         d="m 483.371,72.4531 c -0.348,-1.4179 -0.98,-3.8281 -0.98,-4.1836 0,-1.5586 1.261,-2.2695 2.382,-2.2695 1.258,0 2.379,0.9219 2.731,1.5625 0.348,0.6367 0.91,2.9063 1.258,4.3945 0.351,1.3477 1.121,4.6094 1.543,6.3828 0.418,1.5625 0.84,3.1211 1.187,4.754 0.77,3.0468 0.77,3.1875 2.172,5.3867 C 495.902,91.957 499.406,96 504.863,96 508.785,96 509,92.7344 509,91.0352 509,86.7773 506.094,78.9063 505.012,75.9297 504.27,73.9453 504,73.3047 504,72.1016 504,68.3438 507,66 510.477,66 c 6.82,0 9.82,9.875 9.82,10.9492 0,0.9297 -0.887,0.9297 -1.09,0.9297 -0.953,0 -1.019,-0.4297 -1.293,-1.2187 C 516.348,70.9375 513.422,68 510.699,68 509.273,68 509,68.9922 509,70.4766 c 0,1.625 0.328,2.5429 1.512,5.7265 0.789,2.1914 3.488,9.6836 3.488,13.6407 0,1.1328 0,4.1015 -2.586,6.1562 -1.184,0.9609 -3.207,2 -6.484,2 -6.274,0 -10.106,-4.2578 -12.336,-7.2891 C 492.035,96.8438 487.086,98 483.531,98 477.746,98 473.844,94.3047 471.754,91.4102 471.266,96.4063 467.152,98 464.293,98 c -2.996,0 -4.602,-2.2109 -5.508,-3.8477 -1.531,-2.6328 -2.508,-6.6914 -2.508,-7.0507 0,-0.9219 0.981,-0.9219 1.192,-0.9219 0.98,0 1.051,0.2109 1.539,2.1328 1.051,4.1992 2.379,7.6875 5.109,7.6875 1.821,0 2.313,-1.5625 2.313,-3.4766 0,-1.3476 -0.629,-3.9726 -1.121,-5.8867 -0.489,-1.914 -1.192,-4.8203 -1.539,-6.3828 l -2.243,-9.0742 c -0.277,-0.9219 -0.699,-2.6953 -0.699,-2.9102 0,-1.5586 1.262,-2.2695 2.379,-2.2695 1.262,0 2.383,0.9219 2.731,1.5625 0.351,0.6367 0.91,2.9063 1.261,4.3945 0.352,1.3477 1.121,4.6094 1.539,6.3828 0.422,1.5625 0.84,3.1211 1.192,4.754 0.769,2.9062 0.91,3.4726 2.941,6.3789 1.961,2.8359 5.25,6.5273 10.5,6.5273 4.063,0 4.133,-3.6172 4.133,-4.9648 0,-1.7735 -0.211,-2.6954 -1.191,-6.668"
         style="fill:#000000;fill-opacity:1;fill-rule:nonzero;stroke:none"
         id="path30"
         inkscape:connector-curvature="0" /><path
         d="m 542.25,33.2695 c 5.379,5.7696 8.27,8.2578 11.855,11.3438 0,0.0976 6.176,5.3711 9.766,8.9531 9.461,9.2539 11.656,14.0313 11.656,14.4297 0,1 -0.898,1 -1.097,1 -0.7,0 -0.996,-0.2148 -1.496,-1.1719 -2.989,-5.1172 -5.079,-6.8203 -7.469,-6.8203 -2.395,0 -3.59,1.5977 -5.082,3.4102 -1.895,2.4492 -3.586,4.582 -6.875,4.582 -7.473,0 -12.055,-9.2383 -12.055,-11.3203 0,-0.5 0.301,-1.0938 1.195,-1.0938 0.899,0 1.098,0.4649 1.297,1.0274 1.891,4.2929 7.668,4.3867 8.469,4.3867 2.09,0 3.984,-0.6992 6.274,-1.4961 3.984,-1.4961 5.082,-1.4961 7.671,-1.4961 -3.586,-4.2344 -11.953,-11.3125 -13.847,-12.8867 l -8.965,-8.2578 c -6.777,-6.586 -10.262,-12.1914 -10.262,-12.8789 0,-0.9844 0.996,-0.9844 1.195,-0.9844 0.797,0 0.997,0.1875 1.594,1.2148 2.289,3.2696 5.281,5.793 8.469,5.793 2.289,0 3.285,-0.8437 5.777,-3.5508 1.696,-1.9609 3.489,-3.457 6.375,-3.457 9.864,0 15.641,12.5781 15.641,15.2539 0,0.4961 -0.398,0.9922 -1.195,0.9922 -0.895,0 -1.094,-0.5703 -1.395,-1.2383 C 567.457,32.8086 561.078,31 557.793,31 c -1.992,0 -3.785,0.3984 -5.879,0.8672 -3.387,0.8672 -4.883,1.1367 -6.973,1.1367 -0.199,0 -1.793,0 -2.691,0.2656"
         style="fill:#000000;fill-opacity:1;fill-rule:nonzero;stroke:none"
         id="path32"
         inkscape:connector-curvature="0" /><path
         d="m 588.445,71.1797 c -0.277,-0.9219 -0.691,-2.6953 -0.691,-2.9102 0,-1.5586 1.242,-2.2695 2.344,-2.2695 1.238,0 2.343,0.9219 2.687,1.5625 0.344,0.6367 0.895,2.9063 1.238,4.3945 0.344,1.3477 1.102,4.6094 1.516,6.3828 0.414,1.5625 0.828,3.1211 1.172,4.754 0.758,2.9062 0.894,3.4726 2.894,6.3789 C 601.531,92.3086 604.77,96 609.938,96 613.934,96 614,92.3828 614,91.0352 614,86.7773 611.094,78.9063 610.012,75.9297 609.27,73.9453 609,73.3047 609,72.1016 609,68.3438 612.105,66 615.711,66 c 7.066,0 10.176,9.875 10.176,10.9492 0,0.9297 -0.934,0.9297 -1.149,0.9297 -1,0 -1.074,-0.4297 -1.359,-1.2187 C 621.73,70.9375 618.652,68 615.789,68 614.285,68 614,68.9961 614,70.4844 c 0,1.6289 0.328,2.5508 1.512,5.7422 0.789,2.1992 3.492,9.7148 3.492,13.6875 0,6.8789 -5.285,8.0859 -8.918,8.0859 -5.691,0 -9.531,-3.6953 -11.586,-6.5898 -0.48,4.9961 -4.527,6.5898 -7.336,6.5898 -2.949,0 -4.527,-2.2109 -5.418,-3.8477 -1.508,-2.6328 -2.469,-6.6914 -2.469,-7.0507 0,-0.9219 0.965,-0.9219 1.172,-0.9219 0.965,0 1.031,0.2109 1.516,2.1328 1.031,4.1992 2.34,7.6875 5.027,7.6875 1.793,0 2.274,-1.5625 2.274,-3.4766 0,-1.3476 -0.621,-3.9726 -1.102,-5.8867 -0.48,-1.914 -1.172,-4.8203 -1.516,-6.3828"
         style="fill:#000000;fill-opacity:1;fill-rule:nonzero;stroke:none"
         id="path34"
         inkscape:connector-curvature="0" /><path
         d="m 651.734,48 c 2.832,0 10.059,0.1758 14.938,2 6.836,3.0313 7.328,8.9922 7.328,10.4063 0,4.4492 -3.711,8.5898 -10.441,8.5898 -10.829,0 -25.563,-9.6367 -25.563,-27.0195 0,-10.1328 5.817,-17.9805 15.473,-17.9805 14.09,0 22.371,10.4844 22.371,11.6719 0,0.5937 -0.594,1.289 -1.188,1.289 -0.492,0 -0.691,-0.207 -1.285,-1.0117 -7.808,-9.9492 -18.582,-9.9492 -19.769,-9.9492 -7.711,0 -8.598,8.4023 -8.598,11.6055 0,1.1992 0.098,4.2968 1.563,10.3984 l 5.171,0 z m -4.785,2 c 3.875,15.4688 14.11,16.9961 16.696,16.9961 4.671,0 7.355,-2.9492 7.355,-6.4102 C 671,50 655.098,50 651.023,50"
         style="fill:#000000;fill-opacity:1;fill-rule:nonzero;stroke:none"
         id="path36"
         inkscape:connector-curvature="0" /><path
         d="M 732.211,83 C 733.324,83 735,83 735,84.4688 735,86 733.395,86 732.211,86 l -41.43,0 C 689.668,86 688,86 688,84.5313 688,83 689.598,83 690.781,83"
         style="fill:#000000;fill-opacity:1;fill-rule:nonzero;stroke:none"
         id="path38"
         inkscape:connector-curvature="0" /><path
         d="m 780.078,76.7227 c 6.465,6.7382 9.067,16.1679 9.067,16.9492 0,0.9219 -0.809,0.9219 -1.145,0.9219 -0.941,0 -0.941,-0.211 -1.414,-1.7735 -1.207,-4.6797 -3.426,-9.0039 -6.25,-12.8359 -0.066,1.0664 -0.203,5.8164 -0.336,6.4531 C 778.926,93.4609 773.594,98 766.48,98 756.027,98 746,88.2734 746,78.3438 746,71.8164 750.707,66 758.855,66 c 6.465,0 12.297,3.0781 16.235,6.2305 1.613,-5.3477 5.199,-6.2305 7.305,-6.2305 4.078,0 6.605,3.5977 6.605,5.1406 0,0.8789 -0.844,0.8789 -1.191,0.8789 -0.914,0 -1.055,-0.2968 -1.196,-0.7422 C 785.629,68.4492 783.449,68 782.605,68 c -0.98,0 -2.175,0 -2.527,8.7227 z m -5.371,-2.4141 C 767.836,68.6406 761.879,68 759.215,68 754.59,68 752,71.1211 752,75.8672 c 0,2.0547 0.98,9.7812 4.625,14.668 3.223,4.2539 7.219,5.4648 9.668,5.4648 5.609,0 7.219,-5.4648 7.781,-9.8555 0.418,-3.0507 0.281,-8.082 0.633,-11.8359"
         style="fill:#000000;fill-opacity:1;fill-rule:nonzero;stroke:none"
         id="path40"
         inkscape:connector-curvature="0" /><path
         d="m 810.387,81.0352 c 0.07,0.4257 1.676,6.8086 1.816,7.164 0.137,0.5664 2.16,4.1094 4.391,5.8125 0.769,0.5664 2.652,1.9883 5.648,1.9883 0.699,0 2.442,-0.0742 3.836,-1 C 823.84,94.4102 823,92.5859 823,91.4141 823,89.9766 824.238,89 825.914,89 827.59,89 830,90.2773 830,93.0977 830,96.5859 826.121,98 822.535,98 c -3.66,0 -6.824,-1.5391 -9.922,-5.1953 -1.265,4.4609 -5.558,5.1953 -7.246,5.1953 -2.601,0 -4.359,-1.6406 -5.488,-3.6328 -1.617,-2.7774 -2.602,-6.9063 -2.602,-7.2656 0,-0.9219 0.977,-0.9219 1.188,-0.9219 0.976,0 1.043,0.2109 1.531,2.1328 1.047,4.3398 2.371,7.6875 5.094,7.6875 1.812,0 2.301,-1.5625 2.301,-3.4766 0,-1.3476 -0.629,-3.9726 -1.118,-5.8867 -0.488,-1.914 -1.183,-4.8203 -1.535,-6.3828 l -2.23,-9.0742 c -0.278,-0.9219 -0.695,-2.6953 -0.695,-2.9102 0,-1.5586 1.253,-2.2695 2.371,-2.2695 1.043,0 2.437,0.6406 2.996,2.0586 0.14,0.4258 0.906,3.5469 1.324,5.3164"
         style="fill:#000000;fill-opacity:1;fill-rule:nonzero;stroke:none"
         id="path42"
         inkscape:connector-curvature="0" /><path
         d="m 863,106.613 -2.055,0 c -0.148,-0.902 -0.636,-3.851 -1.418,-4.328 C 859.137,102 855.027,102 854.293,102 l -9.582,0 c 3.227,2.406 6.844,5.156 9.777,7.121 4.403,3.047 8.512,5.895 8.512,11.102 0,6.289 -6.078,9.777 -13.254,9.777 -6.777,0 -11.746,-3.949 -11.746,-8.91 0,-2.637 2.258,-3.09 2.973,-3.09 1.386,0 3.027,0.914 3.027,3 0,1.828 -1.129,2.844 -2.477,3 1.391,2.398 4.278,4 7.614,4 4.828,0 8.863,-2.891 8.863,-7.777 0,-4.184 -2.965,-7.375 -6.906,-10.614 L 838.613,99.293 C 838.102,98.8438 838.051,98.8438 838,98.4961 L 838,97 l 23.34,0"
         style="fill:#000000;fill-opacity:1;fill-rule:nonzero;stroke:none"
         id="path44"
         inkscape:connector-curvature="0" /></g></g></svg>